<svg xmlns="http://www.w3.org/2000/svg" width="418.2" height="219.2" viewBox="0 0 418.2 219.2"><path d="M-50-114.4q.6-1,1.2-.8,1.6-2.4,3.8-6,2.6-3,3.8-4.6-6,9.6-16.8,24.8Q-71.6-82.6-76-76q-.6,1-1,1.8a8.766,8.766,0,0,1-.8,1.6l-2.4,3.2q1-.6.8,0a1.612,1.612,0,0,1-.8,1.2q-15.2,22.4-19.4,28a126.429,126.429,0,0,0-7.2,10.6.576.576,0,0,0,.4.2q.2,0-2.2,3l-.4-.2-1.4,2a.576.576,0,0,1-.4-.2,17.192,17.192,0,0,1-1.8,3.4,29.357,29.357,0,0,0-1.8,3.4v-.2a12.738,12.738,0,0,0-1.4,2.2q-.8,1.4-1.2,2.2a5.47,5.47,0,0,1-.2,1.2A29.358,29.358,0,0,0-119-9.2a3.508,3.508,0,0,0-.4,1q-.4.6-1.6,3Q-122-3-122.4-2A18.468,18.468,0,0,0-123.8.6q-.4,1.2-.6,1.2a14.657,14.657,0,0,1-1.2,2.6,8,8,0,0,0-1.2,2.8l-.6-1.2q-.2-.4-.8.8a21.079,21.079,0,0,0-1.2,1.8,4.6,4.6,0,0,0-.6,1.2,2.511,2.511,0,0,0-.6,1q-.8,1.2-1.4,2.2a3.133,3.133,0,0,1-.6.8q-.6,1-.8,1.4-3.2,4.8-2.8,2.4,0-1,.4-5.4A49.969,49.969,0,0,0-135,7a9.3,9.3,0,0,0,.4-3.2q-.2-2.2-.8-2.4l.8-2.4q-.4-.2-2,2.8-1.2,3-2.2,5.4-.4.8-.8,0a3.273,3.273,0,0,1-.4-1.8v-3a10.876,10.876,0,0,1,.4-3q.4-1.8.8-3.2-.4-1.2-.8-2.8A6.2,6.2,0,0,1-140-8q-.2.2-.2-.4a3.775,3.775,0,0,0-.2-1.2v.4a15.16,15.16,0,0,0-.4-2.6l-.4-4.6h-.4v.6a.815.815,0,0,1,.2.6h-1q0-.6-.2-2.4-.2-2-.2-2.8-.4-3-1.4-2.2v1h-.6v7h-.6v-1l-.6,2.4a7.3,7.3,0,0,0-.2,4q.2,1.4.4,2.6a2.916,2.916,0,0,1,.4,1.2v1.2q0,.6-.4.6a3.969,3.969,0,0,1,.4,1.8A8.358,8.358,0,0,1-145-.4a8.6,8.6,0,0,0,.2,1.6V2.8A51.5,51.5,0,0,1-147-6.6a5.876,5.876,0,0,1-.2,1.4,8.58,8.58,0,0,0-.4,2.2q-.2-4.2-.2-9.6-1-11.4-1.2-11.6a2.226,2.226,0,0,0-.2-1,.806.806,0,0,1-.4-.8v-.6l.2-1.2q-.2.6-.6.2a.815.815,0,0,1-.2-.6q-.6-9.8.6-14.6A22.1,22.1,0,0,0-149-47q-2.6,3.8-4.6,6.6a2.151,2.151,0,0,0-.4,1.2,1.944,1.944,0,0,1-.4,1q-.6.6-1.6,1.8.6-.4.6.2,0,.2-.4.6-4.6,6.6-5.8,8.4A62.123,62.123,0,0,1-167-20q-1.4,1.8-2,2.6-1.4,2-2.2,3,.2,0,.4.4.6.2-1,1.6a.815.815,0,0,1-.6-.2l-.6,1.2-.4-.4a7.016,7.016,0,0,1-.8,2,4.709,4.709,0,0,0-1,2l-.2-.2a4.384,4.384,0,0,1-.6,1.2,1.42,1.42,0,0,0-.2,1.2h-.4q.2.2,0,.6a7.551,7.551,0,0,0-.8,2.6L-179.2,3a3.223,3.223,0,0,1-.4,1.4A4.61,4.61,0,0,0-180,6a2.062,2.062,0,0,1-.8-.4q-.4-.6-.8.2A6.2,6.2,0,0,0-182,7q-.8,1.4-.6,1a4.445,4.445,0,0,0-.6,1.4l-.6.6a3.273,3.273,0,0,1-.2.8,4.506,4.506,0,0,0-.8,1.6v3.4q0-.6-.4.6-.2.8-.4.2-.2-1.2-.4-3.2v-1q-.2,0-.4-.4a12.033,12.033,0,0,1,.2,1.8,8.414,8.414,0,0,1,.2,2v1.8a16.568,16.568,0,0,1-.2,3q-.2.8-.6,0-.2-2.4-.6-6.2,0-.8-.2-3.2a17.352,17.352,0,0,0-.2-2.4q-.2.4-.4.4a42.44,42.44,0,0,1-.4-4.8q-.8-1.4-1.2-1.4.2-1.4,0-1.4-.4-.2-1,2-.2.8-.4,1.8l-.2.6V7q-.8,1.4-1.6-1.2a24.259,24.259,0,0,0,.2,3q-.4.2-.6,2a9.27,9.27,0,0,0,.2,1.8V13q.2,1.4,1.4,6.8a7.012,7.012,0,0,1-1-2.6q0-.6-.2.4,0,1.2-.2.4h-.2l-.2.2v1q.6,3,0,3.2v6.2q-.2-2.6-.6-7.4a42.185,42.185,0,0,1-1.4-8,8.6,8.6,0,0,0-.2-1.6,3.775,3.775,0,0,1-.2-1.2,2.171,2.171,0,0,1-.4.8q-.6-4.8-.8-12.2h-.4V.8h-.2v.4q0,.6-.2,2.4a.576.576,0,0,0-.2.4V.8a26.748,26.748,0,0,1-.2-4.4q-.2-3-.4-4.6-.6-5.4-1.4-4v1.8h-.6V1.8h-.6V-.6q-.2.8-.8,4.4a24.051,24.051,0,0,0,0,4.4,44.367,44.367,0,0,0,.6,5.6h-.2l.2.2a2.083,2.083,0,0,0,.2,1.2v1.6a3.273,3.273,0,0,0,.2.8,1.775,1.775,0,0,0,.2.8,5.876,5.876,0,0,1,.2,1.4q0,1-.4,1.2a9.5,9.5,0,0,1,.4,2.6,7.76,7.76,0,0,1,.4,1,9.979,9.979,0,0,0,.2,1.2,21.491,21.491,0,0,1,0,4.2,32.738,32.738,0,0,0-1.2-7q-1.2-6-1.6-9.2-.6-4.6-1-14.6l-.2-3.4q-.2-1.6-.4-3.6,0-.6-.2-3.4a12.269,12.269,0,0,0-.2-1.6l-.2-1.8a2.226,2.226,0,0,0-.2-1l-.2-.2a4.461,4.461,0,0,1-.6-1.6v-2.8q-.4.6-.6.2a1.63,1.63,0,0,1-.4-1.2q-1-8.4-1.6-13.2v-1.8a8.426,8.426,0,0,1-.2-1.4V-47q.2-5.8,0-9.6h-.2q-.4,0,0-3h.4v-2h.6v-2.8a8.864,8.864,0,0,0-.4-2.8h.4V-69a3.479,3.479,0,0,0-.2-2.2q-.2,0-.2-.6a25.161,25.161,0,0,0-.2-4v-5.4q.2-3.2.4-3.2a4.465,4.465,0,0,1,.2-2.2,7.2,7.2,0,0,0,0-2.4q.2,0,.6.4.4.6.8.4v-.4l-.2-.2h.4V-89q0-.6-.2-2.6a11.7,11.7,0,0,0-.6-3h.6a7.017,7.017,0,0,1-.2-2,13.324,13.324,0,0,0-.4-2.2,3.273,3.273,0,0,0-.2-.8,20.323,20.323,0,0,0-.2-3.2,1.158,1.158,0,0,0-.2-.8q-.4-9.2,0-9.2v-2.6q.2-1.8.2-2.6l.8.8q.6.4.8-.8a24.776,24.776,0,0,1,2-7.6q1.8-4.4,2-2.4.2.6,1,4t1,4a5.321,5.321,0,0,0,1,2.4q1,1.6,1.4,1.6,0,1.8.2,1.8.6,0,.8-2.8v-4.2q.8-1.2,1.6,1.2a5.021,5.021,0,0,1,1.2,2,11.516,11.516,0,0,1,1.4,4.6q1.4,14.6,1.6,20.6a14.134,14.134,0,0,1,1.8,4.8q.2.8.6,3,.2,1.6.4,3,.6,4.6.8,6.6.4,7.2.4,12.6v2a11.986,11.986,0,0,0-.4,1.6q0,6.4.2,12.2,0,3.6.2,5.8V-38q.2,1.8.4,3.2l.2,1.2V-32l.2,3q.2,2.4.4,6.4l.2.6v.8a15.018,15.018,0,0,0,1.4-1.6q7.6-10.4,11.8-15.4,6.6-8.2,12.2-14.2,2.6-3.6,3.2-3.8a16.973,16.973,0,0,0,6.4-6h.2l.8-1.6a24.644,24.644,0,0,0,1.8-2.4q.4-.2.8-1.6a3.8,3.8,0,0,0,.2-2q1.2-.6,1-.8-.2-.6-2,.4l-1.6.8a12.1,12.1,0,0,0-1,.8q-1.4,0-.4-2a3.419,3.419,0,0,1,.6-1.6,5.783,5.783,0,0,1,2.4-3,31.524,31.524,0,0,1,4.8-3,24.954,24.954,0,0,0,2.8-1.4q1-.6.6-.4l.8-.4a4.913,4.913,0,0,1,1.8-.4l9.8-3.8,1.8,10.4a24.118,24.118,0,0,1,0,6.2,21.757,21.757,0,0,1-1.2,4.2,2.194,2.194,0,0,1-.8,1.4A2.469,2.469,0,0,0-128-61a17.534,17.534,0,0,0-1.6,3.2v.8l-.2.2v.2h-.2v.2l-.2.4q-.2,1.4-.4,2.2-.4,1.8-1.6,8a71.809,71.809,0,0,0-1.2,8.4l-.4,2v1l-.2,1.2a5.079,5.079,0,0,0-.6,2,6.067,6.067,0,0,1-.2,1.8,4.16,4.16,0,0,1-.2,1.6,7.58,7.58,0,0,1-.4,2.4,2.327,2.327,0,0,1-.4.6q-.2,2.4-.2,4.4v3.2a6.22,6.22,0,0,0-1,2.6,8.176,8.176,0,0,0,0,3.6q-.4,0-.4,1v2.2A116.592,116.592,0,0,1-131.6-20q4.4-8.2,8.4-14.6.2-.2,3.8-4.4,6.2-8.6,9.2-13,4.8-6.6,9.8-13.4,10.6-14.4,19.8-26,4.4-5.8,5.4-6.4a45.8,45.8,0,0,0,9.8-11.6q.4.4,2.4-1.6,1.4-2.2,7-10.4a9.935,9.935,0,0,1-1.8,3.2q-.2.6.6-.4,1-.8.6-.2A20.505,20.505,0,0,1-59-115l-2.6,3.6.2.2q3.2-4.4,6-8.4a28.3,28.3,0,0,1,2.4-3q1-.6.6.4-2,3.4-9.4,13.8.8-1,1.2-.6-3.8,5.4-10,13.2l.6.2,1.4-2,.4.6a20.332,20.332,0,0,1-3.2,4.6,54.078,54.078,0,0,1-3.8,5.2q-4,6-2.4,5.2l1.6-2q0,.2.4.4,1.6-2,5.2-6.6,3.4-4.4,5.2-6.4a.815.815,0,0,1,.6.2q-1.2,1.6-2,2.6,1.2-1.2,4-4.2Q-61-99.4-50-114.4ZM-149-51a9.7,9.7,0,0,0,1.2-1.4,3.057,3.057,0,0,0,0-1.6h.6q-.2-.2,0-1,.2-1-.2-1.2l.2-.4a8.05,8.05,0,0,0-.2-2.2,6.575,6.575,0,0,1,.2-1.6q-2.4,3-5.4,6.6l.4.4.8-1a1.535,1.535,0,0,1,.6.2v.2q-.4.6-1.8,2.8-1.6,1.8-2.4,2.8-2.4,3.6-1,3.2l1-1q0,.2.4.4,2.4-2.6,6.4-7.2.4.2.4.4Zm10.2,41.8a12.7,12.7,0,0,0,.8,3.6V-6l.2-.4a2.915,2.915,0,0,1-.4-1.2,3.273,3.273,0,0,0-.2-.8v-.8Zm81.2-104.2a27.284,27.284,0,0,1-2.8,3.4Q-59-111.8-57.6-113.4ZM-192-9.2a2.785,2.785,0,0,0,.2-1.2,4.988,4.988,0,0,0-.4-2.2l.2,1.4Zm4.4,22.2a12.751,12.751,0,0,1-.4-1.8,12.271,12.271,0,0,1-.2-1.6Q-188,11-187.6,13Zm3,5.6a13.041,13.041,0,0,1-.2-2A12.571,12.571,0,0,1-184.6,18.6ZM-60.4-109.8a1.158,1.158,0,0,1-.2.8Zm-136,121a5.876,5.876,0,0,1,.2,1.4Zm155.8-138a9.783,9.783,0,0,1-.6,1Zm14.4,99h-.2l-.4.4H-27q-.6.2-.2-.2l-.4.4q.2-.2-.8.4V-27l.2-.2a9.783,9.783,0,0,0-1,.6h-.2v.2h-.2a5.958,5.958,0,0,1-.8.6A.576.576,0,0,1-30-26l-.4.2-.6.4h-.2v.2a.815.815,0,0,1-.6.2l-.6.6.4-.2-.2.2-.4.4h-.2l-.6.4h-.2l-.2.2q-.4.6-.6.6l.2-.4-.2.2-1,.4a2.327,2.327,0,0,1-.6.4l-.2.2a1.775,1.775,0,0,1-.8.2.576.576,0,0,1-.2.4h.4a.576.576,0,0,0-.4.2q0,.2-.4.6l-.6-.2-.2.2h-.2q-1.2,1-1.4,1.2h.2l.4-.2-1.8,1.2a6.807,6.807,0,0,1-1.8.8v.2q-.4.2-8.2,4.6a39.726,39.726,0,0,0-5,4,.815.815,0,0,1,.2-.6,5.092,5.092,0,0,0-1.2,1.2,1.79,1.79,0,0,1-1,1.2q-.2.2.4,0,.4-.4,0,.2a1.535,1.535,0,0,0-.6.2H-59a3.507,3.507,0,0,0-1.4,1.2.25.25,0,0,0,.4,0q.2,0,0,.4a11.013,11.013,0,0,0-3,.8,18.568,18.568,0,0,1-2.6,1.4l.2.4a13.076,13.076,0,0,1-1.4.8,2.916,2.916,0,0,0-1.2.4l-.6.6a7.759,7.759,0,0,1-1,.4L-70,0h-.6A1.433,1.433,0,0,1-72-.8a2.327,2.327,0,0,0-.4-.6,27.547,27.547,0,0,1-5,1,2.171,2.171,0,0,1-.8.4h-2.2a11.2,11.2,0,0,1-4.2-.8,7.616,7.616,0,0,1-2-.8l-.2-.2-.4-.2-.2-.2a.576.576,0,0,1-.4-.2l-1-1a7.613,7.613,0,0,1-1.4-2,10.288,10.288,0,0,1-.8-2l-.4-2q-.2-1-.4-1.8v-.2a28.3,28.3,0,0,1-.4-6.8v-2.6h.2a6.581,6.581,0,0,1,.4-2,.576.576,0,0,0-.2.4v-1l.2.2q.2-.6.4-1.4l-.2.2a2.915,2.915,0,0,1,.4-1.2,1.944,1.944,0,0,1,.4-1l-.2-.2q-.4-.4.2-1,.6-.8.2-1.2a10,10,0,0,0-1,1.4,16.044,16.044,0,0,0,.2-1.6l.4-.4.2-.4a24.542,24.542,0,0,1,.8-2.4A5.255,5.255,0,0,1-88.6-35q.2-.6,0-.6t-.2-.4l1-1.8a.25.25,0,0,0,0-.4q-.2-.4-.4-.2a1.775,1.775,0,0,1-.2.8.815.815,0,0,0-.2.6.25.25,0,0,0-.4,0,.354.354,0,0,0-.4.4q.4,0-.4,1.2A1.922,1.922,0,0,0-90-34l-.4-.2v-.2l-.4.2q.2-.8.6-2h.2a4.829,4.829,0,0,1,.6-1.6,5.855,5.855,0,0,0,1-1.6v.8a4.152,4.152,0,0,0,1.2-2q-.2.6-.4.4v-.4A2.469,2.469,0,0,1-87-42a9.575,9.575,0,0,0,1-2.2l.2.2a1.775,1.775,0,0,0,.2-.8l.2-.6a4.292,4.292,0,0,1,1.4-.8V-47l-.2.2a.815.815,0,0,1,.2-.6,2.327,2.327,0,0,0,.4-.6q0-.6.8.4.4-.8,0-.8h-.6a11.693,11.693,0,0,1,1.2-1,1.308,1.308,0,0,0,.6-.6,1.535,1.535,0,0,1-.6.2q.6-.4.6-.8l-.8.6a15.381,15.381,0,0,0,2.6-3.4H-80l.6-.8.2.6a.641.641,0,0,1,.4-.6q.4-.4.2-.6l-.2.2.4-.6v.8a4.962,4.962,0,0,0,.6-1.4l.6-1.8q.4,0-.2,1.2t-.2,1.6a2.327,2.327,0,0,1,.4-.6q0-.2.4-.4V-56q-.2-.2-.6.4a8.769,8.769,0,0,1,1-1.8,3.068,3.068,0,0,0,.8-1.4l-.6.4q0-.2.4-.4l.2-.2h.2l.2-.2q.4-.2.4-.4v.4l.2.2.4-.4a1.152,1.152,0,0,1,.4-.8,5.576,5.576,0,0,0,.8-1.4q0-.2-.4.4l-.4.6v-.6q.6-.6.8-.6a9.043,9.043,0,0,0,1.2-.8l-.2-.2q.4,0,1-.8.4-.6.6,0l-.6.2.4.2.6-.8,1-1q.4,0,.4.2l.6-.8q.2,0-.2.8a3.508,3.508,0,0,0-.4,1v.2a.576.576,0,0,1-.4.2,4.629,4.629,0,0,0-1,.6l-.2.4-.4-.2a2.226,2.226,0,0,0-.2,1q.4-.2-2.2,2.4v-.2a2.327,2.327,0,0,0-.4.6l.4-.8-.2.2q-.6.4-.6.2,0,.2-.4.6a1.535,1.535,0,0,1-.2.6h.2l.8-.8a.576.576,0,0,1-.2.4,5.2,5.2,0,0,0-.8,1.4l.2.2a5.368,5.368,0,0,1,1.8-1.8l.2.2q.2,0,0,.4,0,.4.2.4.6-.8.4-1.2h.4q.6-.6.4-.8-.8.8-1,.8l.6-1a11.693,11.693,0,0,1,1-1.2q-.8.6-.8.4.2,0,.6-.4t.6-.4a4.653,4.653,0,0,1,.8-1.2l.4-.4-.2.4-.8.8a3.134,3.134,0,0,0,.8-.6l.2.2q.6,0,.2.6a.815.815,0,0,0-.6.2q-.4.6-.6.6l.2-.2.2-.4a3.134,3.134,0,0,0-.8.6,2.264,2.264,0,0,1-.8.8v.2a1.875,1.875,0,0,0,1.2-1v.8a1.288,1.288,0,0,0,.6-.8q-.2.6,0,.4a4.813,4.813,0,0,1,1.2-1.2,1.612,1.612,0,0,0,.8-1.2l.4.4.6-.6a.576.576,0,0,0,.4-.2l.2-.2.8-.6a.576.576,0,0,0,.2-.4A29.309,29.309,0,0,1-61-67.2l.2-.2-.8.4a.641.641,0,0,1,.4-.6,1.357,1.357,0,0,0,1-.4q-.4,0-.4.2,0-.2.6-.8.8-.4.8-.8h.4l.2.2.2-.2v-.2l.2-.2a.576.576,0,0,1,.4-.2h.4a9.783,9.783,0,0,1,1-.6,3.134,3.134,0,0,0,.8-.6h-.6q0-.2.8-.2.4-.4.6-.4H-56l-.8.8a5.048,5.048,0,0,0-1.2.6l.2.4q0-.2-1.2.2-.4.2-1.4.8l-1,1A11.715,11.715,0,0,1-60-69.6l.8-.8a2.326,2.326,0,0,0-.6.4l.4-.8.6.2q.6-.4-.2-.4a1.535,1.535,0,0,0,.6-.2h.2l.2.2h-.4v.2l.4-.2a9.043,9.043,0,0,1,1.2-.8l-.6.2a9.783,9.783,0,0,1,1-.6l-.2-.2h.2v.2a3.019,3.019,0,0,1,1.2-1,2.749,2.749,0,0,0,1.4-.6h.6q.4,0,.4.2a.806.806,0,0,1,.4-.8l1.4-.4q.8-.2,1,.2,0,.2-.6.2-.4,0-.4.2h.4q.2.2,1-.2l.6-.2-.2-.4a.641.641,0,0,0,.6-.4q0-.4-.6-.4.8-.4.8.4t.4.4h.2l-.2-.4q.2.2.6,0a1.158,1.158,0,0,0,.8-.2v-.2A56.5,56.5,0,0,1-41-77.4a16.393,16.393,0,0,1,6-.4q.2.6,1.6,1,1.2.4,1,1.2h.2a.576.576,0,0,1,.4-.2q.8.8.4.8a23.486,23.486,0,0,1,2.2,1.2l.8.4.2.2h.2l.6.4.2.2.6.4v.2h.2l1.6,1.6a3.134,3.134,0,0,0,.6.8A17.148,17.148,0,0,1-22-67.4a6.959,6.959,0,0,1,1.4,3,10.876,10.876,0,0,1,.4,3,15.84,15.84,0,0,1-.2,2.6v1.2a10.15,10.15,0,0,1-.4,2.8,8.8,8.8,0,0,1-1.4,3,6.883,6.883,0,0,1-2.4,2.4l.2-.2a13.076,13.076,0,0,1-1.4.8.815.815,0,0,1-.6.2A44.344,44.344,0,0,1-29-44.4,295.6,295.6,0,0,1-47.6-20.8h.8l1.6-1.2-1,1a5.092,5.092,0,0,0-1.2,1.2,2.785,2.785,0,0,1,1.2.2l.2-.2a9.043,9.043,0,0,0,1.2-.8.576.576,0,0,1-.2.4v.4q.8-.4.8-1l.4.2a.641.641,0,0,0,.4-.6l-.2-.2h.8a1.272,1.272,0,0,0,1-.8l-.2,1,.4-.4.2.2a4.292,4.292,0,0,1,1.4-.8q.8-.4.8-1l.4.8q.6-.4.6-.8a1.152,1.152,0,0,1,.4-.8.25.25,0,0,0,0,.4l-.2.2q.2.2,1.8-.8.2-.2,3.4-2a21.024,21.024,0,0,0,3.6-2.4h.2a27.423,27.423,0,0,0,3.2-2,21.017,21.017,0,0,1,3.2-2q.2.2,1-.2a3.48,3.48,0,0,1,1.4-.6l1-.8,2.4-1,2-.8,1.8-.6a13.055,13.055,0,0,1-1.4,1.2h.2a2.327,2.327,0,0,0,.6-.4h.2l-.2.2h.2l-.4.2H-14l-.4.2h.2a2.327,2.327,0,0,1-.6.4l-.4.2v.2a.815.815,0,0,1-.6.2l.6-.4h-.4v.2a.576.576,0,0,0-.4.2l-.2.2h-.2l-.8.4-.2.2.8-.4h.2l-.4.2-.6.2-.2.2-.4.2-.4.4h-.2l-.2.2-.2.2v-.2l-.2.2q-.8.6-.6.4l-.2.2h-.2l-.8.4.2-.2q-.4,0-.4.2v-.2l-.2.2h-.2l-.6.6a2.327,2.327,0,0,0,.6-.4,1.535,1.535,0,0,1,.6-.2.576.576,0,0,1-.4.2,7.8,7.8,0,0,1-1.4.8h.2a1.535,1.535,0,0,1,.6-.2q-.4.4-.6.4h-.2a4.653,4.653,0,0,1-1.2.8h-.2v-.2h.2l.2-.2H-24l-.2.2h-.2v.2a2.062,2.062,0,0,0-.8.4h.2l.4-.2q.4-.2-.4.4h-.2l-.6.4-.4.2Zm-35,3.2q0,.6-.2.6a.641.641,0,0,1,.4.6v.4l-.6-1.2h.2a1.535,1.535,0,0,0-.2-.6V-25h-.2v-.2l.4.2h.4v-.4a.25.25,0,0,1,0-.4q-.2,0-.2-.4v-.6q-.2,0-.2-.4V-28l-.2-.2v-1.6l.2-.2v-.2h-.2q-.4,1,.2-1.4a1.535,1.535,0,0,0-.2-.6q.2-.2.4.2v-.2h-.2l.2-.2v-1a3.273,3.273,0,0,1,.2-.8,3.273,3.273,0,0,0,.2-.8l.2-.2v-.6a.576.576,0,0,1,.2-.4,3.273,3.273,0,0,1,.2-.8.85.85,0,0,0,0-.8.25.25,0,0,0,0,.4l-.2.2q-.6,0-.2.2a4.241,4.241,0,0,1-.6,2.4,2.226,2.226,0,0,1,.2-1,8.307,8.307,0,0,0-.8,1.8v.4l-.2.6V-33l-.2-.2h.2v-.2a3.29,3.29,0,0,1,.2-1,3.29,3.29,0,0,0,.2-1v-.2q-.6-.4.4-.8v-.4l.2-.6.2-.2v-.2l.2-.2v-.2l.2-.2-.2-.2a1.944,1.944,0,0,1,.4-1l.2-.2q-.2-.8.4-.8a.576.576,0,0,1-.2-.4v-.2q.4-.4.4-.6v-.4q.2.2.4-.4v-1l.2-.4v-.4q-.2,0-.2.6l-.2.6q-.6,0-.2.6-.6.2-.4,1l-.6.4.4-1.2.2-.4q0-.4.2-.4,0-.2.4-.6a.25.25,0,0,1,0-.4v-.4a2.171,2.171,0,0,0,.4-.8.815.815,0,0,1,.2-.6l.4-.6V-47a1.729,1.729,0,0,0,.6-1.2l.2-.2.2-.4q.2-1.2.8-1.4a1.944,1.944,0,0,1,.4-1,1.944,1.944,0,0,0,.4-1,4.558,4.558,0,0,0,1-1.8,5.5,5.5,0,0,1,1.4-1.6,3.538,3.538,0,0,1,1-1.6q-.4.8.6-.4v.4a3.64,3.64,0,0,0-1.2,1.6v.2q0-.2.6-.4,0,.4.6-1l.2.2v-.2a.641.641,0,0,1,.4-.6q.4-.4.4-.6h.2q-.6-.4.2-.2l-.4.4q.2.4.6-.2h.2q-.2,0-.2.4h.2V-58h.2l.2-.2a.25.25,0,0,0-.4,0l-.4.2v-.4l.2-.2h.6q.2.2.6-.4l-.4-.2-.6.6.8-1.2q.2,0,.6-.4l.4-.4v.6q-.8,0-.6.6h.2l-.4.4v.2q.4-.4.4-.6a4.813,4.813,0,0,0,1.2-1.2,4.29,4.29,0,0,1,1-.8l.6-.6q-.8.6-1.4,1a5.855,5.855,0,0,1,1-1.6q1.4-1,1.2-.8a.25.25,0,0,1,.4,0l.4-.4v.4l.4-.2a.576.576,0,0,0-.4-.2l.4-.2h-.2a1.535,1.535,0,0,1-.6.2q.2,0-.8.2a2.327,2.327,0,0,1-.4.6l-.2-.2a.25.25,0,0,0,0,.4h-.4q-.8.2-.6.4L-48.2-61v.2q-1.4,1.6-1.4,1.4-1.4.8-.8.6-1.2,1.4-1.2,1.2.4-.6,1-1.6a.25.25,0,0,1,.4,0,1.175,1.175,0,0,1,.6-1,3.432,3.432,0,0,0,1-1l1.6-1.6a64.5,64.5,0,0,0-9.4,5.6l-4,3-.4.2-2,2q0-.2-.4.2l-.6.8-.2.2q-.4.2-.4.4,0-.2-.6.6-.2,0-.6.6a3.134,3.134,0,0,0-.6.8A13.055,13.055,0,0,0-67.4-47l-1,1.2a44.271,44.271,0,0,0-4.8,7.4,62.033,62.033,0,0,0-5.2,11.2,59.737,59.737,0,0,0-2.4,6.6v.4l-.2.4a6.013,6.013,0,0,1-.2,1l-.4,2q-.4,2-.6,3.4a27.091,27.091,0,0,0-.2,2.8,2.171,2.171,0,0,0,.4.8v.2h.4a1.158,1.158,0,0,0,.8.2l1.4.2,1.6-.2a33.274,33.274,0,0,0,6.4-2.2l3.2-1.6q.6-.4,1.4-1a13.076,13.076,0,0,0,1.4-.8l.6-.6a1.308,1.308,0,0,1,.6-.6l1.4-1.2,1.2-1.2a4.813,4.813,0,0,0,1.2-1.2,3.134,3.134,0,0,1,.8-.6q-.8-.8-.6-1a3.134,3.134,0,0,0,.6.8.576.576,0,0,1,.4-.2q-.2-.4-.4-.4a7.544,7.544,0,0,0-.8-1.6,9.008,9.008,0,0,1-.4-1.8h-.4Zm3.8,2a17.017,17.017,0,0,0,1.6-2q6.2-6.6,10.8-12.6a10.974,10.974,0,0,1,.6-1.4q3.2-1.6,6.2-7.6,4.2-5.4,7.4-10.4l1.6-2.4.6-1.2.4-.6.2-.2v-.2l-.2-.2-.6.6v.2a8.773,8.773,0,0,0-2-2.6,1.775,1.775,0,0,1-.8.2q-10,1.6-16.6,10.6a45.594,45.594,0,0,0-5.6,9.6q-.6,1.4-2.2,5.2L-57-35a9.627,9.627,0,0,0-1,2.4q-1.6,5.6.4,9.6Q-57.8-23.2-57.4-22.6Zm35.2-31.8-.6,1.2v-.2a1.535,1.535,0,0,0,.2-.6.815.815,0,0,0,.2-.6,3.273,3.273,0,0,1,.2-.8q-1.6,2.8-3.6,5.8A9.3,9.3,0,0,0-24-51a9.784,9.784,0,0,1,.6-1v.4A6.964,6.964,0,0,1-26-49.4v.4l.2-.2a2.327,2.327,0,0,0,.6-.4,10.316,10.316,0,0,0,2-2.2,1.775,1.775,0,0,1,.2-.8,2.327,2.327,0,0,1,.4-.6,2.461,2.461,0,0,1,.4-1Zm-27-2.4a.576.576,0,0,0,.2-.4.576.576,0,0,1-.4.2l.6-.6v.2l.2-.2h-.2q1.6-1.6,1-1.4,0-.2.4-.4a.576.576,0,0,0,.2-.4q.6-.6.4-.2.2-.8,1.4-1.2v-.2h-.2l-.4.4v-.2q-.8.4-.6.6l-.8,1a.576.576,0,0,0-.4.2v.2l-.2.2q-1.2,1-1.2,1.4-1.2.6-1,.6l-.4.6.2.2a6.554,6.554,0,0,0,1-.8v.2Zm20.8,27.2a5.048,5.048,0,0,1-1.2.6l.4.4q-.2-.2-1.4,0a9.042,9.042,0,0,0-1.2.8,10.974,10.974,0,0,1-1.4.6,14.166,14.166,0,0,1,3-2,13.172,13.172,0,0,0,2-1.2l-.8.8,1.6-.6ZM-53.4-54h.2v-.2q0,.2-.4,0l.4-.4a.25.25,0,0,0,.4,0v-.2q0-.2-.4-.4a2.171,2.171,0,0,0-.4.8l-.2.4v.2a.354.354,0,0,0-.4.4.576.576,0,0,1-.4.2v.6q.4.2-.6.4l.2.2-.4.4h-.2q.2.4-.4.8l.2.2a.815.815,0,0,0-.2.6h.4a.806.806,0,0,1,.4-.8l-.2-.6.2.2a3.148,3.148,0,0,1,.8-1.2,1.944,1.944,0,0,0,.4-1Zm-6.8,15.8q.2,0,0,.4.2,0,.4-.6a2.327,2.327,0,0,1,.4-.6h-.2a2.327,2.327,0,0,0,.4-.6,1.535,1.535,0,0,0,.2-.6l.2-.4v-.2q.2,0,.2-.4a.576.576,0,0,1,.2-.4v-.2q-.6.2-.2.4-.6.2-.6,1.2l-.4.4.4-1.4a2.461,2.461,0,0,0-.4,1,7.76,7.76,0,0,1-.4,1h.2A3.508,3.508,0,0,1-60.2-38.2Zm-31,5.8a5.048,5.048,0,0,0,.6-1.2v.2l-.2,1.2-.2,1-.6,1.8.2-1.2q.2-.6-.4,0A4.6,4.6,0,0,1-91.2-32.4Zm29,2.4a2.226,2.226,0,0,1,.2,1h-.2v.6a2.913,2.913,0,0,1,.2,1.8q-.4-.8-.2-1a.576.576,0,0,1-.2-.4l.2-.4a1.952,1.952,0,0,1-.4-1.4h.2l.2-.2-.2-.2a.576.576,0,0,1,.2-.4Zm-4-34.4q.2.6-1.4,2-.2,0-.2-.4,0-.2.8-.4v-.4l.2-.2A1.308,1.308,0,0,1-66.2-64.4Zm5,26a4.241,4.241,0,0,1-.6,2.4,14.043,14.043,0,0,1,.4-2.4,1.535,1.535,0,0,0,.2-.6l.4.2-.2.4ZM-67-65.8q0-.2.6-.8.4.4-.2.8l-1.2,1.2A5.2,5.2,0,0,1-67-66Zm10.6,16.6a.576.576,0,0,0-.4.2v.2a1.535,1.535,0,0,0-.2.6q-.4.8-.4.6a1.535,1.535,0,0,0-.2.6q1-.6.8-1.4a.576.576,0,0,0,.4-.2Zm50,8.8q1.4,0,1,.4l-1.2.4ZM-79-50.6a1.535,1.535,0,0,0-.2-.6q-.6.2-.6,1.4Zm16.8,19v.2h.2v.6h-.4v-.6l.4-.8v.4l.2-.4q.2.2,0,.8v.6q.2-.2-.2-.8Zm-31,6.4q.6.2.2.4a9.785,9.785,0,0,0-.6,1v-.6l-.2.2q0-.8.2-.8a.4.4,0,0,0,.2.6ZM-65-65l.2-.2-.2.8q-.2,0-.4.4a.576.576,0,0,0-.4.2,1.952,1.952,0,0,0,.4-1.4Zm34,39.8a2.327,2.327,0,0,1,.6-.4l.4-.2q.4-.6.8-.4a.576.576,0,0,0,.2-.4h.2l.2-.2h.2a2.327,2.327,0,0,1-.6.4v.2l-1.2.6a4.629,4.629,0,0,1-1,.6q0-.2.4-.4ZM-65.2-66.6q.4,0,0,.2.2.2-1,.6,0-.2.6-.8ZM-27-32.4l.4.4-1.6.6ZM-72.6-58.6a2.51,2.51,0,0,1,.6-1q0-.2.4-.6v.2a1.775,1.775,0,0,1-.2.8l-.4.2ZM-52-55.2a.576.576,0,0,1,.4-.2l.6-1.2-.4.4-.2-.2q0,.8-.4,1ZM-63.8-68a1.357,1.357,0,0,1,1-.4,6.555,6.555,0,0,1-1,.8ZM-60-25.4v.4l.2-.4v-.4L-60-26h.2v-.2H-60v-.2h-.2v.8h.2l.2.2Zm-.2-45-.2-.2q0-.2.4-.4l.6.2-.8.4a2.327,2.327,0,0,1-.6.4Zm4.4,21.6a2.428,2.428,0,0,1,.6-1.2h-.2l-.4.4q.2.2-.4.8h.2v.2Zm48,10q0-.2-.4,0l-.4.2h-.2l.8-.8ZM-43.2-63.4a.53.53,0,0,1-.6.6l-.6.6q.4,0,1.4-1Zm-9,9a.576.576,0,0,0-.2.4v.4q.2-.6.4-.4.6-1,0-.4Zm-8.6,14.6-.4.8Q-61.6-40-60.8-39.8Zm2.6-6q0-.2.4-.2a.641.641,0,0,0,.4-.6.576.576,0,0,0-.4.2H-58ZM-32-24.6v-.2l.2-.2v.2a.815.815,0,0,1,.6-.2,2.926,2.926,0,0,1-1,.6Zm-27.4,1,.2.2q.2-.6,0-.4l-.2-.2-.2-.2.2.2-.2-.4v-.2h-.2v.2l.2.2a.576.576,0,0,0,.2.4Zm8-31.6.4-.2q0-.4.4-.2l-.2-.6-.2.4-.2.2v.2Zm-27,2.2a1.152,1.152,0,0,0-.4.8q.2,0,.6-.8ZM-60-20.2q-.6.4-.6-.6Zm-1.4-49.2a2.327,2.327,0,0,0-.4.6q0,.4-.4.2.4-.4.4-.2L-62-69l-.2.2a.576.576,0,0,1,.2-.4v.2Zm0-.4q0,.2-.4.4l-.2.2v-.6Zm19.4,47a6.555,6.555,0,0,1,1-.8,2.264,2.264,0,0,1-.8.8Zm21.8-9q.6-.4.6-.2l.4-.2h-.2l.2-.2-1,.4ZM-55-73.8l-1,.4.6-.6ZM-32.4-24a3.508,3.508,0,0,1,1-.4Q-33-23.2-32.4-24Zm5.6-3.8a2.327,2.327,0,0,1,.6-.4l-.4.2.2-.2a1.535,1.535,0,0,1-.6.2l-.4.4a.576.576,0,0,1,.4-.2l-.2.2Zm8.6-5.2.4-.4.4-.2-.6.2q0,.2-.4.2l-.2.4Zm7.4-4.6q0-.2.4-.4v.6h-.2ZM-51.4-55.2l-.2.2q.4.4.6,0Zm-9,30.8a1.535,1.535,0,0,1-.2-.6v-.2l-.2-.2v-.2q-.2,0,.2.8v.4Zm4-24.8a.815.815,0,0,0,.2-.6h-.2l-.2.2Q-56.4-49.6-56.4-49.2Zm.4-22.6h-.6a5.959,5.959,0,0,0-.8.6l.8-.4Zm30.4,12-.4-.4v-.2h-.6ZM-73.2-57q-.2.4,0,.4l-.6.2q.2.2.6-.2h.2A.576.576,0,0,0-73.2-57Zm14-11.8a12.1,12.1,0,0,0-1,.8v.2ZM-53.4-52q-1,.6-.6.4v.4q.2-.4.4-.4A.576.576,0,0,1-53.4-52Zm13.8-13.2a2.926,2.926,0,0,0-1,.6A9.783,9.783,0,0,0-39.6-65.2Zm27,29-.4.2-.4.4v-.2l.2-.2.8-.4Zm-40-17.4q-.2,0-.2.4a.576.576,0,0,1,.4-.2v.2h.2l-.2-.2v-.2Zm-6,31.2-.2-.2v.2l-.2-.2.4.8Zm26.2-2h-.2a.576.576,0,0,0-.4.2h-.2a.576.576,0,0,1-.2.4,2.327,2.327,0,0,1,.6-.4Zm-4,2.6a2.327,2.327,0,0,0,.6-.4q.2,0-.2.4Q-36.4-21.6-36.4-21.8ZM-41.6-64a1.638,1.638,0,0,0-1,.6Zm1.8,39.6a6.555,6.555,0,0,1-1,.8A6.554,6.554,0,0,1-39.8-24.4ZM-27-31.2a9.784,9.784,0,0,0-1,.6Q-27-31.4-27-31.2Zm-35.6-2.2q.2,0,0,.6l-.2-.2Zm9.8-22a.576.576,0,0,0,.2.4l.2-.2-.2-.2Zm4.2-.2a2.327,2.327,0,0,0-.4.6h.2l.2-.4ZM-61-26.8v1l.2-.8Zm1.4,5a.576.576,0,0,0,.2.4q.2,0,0-.4ZM-93-25.6q-.4.2,0-1Zm34.8-16.8A1.535,1.535,0,0,0-58-43h-.2Zm30-22.8.2.4v-.6h-.2ZM-59-35.6l.2-.6a2.327,2.327,0,0,0-.4.6Zm33.2,7.2-.2.2a2.171,2.171,0,0,1,.8-.4h-.4l-.6.4ZM-60-32.6a.815.815,0,0,0,.2-.6l-.2.2Zm47.8-4,.4-.2v.2H-12l-.4.2Zm-53-31q-.8,1-1.2,1Q-66.2-66.6-65.2-67.6Zm30.2,45q.2.4-.4.4ZM-9.4-37.8l.2-.2v.2h-.2l-.4.2.4-.4ZM-47.6-60.6A2.327,2.327,0,0,1-47-61Q-47.6-60.4-47.6-60.6ZM-25.2-29a.815.815,0,0,0,.6-.2h-.2q-.6.2-.6.4ZM-47.4-57h.2l.2-.2v-.2ZM-58.8-41.8v-.4a.576.576,0,0,1-.2.4v.2Zm.2-.6.2-.6a.576.576,0,0,0-.2.4l-.2.4ZM-59-22.8l.2-.2h-.4v.2Zm32.6-8-.4.2,1-.8ZM-66-63v-.6l.2.2Zm7,41.6h-.2v.2h.4Zm39.8-11.2v.2a2.327,2.327,0,0,1,.6-.4l-.4.2.2-.2ZM-22-53.2a2.327,2.327,0,0,1-.4.6h.2A1.535,1.535,0,0,1-22-53.2Zm-39.8,25q.4.2,0,.2Q-62.4-28.2-61.8-28.2Zm-3.4-38.6-.2.2q-.2,0,.2-.4ZM-17-33.4a13.076,13.076,0,0,1-1.4.8Zm-6.6,3.8-.2.2q.2,0,.6-.4ZM-57.2-45.8q-.2-.2-.4.2h.2Zm-3.6,23.2q-.2.2-.2-.4Zm37.2-7.2A1.535,1.535,0,0,0-23-30h-.4ZM-62-26.4v.6Q-62.2-26.4-62-26.4ZM-16.4-34h.2l.2-.2q0,.2-.4.4Zm5.2-2.8q-.6.4-.2,0Q-10.6-37.2-11.2-36.8Zm-81,9.2q.2-.2,0,.6Zm57.4,5.2.4-.4v.2Zm-19-30.2a2.327,2.327,0,0,1,.4-.6A.641.641,0,0,0-53.8-52.6Zm30.4.6.2-.6v.4ZM-59.6-22.6v.2h.2v-.2ZM-14-35.4h.2l-.2.2h-.2ZM-47.6-58.6l.2-.2V-59l-.2.2Zm4.8-5.6v.2l.4-.2Zm11.4-6-.2-.2h-.2l.2.2ZM-60.8-32.8v-.4l-.2.4ZM-31.4-75l-.2-.2-.2.2ZM-59.2-42.2q0-.6-.2,0Zm-4-23.8-1,.6.2-.2Zm3,34.4q.2-.4,0-.6Zm34,3-.4.2v.2Zm-33.6,6.2v-.2l-.2-.2v.2ZM-49.6-75q.4,0,0,.2l-.2-.2ZM-13-36h.2a.815.815,0,0,1,.6-.2l-.6.2Zm-47.4,1.6v.2h.2v-.2ZM-11-37l.4-.4v.2Zm-51.8,4.8.2-.6Q-62.4-32.6-62.8-32.2Zm53-5.4a.576.576,0,0,0-.4.2h-.2l.4-.2ZM-48-56.2l.2-.2v-.2l-.2.2ZM-60.4-23.6V-24h-.2l.2.2h-.2ZM-8.8-38.2h.2L-9-38l-.2.2L-9-38h-.2Zm-38-20.6V-59l-.2-.2v.2Zm-4,1.6v.2h.2v-.2Zm-2.4,4.8a.576.576,0,0,1,.2-.4.576.576,0,0,0-.4.2Zm-5.2,10v.4l.2-.2Zm1-2q.2-.4,0-.6Zm1-2v-.2l-.2.2v.2Zm.2-1.2.2.2v-.4Zm1.6-3q-.6-.2,0,.2Zm-5,13.2q-.6-.2,0,.2Zm4.4-14.8q-.6-.2,0,.2Zm47,13.6q-.6.4-.4.2ZM-59-21.6q.4-.2-.2-.2Zm1.6-26.8q-.4.2,0-.2Zm-4.2,14.6q-.2.4-.2,0Zm-.8,3.2q-.4-.2,0-.2Zm34.6,3.8a2.171,2.171,0,0,1-.8.4l.4-.2A.576.576,0,0,1-27.8-26.8ZM-60.6-40.6q.2-.4.4-.4Zm.8,7.2q.4-.2,0-.4Zm0-5.8q.2-.4.4-.4ZM-93.2-23.6a.25.25,0,0,1-.4,0Zm1-3.4q.2,0,0,.4Zm35.8-16h.2v-.2Zm-1.2,3-.2.2h.2Zm-2.8,10.8v-.2l-.2.2ZM-9-38.4v.2h-.2ZM-41.2-64.2l-.4.2h.2Zm17,35h-.2l.2-.2ZM-58.6-40.4h-.2l.2.2ZM-61-27a.25.25,0,0,0,0-.4Zm3-11.4.2-.2H-58Zm40.8,4.8.2-.2h-.2ZM-61.4-36v.2l.2-.4Zm27.2,12.8h.2l-.2-.2ZM-52.2-53l.2.2V-53Zm-9.6,27.4v.2l-.2-.2ZM-45-61.8l-.2.2.4-.2ZM-60.6-34.2a.25.25,0,0,0,0-.4Zm46.2-1-.4.2h.2ZM-51.6-51.8v.2l.2-.2Zm-2.8,1.2h-.2l.2.2Zm26.6,23.8a2.327,2.327,0,0,0,.6-.4l-.2.2Zm2.2-1.8.4-.2h-.2ZM-11-37l-.4.2.2-.2Zm2-1.4.2-.2v.2ZM-44.2-63.2a.815.815,0,0,0-.2.6Zm2-1.4h-.2v.2ZM-52.8-52.2v-.2l-.2.2Zm9.6-11.6-.2-.2v.2ZM-55.8-48.2H-56v.2Zm3.6-2.2-.2.2h.2ZM-60-23.6h-.2v.2ZM-56.6-73l.2-.2v.2Zm30.4,45,.2-.2h-.2ZM-49.8-54.4l.2.2v-.2Zm5.4-7.6h.2l-.2-.2Zm-14,17v-.2h-.2Zm10-10.8h.2V-56Zm-5.4,1.2v.2l.2-.2Zm-6.4,31.8v.2h.2Zm4-50.4h-.2l.4-.2Zm41,38.6a.576.576,0,0,1,.4-.2q-.4.2-.4.4ZM-36-22.2v.2h-.2Zm15.8-9.6h-.2v.2Zm-39-9.4.2.2a.576.576,0,0,0-.2-.4Zm31.2,14h.2v-.2Zm17.4-10,.2-.2Q-10-37.6-10.6-37.2ZM-59-43.6q.4,0,0-.2Zm-1.4,5q.6.2.2,0Zm39.8,6.8q.2-.4-.2.2ZM-62.2-68.6a1.535,1.535,0,0,1-.6.2Zm49.6,32.4.2-.2h.2ZM-40.8-22.4a2.327,2.327,0,0,0-.6.4A2.327,2.327,0,0,1-40.8-22.4ZM49.6-72l-.2-.6q0-.6-1,0v-.2H48a.815.815,0,0,0,.2.6l.2.4a.811.811,0,0,1-1-.4,1.357,1.357,0,0,1-.4-1,3.134,3.134,0,0,1-.6.8,1.308,1.308,0,0,0-.6.6,2.264,2.264,0,0,1-.8.8q0,.2.4.2.2,0,0,.4-.8.4-1.2-.2.2-.2-.2-.4l-.2-.2a.576.576,0,0,1-.2.4l-.2-1-.6.2-.2.4-.2-.2a.576.576,0,0,0-.4.2l-.6-.2-.2.4-.2-.2h.2v-.2l-.4-.2q.2.2-.2.6v.2a.641.641,0,0,1-.6.4v-.4h-.8a.576.576,0,0,0-.2.4h.2l.2.2-.6.2v.2a.25.25,0,0,1,0,.4.815.815,0,0,0-.2-.6.815.815,0,0,1-.6-.2h.2a.815.815,0,0,0-.2-.6l-.4,1a1.2,1.2,0,0,1-.8.8q0,.2-.6.2l-.2.2h.2l-.2.4v-.4l-.6.2.2-.2v-.2l-.8.2.2-.2a2.926,2.926,0,0,0-1,.6l.2.2q.2,0-1.2.6v.4q.4.2.6,0,.2-.4.4-.4,0,.4-.2.4a2.171,2.171,0,0,0-.8.4q0-.4-.6-.6,0-.2-1,.2.2,0,0,.4-.4,0-.8-.6,0-.4-.2.2l.2.4q-.6,0-.6.2h-.2v-.2a.4.4,0,0,0-.6-.2l-.6.2-.4.4q-.2-.4-.4-.2l.2.6-.4.4v.4l-.2.2v-1.4q.4,0,.2-.4-.4,0-.6.6l-.4.4.4.2v.4l-.2.2V-65q-1.2.6-1.2.8v-.2q-.2,0-.8.6V-64q0,.2-.4.2l.4.4q-.2,0-.2.4,0,.2-.4,0,.4,0,.4-.2a2.461,2.461,0,0,0-1,.4v-.4l-.2.2q-.2.4-.4.4l.4.2a.576.576,0,0,1-.4-.2q0-.2-.4,0l.2.2-.6-.2-.6.8a1.535,1.535,0,0,0-.6.2,3.273,3.273,0,0,1-.8.2l-.6.4v.4a.576.576,0,0,0-.2.4q.4.2.4-.2H20v.2l-.4.2a1.822,1.822,0,0,0-1,1q-.4,1-1,1v-.2l-.2-.2a.576.576,0,0,0-.2.4l-.4.4a.815.815,0,0,1-.6.2l-.8.6q.4-.6,0-.4t-.6,0l.2.4-.2-.2-.4.4L14-57a3.148,3.148,0,0,0-.8,1.2A21.956,21.956,0,0,0,9-52.2a.815.815,0,0,1-.6.2q-.4,0-.4.2a11.544,11.544,0,0,1-1.6,1.2h.2q-.6.2-.6.4.4,0-.4.8l-.2-.4L5-49q-.4,0-.6.6h.4a5.048,5.048,0,0,1-.6,1.2A1.729,1.729,0,0,0,3.6-46l-.4.2L3-46l-.4.4a2.327,2.327,0,0,0,.6.4q.2,0,.2.6-.2-.4-.4-.2-.4.4-.4.2a2.967,2.967,0,0,0-.8,1.4,14.711,14.711,0,0,1-.6,1.6l-.6-.2A.576.576,0,0,0,.2-42v.4l-.2.2.2.2v-.2a.25.25,0,0,1,.4,0q-.2,0-.4.4a.354.354,0,0,1-.4.4l-.2-.2-.2.2.4.4A19.6,19.6,0,0,0-2.6-37l-1.4.8a6.566,6.566,0,0,0-1,2q-.2,0-.4.6a.653.653,0,0,1-.8.2v.4l-.2.2a.576.576,0,0,0-.4.2l.4.2-.4.6a2.171,2.171,0,0,1-.4.8h-.2l-.2.6-.4-.2a2.73,2.73,0,0,1-1.2,2,7.024,7.024,0,0,0-1.6,2,1.822,1.822,0,0,0-1,1,1.146,1.146,0,0,1-1.4.6.25.25,0,0,0,0,.4q.2.4.4.4-1,1.2-3,3.4-2.2,2.6-3.2,4a65.342,65.342,0,0,0-5.2,4.4h.4l-.2.2-.4-.2-.2.8h.4l-2,2A3.877,3.877,0,0,1-28-8.2q-.2.4-1.4.8a1.942,1.942,0,0,0-1.2.8v-.2l-.2-.2a2.7,2.7,0,0,1-1.8,1.2,6.513,6.513,0,0,1-1.8.6,1.535,1.535,0,0,0-.2.6l-.2.2v-.2h.2a.576.576,0,0,0-.4-.2h-.2v.6l.2.2h-.2a1.535,1.535,0,0,0-.6-.2l.2.4a.806.806,0,0,0-.8-.4v.4H-37l-.2.2v-.2a1.42,1.42,0,0,0-.2,1.2q-.6-.6-.6,0V-2l-.2-.2-.4.6q0,.2-.6-.4l.2.8-.2-.4-.4-.4-.4.4-.2-.2q0-.2-.4-.2a.576.576,0,0,0,.2.4l-.2-.2.4,1q.2.6-.4.4L-41-.8l-.2-.4h-.2a.576.576,0,0,0-.4-.2v.2l.2.2a.576.576,0,0,1-.4-.2l.2.4q-.6,0-.6-.2-.4.2-.2.4l.4.2.2.2h-.8a1.158,1.158,0,0,1-.8.2A.641.641,0,0,1-44-.6q0-.4.6-.2l-.4-.2q.6.2.6-.2a5.958,5.958,0,0,0-.8-.6.653.653,0,0,1-.2-.8h.2V-2q.4.2.4,0t.4.2q.2-.2,0-.6a3.273,3.273,0,0,1-.2-.8,2.327,2.327,0,0,1,.6.4.641.641,0,0,0,.4.6v-.4a.576.576,0,0,0,.2.4V-3.4A1.535,1.535,0,0,1-42-4l.2-.2v-.4a5.048,5.048,0,0,1,.6-1.2,13.46,13.46,0,0,1,1.6-3H-40a.576.576,0,0,1,.4-.2h.2a84.256,84.256,0,0,1,4.8-7.2q2.6-3.6,4.8-6.2A30.009,30.009,0,0,1-27.6-25a.815.815,0,0,0,.6-.2.25.25,0,0,1,0-.4q.4-.2.4-.4l.2.2a.354.354,0,0,0-.4.4,1.535,1.535,0,0,0,.6-.2l.2-.2.4-1a.354.354,0,0,0,.4-.4V-28h.6a1.944,1.944,0,0,0,.4-1q2.4-2.8,2.6-4.2a.811.811,0,0,0,1-.4q.2,0,.4-.4l.2-.4.2.2v-1.4a1.152,1.152,0,0,1,.4-.8v.4a.576.576,0,0,0,.2-.4v-.2l.8-1q-.2.4.2.2l.2-.4.2.2V-38h.2l.4.2a1,1,0,0,0,.2-1,6.98,6.98,0,0,0,1.2-1.8,9.784,9.784,0,0,0,.6-1v-.2h.2l.4-.8a.576.576,0,0,0,.4-.2q.4,0,.4-.2v.2a4.29,4.29,0,0,1,1-.8L-13-44q.6-.2.4,0l.2-.2q-.4,0,0-.8v.6l.2-.2V-45l.2.2a.576.576,0,0,1,.2-.4.641.641,0,0,0,.4-.6h-.4a1.152,1.152,0,0,1,.4-.8,3.29,3.29,0,0,0,.2-1h.2v-.2l.2.2h.2v-.2a.354.354,0,0,0-.4-.4.576.576,0,0,1-.2-.4h.2q.2-.4.4-.2a6.2,6.2,0,0,0,.4-1.2,2.46,2.46,0,0,1,.4-1q0,.2.4.2a.576.576,0,0,0,.4.2l-.2-.2H-9l.2-.2q-.2-.4-.4-.4,0-.4.4-.2h.2L-9-52a9.307,9.307,0,0,0,1.6-2.4l1-.4a4.961,4.961,0,0,0,.6-1.4l.2-.4q.2-.4.6,0l-.2-.6.2.2.2-.2-.4-.4q.2,0,.4-.4,0-.4.2-.4h.2v-.4l.4.2A1.283,1.283,0,0,1-3.4-60a3.068,3.068,0,0,0,.8-1.4A.53.53,0,0,0-2-62q.2-.6,1-.4l-.2-.2q-.2-.4-.4-.2L0-65.2a6.41,6.41,0,0,0,1.2-2.6V-68H1l-.2.2H.4l-.2.2L0-68a.25.25,0,0,0-.4,0,.25.25,0,0,1-.4,0l-.2.2V-68l-.4.2V-68a.25.25,0,0,0,0-.4l-.4-.2h.2L-2-69l-.2.2-.4.6-.2-.2v.4H-3l.2-.2q-.2,0-.2-.6l-.2-.2.4-.2.2-1q0-.2.6-.6a3.134,3.134,0,0,1,.6-.8,3.134,3.134,0,0,1,.6-.8l.2-.4.6-.6q1.8-2,3-3.6l8.8-11,1.8,15a17.655,17.655,0,0,1-.6,7,3.07,3.07,0,0,1-.4,1.2v.2L13-65a2.264,2.264,0,0,0,.8-.8.576.576,0,0,0,.4.2l.4-.2a.354.354,0,0,1,.4-.4.576.576,0,0,0,.4-.2.576.576,0,0,1,.4-.2A.576.576,0,0,0,16-67l.2.2a.576.576,0,0,1,.4-.2q.2-.4.4-.4h.6a3.508,3.508,0,0,1,.4-1h.2q.4,0,.4-.2v.2l.6-.4v.2q0-.2.4-.2a3.134,3.134,0,0,0,.8-.6v.2a19.274,19.274,0,0,1,1.8-1.2l.2.2.4-.8v.2l.6-.2v.2a.784.784,0,0,1,.8-.6,2.083,2.083,0,0,0,1.2-.2v.2a.25.25,0,0,0,.4,0q.4-.2.6,0a.637.637,0,0,1,.2-1l-.2.4h.8q.4-.4.2-.4l.2-.2q.6-.4.8-.2l.4-.4.6-.4v.2q.4-.6.6-.4l-.2.2q.2,0,.6-.4t.6-.2q.4-.2,0-.4.2.2.6,0a2.061,2.061,0,0,1,.8-.4l-.2.4a.815.815,0,0,1,.6-.2l-.2.2q1.6-.6,1.4-.4v-.2a3.419,3.419,0,0,0,1.6-.6h.2a.354.354,0,0,0,.4-.4.641.641,0,0,1,.4-.6.576.576,0,0,1-.2.4l.2.2.4-.6.2.4a1.357,1.357,0,0,1,1-.4h1a2.785,2.785,0,0,0,1.2-.2,3.134,3.134,0,0,0,.8-.6L41-78a1.158,1.158,0,0,0,.8.2.4.4,0,0,1,.6.2v-.2l.4.4.2-.8v.6l.2-.4v.4q.4-.4.6-.2.4.2.6,0v.2a.653.653,0,0,1,.8-.2H46v.4l.8-.4-.2-.2.6.4.2-.2v.2a1.535,1.535,0,0,1,.6-.2,1.535,1.535,0,0,0,.6-.2q-.4.4,0,.6a.815.815,0,0,1,.6-.2h.6v.2q.4,0,.4-.2a.25.25,0,0,0,0-.4l.2.2q0,.2.4.2v-.2h.6q.2,0,0,.4l.6-.2-.2-.2h1.4v.6l.2-.2v.2q.2.4.8,0a.811.811,0,0,1,1,.4v-.4h.6q0-.4,1,.4a.641.641,0,0,1,.6-.4,1.557,1.557,0,0,1,.6,1.4,4.837,4.837,0,0,1,2-.2q-.2.6-.4.6.2.2.8,0,.8,0,1,.4l.2-.4q.2.2,0,.6l.2.2L62-75a1.775,1.775,0,0,1,.8.2.25.25,0,0,0,0,.4v.2H63q.6.2.6-.2l.2.4.2-.4v.8l.6-.2-.2.2.6-.2a2.327,2.327,0,0,0-.6.4q-.2.4,0,.6a1.535,1.535,0,0,0,.6.2l.2.2q.2.4-.4.6a13.041,13.041,0,0,1,2,.2q-.4.8.2.8h.8L68-71l-.2.4.6.4q.4,0-.2.8l.8-.2a.576.576,0,0,0-.4.2l-.4.4.6.6-.4.2-.2.2.6.2a6.013,6.013,0,0,0,1-.2q.6-.2.6.6-.2-.2-.6,0l-.4.4q.2,0,0,.4l.2-.2a1.535,1.535,0,0,1-.2.6H70v.2l.2.2a.576.576,0,0,1-.4.2q0,.4.4.2l.4-.4h.2q-.2.8,0,1a1.158,1.158,0,0,1,.2.8,1.775,1.775,0,0,1-.8.2q-.4,0-.2-.6l-.6.6v.6q-.2,0-.2-.4.6-.8.4-.6.2-.2,0-.6-.4,0-.8.8-.4.4-.6,0v-.2h.2q.4-.2.2-.4l.2-.2a.4.4,0,0,0-.6-.2h-.8a.641.641,0,0,1,.4-.6q.4,0,.4-.2l-.4-.2a.354.354,0,0,0,.4-.4,1.535,1.535,0,0,0,.2-.6q-.2.4-.4.4-.2-.2-.4.2l-.6-.2h-.6a1.012,1.012,0,0,1-.4-1.2l-.2.2q0,.2-.4.2a.815.815,0,0,0-.2-.6q-.6-.4-.4-.4.4-.4,0-.6-.4.6-.6.4-.2.2,0-.6L64-69v-.4h-.4l-.2.2v-.2a.354.354,0,0,0-.4.4q0-.2.2.6l-.4-.2q0,.6-.8.2-.2,0,.8-.8l-.4-.4q.2,0-.2.6l-.2-.4h.2q-.2-.8-.4-.8t0,.4l-.2.2v-.6a.815.815,0,0,1,.2-.6V-71a.576.576,0,0,0-.4.2q.2,0-.4.2-.6,0-.6.8,0,.4-.6,0v.4H60l-.2.2v.6a1.8,1.8,0,0,1,0-1.2h-.4a.576.576,0,0,1-.4.2q.4-.2.2-.4.8-.2.6-.4-.2,0,0-.6a.815.815,0,0,1,.2-.6q-.2-.4-.4-.4l-.2.4.2-.6a.576.576,0,0,0-.4-.2l-.4.4q-.2-.2-.4.6a1.535,1.535,0,0,1-.6-.2l-.2.4.2.2h-.2v-.2h-.2l-.2.4V-71l-.6.4A2.326,2.326,0,0,0,56-71q-.4-.2-.4-.4l-.2.2v-.6q0-.4-.2-.4,0,.2-.4.4a.641.641,0,0,0-.6.4q0-.6-.4-.6-.2,0-.2-.4H53a2.327,2.327,0,0,0-.6.4l-.4-.2-.2-.2a.806.806,0,0,1-.4-.8q-.4.2-.2,1-.4-.6-.8-.4l-.4.2ZM28-65.8a.354.354,0,0,1,.4-.4Q28.2-65.8,28-65.8Zm7.6-10V-76q.4-.4.4-.2ZM5.8-50q-.2,0-.2.6ZM-1.4-68h-.2q-.4,0,0-.2Zm60.6-2q-.2.2-.4-.2ZM-41.6-1l.6.2.2.2ZM60.2-69.2l-.2-.2h.4ZM-9.2-51l-.2-.2.2-.2ZM-3-69.8q.2-.4.4-.4Zm67,1.2a.25.25,0,0,1,0-.4ZM-36.4-3.8a.25.25,0,0,1,0,.4Zm106-63q.2-.4.4-.4ZM-44-1.2l.2.2a.576.576,0,0,0-.4-.2Zm-.4,0v-.2l.2.2ZM26.6-72v-.2h.2ZM-42.6-2.8a2.327,2.327,0,0,1,.4-.6ZM51.2-78.2l-.4.4Q50.8-78,51.2-78.2Zm-87,74.4h.2v.2ZM58.2-71l.2-.2-.2.4ZM180.4-175q.4,2,.6,4a.576.576,0,0,1-.2-.4l-.2-.2v.4a3.29,3.29,0,0,1-.2,1l-.2.6v.6l-.2.2q-.2-2-.4-3.4a.641.641,0,0,1-.6.4q.2,0-.4-.4a.576.576,0,0,0-.4.2v.6l-.2.4v.4q.2.6.4.2.2-.2.4,1a1.775,1.775,0,0,0-.2.8l-.2.2v.4a1.775,1.775,0,0,1-.2.8v.6l-.2.4v-.4l-.2-.4q0-.6-.2-.6a6.542,6.542,0,0,0-.2,2.6l-.6.8v.2l-.2.4a1.535,1.535,0,0,1-.2.6.576.576,0,0,0,.2.4h.2l.2.2-.8.4-.8.8a4.021,4.021,0,0,0-1.2,2l.2-1.6-1,2v-.2q.4-1-.2-.6a1.357,1.357,0,0,1-.4,1l-.2.4a.576.576,0,0,1-.2.4q-.4.4-1.4,1.6-.6.8-1,1.4a2.465,2.465,0,0,0-.4,1.4l-.6-1a5.09,5.09,0,0,0-1.2,2.2,3.775,3.775,0,0,1-.2,1.2v-.2q-.2-.2.2-.8-.8,0-3,3.4-2.8,3.2-6.8,7.6a10.516,10.516,0,0,0-1.6,2l-1.6,1.6q-2.2,2.8-3.2,4a1.152,1.152,0,0,0-.8.4,29.233,29.233,0,0,0-3.4,3.6q-.2.2-2.8,3-1.8,2-2.8,3a11.49,11.49,0,0,1-1.8,1.8l-.8.8a4.653,4.653,0,0,0-1.2.8q-.6,0-2.2,1.4a11.2,11.2,0,0,1-2.8,2,28.742,28.742,0,0,1-3,3.4q-2,1.6-4.2,3.2-.6.4-4.4,3-2.2,1.6-3.6,2.6a69.761,69.761,0,0,1,9.6-9.8q1.2-1.2,5.6-5,3.6-3,5.8-4.8H138l2.4-2.4q.8-.8,2.6-2.4a23.936,23.936,0,0,0,2.6-2.6,15.192,15.192,0,0,0,2.6-2.4,79.481,79.481,0,0,0,9-10h.2a6.094,6.094,0,0,0,1.4-2q-2.2,2-4.4,3.8-1.2,1-5.4,4.4-1.6,1.2-2.8,2l-1.4,1.2-1.2,1q-3.8,3.2-8,7.2.4,1.4-1,4.2a3.505,3.505,0,0,1-.8-2.6q-.8.6-.6.6l-.8.6a20.759,20.759,0,0,0-.8,2.6l-1-.6-1,1v1.4a2.461,2.461,0,0,0-.4-1l-2,2q-.8,1-1.2,1.4-.2,0-.4.4l-.4.4,1,.6a1.683,1.683,0,0,0-1.4-.2q0,.2-1.2,1.2.2-.4-.8.6a5.959,5.959,0,0,0-.8.6l.6.8a5.021,5.021,0,0,0-2,1.2q-1.2,1-.6,2l-2.4-1.8q.2,1.6-.6,2a3.523,3.523,0,0,0-1.4,2.4l2.2.2a9.4,9.4,0,0,1-3.4.6,5.065,5.065,0,0,0-3.2,1.2,13.271,13.271,0,0,0-1.4,2.8,6.809,6.809,0,0,1-2,2.8,34.706,34.706,0,0,0,.4-4.4,5.2,5.2,0,0,0-.8,1.4,1.927,1.927,0,0,1-1,.8,5.855,5.855,0,0,1-1,1.6,5.855,5.855,0,0,0-1,1.6q-.2,0-.4.4a1.535,1.535,0,0,1-.6.2l-.8,1.2a2.51,2.51,0,0,1-.6,1v.2q-1,1.2-1.8,2-.2,0,0-.4v-.2h-.4a.806.806,0,0,0,.4.8q0,.2-.4.6-.4.2-.2.4-.2.2-.6,0a1.152,1.152,0,0,1-.4.8,1.775,1.775,0,0,0-.2.8H98l-.2.2a5.2,5.2,0,0,1-.8,1.4q-.6.8-1,1.4h-.2a.25.25,0,0,1-.4,0v.4q-1,1.2-2.6,3.4a21.082,21.082,0,0,0-2.2,2.8l-.6.6a.354.354,0,0,1-.4.4,7.838,7.838,0,0,1,.8-1.8V-82q-.2.6-.4.6a2.171,2.171,0,0,0-.4.8,7.759,7.759,0,0,1-.4,1,.53.53,0,0,0-.6-.6v.4a.25.25,0,0,1,0,.4,1.535,1.535,0,0,1-.6.2,10.843,10.843,0,0,1-1.8,2.8h-.4l.2-.2a.25.25,0,0,1,0-.4,2.264,2.264,0,0,1,.8-.8q0-.6,1.6-2.4a9.042,9.042,0,0,0,.8-1.2l.2.2q-.2.4,0,.6a1.42,1.42,0,0,0,.2-1.2q.6-.6.4-.8a11.693,11.693,0,0,0,1-1.2l.4-.4A3.134,3.134,0,0,0,92-85h.2a20.445,20.445,0,0,1,1.4-2,7.761,7.761,0,0,0-1,.4q-.6,1-.8.8h-.2a1.288,1.288,0,0,1-.8.6l-.2.4h.2a3.07,3.07,0,0,1-.4,1.2q-.4.6-.8.6l.4-.8.2-.2H90l-.2.2a.641.641,0,0,1-.6.4,1.729,1.729,0,0,0-.6,1.2l-.2.2H88v.6h.2v.4a1.775,1.775,0,0,0-.2.8h-.2l-.2.2-.4.2q-.8,1.6-1.4,2.6l-.2.2q.2.6-.8,0l.4-.4v-.2q-.4,0-.6.6a2.062,2.062,0,0,0-.4.8l-.4.2a1.535,1.535,0,0,0-.2.6h-.2q-.2.2-1,1.2h-.2l.2.2a1.535,1.535,0,0,1,.6-.2,2.062,2.062,0,0,1-.4.8h-.2v.2l.2.2q-.4,0-.4.2v.4H82l-.4.4-.2.4h.2v.2a1.775,1.775,0,0,0-.8.2l-.4.4h.2l-.8.4v.2a1.289,1.289,0,0,0,0,1v.4q.2,0,.4-.4l.2-.2q.2.2,0,.6a1.535,1.535,0,0,0-.2.6q-.4,0-.6.6a9.783,9.783,0,0,0-.6,1q.6-.2,1-1.4,0,.6.2.4a5.2,5.2,0,0,1-.8,1.4,7.794,7.794,0,0,0-1.4,2A3.261,3.261,0,0,0,77-63a4.574,4.574,0,0,1-1.2,1.4q-.2,0,0-.4.4-.4.2-.6-.2,0-.6.4l-.2.4a1.288,1.288,0,0,0-.6.8l-.4.6.8-.8h.2a10,10,0,0,1-1,1.4,5.2,5.2,0,0,0-.8,1.4h-.2a3.134,3.134,0,0,0-.6.8,9.748,9.748,0,0,1,.8,2.2.815.815,0,0,1,.2.6h.6l.6-.2q1.8.2,2,.2v-.6a49.075,49.075,0,0,0,8.2-1,31.475,31.475,0,0,1,8-1,3.134,3.134,0,0,0,.8-.6l.8-.4q1.4-.4,3.6-1a66.093,66.093,0,0,0,8.2-2.4,63.911,63.911,0,0,0,7.6-2.8,1.535,1.535,0,0,0,.6-.2q.6-.2.6-.4a1.535,1.535,0,0,0,.6-.2l.4-.2a3.273,3.273,0,0,1,.8-.2l.2-.2q.6-.2,1.4-.4a8.358,8.358,0,0,0,1.4-.4,3.273,3.273,0,0,0,.8-.2,3.273,3.273,0,0,1,.8-.2,2.171,2.171,0,0,1,.8-.4,1.775,1.775,0,0,1,.8-.2,4.6,4.6,0,0,1,1.2-.6,3.07,3.07,0,0,1,1.2-.4l.4-.4q1.2-1.2,1-.8a30.483,30.483,0,0,0,2.2-2.4,10.516,10.516,0,0,0,1.6-2.6l.2-.6a.576.576,0,0,1,.2-.4h2.4a2.46,2.46,0,0,1,1-.4h.6a3.273,3.273,0,0,1,.8-.2h2a3.29,3.29,0,0,1,1-.2,21.241,21.241,0,0,1,3-.2,9.787,9.787,0,0,0,.6,1,9.593,9.593,0,0,1,1.2,2.6l.4,1.6v1.2a5.471,5.471,0,0,1,.2,1.2,4.291,4.291,0,0,0-.8,1q-.4.2-.4.4l-.4.6a6.554,6.554,0,0,0-.8,1,2.925,2.925,0,0,1-.6,1q0,.2-.4.6l-.2.4-.8.8a6.554,6.554,0,0,1-1,.8,1.944,1.944,0,0,1-1,.4v.2q-.4-.4-1,.2-.2,0-1.4,1.4a2.264,2.264,0,0,1-.8.8l-.6.6q-1,.6-1.4.4a1.775,1.775,0,0,1-.8.2,2.327,2.327,0,0,0-.6.4,4.29,4.29,0,0,0-1,.8,10.227,10.227,0,0,1-1.8,1.8q.2-.2-.6-.4a1.9,1.9,0,0,0-1.6.8q0-.2-1,1.2-1,1-1.8.8a10.941,10.941,0,0,0-2.4.4q-2.2.8-2.6,1l.4.2q-1.6.4-5,1.2-3.4.6-5,1a38.971,38.971,0,0,1-9.6,1q-.8.8-.2,0h-1a3.775,3.775,0,0,0-1.2.2v.2l-1,.4a2.061,2.061,0,0,1-.8.4,2.163,2.163,0,0,1-2.2,0q0-.4-1-.2-.6.2-.2,0l-2,.4a9.269,9.269,0,0,1-1.8.2,14.388,14.388,0,0,1-3.4,0,37.268,37.268,0,0,0-7.2.6,1.775,1.775,0,0,1,.2.8l.4,2A20.156,20.156,0,0,0,80.8-36a22.432,22.432,0,0,0,4.8,5.6,2.51,2.51,0,0,0,.6,1h.4l.2.2q0,.2,1,1a3.571,3.571,0,0,0,1,1l.4-.2a26.072,26.072,0,0,0,4.2,3q0,.2.4.6a2.327,2.327,0,0,0,.4.6L95-22l.6-.4a2.55,2.55,0,0,1,1.2,1.2,3.939,3.939,0,0,0,1.4,1l.6-.6q4.2,2.6,12,6.8l.2.2h.2a.576.576,0,0,0,.4.2q.2,0,.6.6a.576.576,0,0,0,.2-.4v.2l.2-.2v.2h.4v.4l.6-.6a.576.576,0,0,0,.4-.2v.4q0-.2.4-.2l.2-.2h.4l-.2.6h.2v.4l.2-.2a.576.576,0,0,1,.4.2v.2l.2-.8q0,.4.2.4v-.4q.4-.4.6-.4h.4v.8q.4-.2.2-.8a1.288,1.288,0,0,0,1,0,.576.576,0,0,0,.2.4v-.2l.4-.4a.576.576,0,0,1,.2-.4.576.576,0,0,0,.2-.4l.2.4a2.327,2.327,0,0,1,.6-.4,2.326,2.326,0,0,0,.4-.6q0,.4.4.2v.6h.4v.2a.25.25,0,0,0,.4,0l.2-.2h.4a.576.576,0,0,1,.2-.4v-.6q.4.4.4.2l-.2-.2q.8-1,1.2-1,.2-.2.4.6l.4-.2-.2.2a1.535,1.535,0,0,0-.2.6v.2l1.2-1.2q0,.2-.4.6a3.07,3.07,0,0,1,1.2-.4.653.653,0,0,0,.2-.8q.2.2.4-.2.2.4.4.4v-.8a.576.576,0,0,0,.2-.4v.4l.2-.4V-18h.4l.2.4h.2v.2l.2.2v-.4l.2.2.2-.2-.2-.4h.4l-.2-.2q.2-.8.6-.8a1.535,1.535,0,0,0,.2.6h.2v.6q.2,0,.4.4a86.154,86.154,0,0,0-7.6,8.8l-.2.2-.4.2H122a6.807,6.807,0,0,1-1.8.8,3.019,3.019,0,0,1-1.2,1,6.729,6.729,0,0,1-1.6,1,10,10,0,0,0-1.4,1,1.928,1.928,0,0,0-1,.8.576.576,0,0,1,.2-.4,1.942,1.942,0,0,0-1.2.8l-.4.4h-.2v.2h-.2v.2q.4,0,0,.4h-1.4a2.194,2.194,0,0,0-1.4.8q0,.2.4,0l-.2.4a11.611,11.611,0,0,0-3.2,0,7.511,7.511,0,0,1-2.8.2l.2.4A7.436,7.436,0,0,1,103,0a9.979,9.979,0,0,0-1.2-.2,2.119,2.119,0,0,1-1.8,0,1.346,1.346,0,0,1-1.2-.6q-.6-.2-.6-.6L98-1.6a27.987,27.987,0,0,1-9-5.2L88.6-7q-5.6-4.8-6-5.2a51.89,51.89,0,0,1-8-8.6q-1-1-1-1.2a3.261,3.261,0,0,1-1-1.2q0-.2-.4-.6-.4-1-.4-.8a2.327,2.327,0,0,1-.4-.6,2.327,2.327,0,0,0-.4-.6q-.6-1-1.4-2.6a21.982,21.982,0,0,1-1-2.6,20.752,20.752,0,0,1-.8-2.4,8.95,8.95,0,0,0-.8-2q-.8-3.2-.6-2.8a26.817,26.817,0,0,1,0-8H65q-10,12.4-14.6,18-.6.8-2.8,4.8-2.4,3.6-3.2,4.6-.2.2-1.8,2.4a23.834,23.834,0,0,1-2.4,3.2l.2.4A45.044,45.044,0,0,0,35-8q-.8.8-2.8,3.2a15.115,15.115,0,0,1-2.6,3.2l-7.4-9.2L28.8-19q1-.8,22.2-27.8a97.133,97.133,0,0,1-9.8-.4q-.2,0-1.6-.2a8.414,8.414,0,0,1-2-.2,9.535,9.535,0,0,1-3-.6,10.175,10.175,0,0,0-2-.2v.2l-4.4-1.4a10.975,10.975,0,0,1,.6-1.4l.4-1.6,1.8.2h3.4a166.286,166.286,0,0,0,19.8-.4A12.033,12.033,0,0,0,56-53q1-1.2,1.8-2.2,4-5.2,6.6-8.4v-.2h.2l.2-.2H65a1.535,1.535,0,0,1,.2-.6l.2-.4a1.535,1.535,0,0,0,.2-.6.576.576,0,0,1,.4.2,4.29,4.29,0,0,1,.8-1,5.048,5.048,0,0,0,.6-1.2l.2.2A12.168,12.168,0,0,0,69-69.2a8.878,8.878,0,0,1,.8-1.6L70-71h.2a1.152,1.152,0,0,1,.4-.8q.6-.4.6-.8a2.28,2.28,0,0,0,.8-1.2V-74l.2.2.2-.4A54.793,54.793,0,0,1,76-78.6q0-.4-.2-.4a3.5,3.5,0,0,0,1.4-2l.2.2q0-.4.8-1.2a2.428,2.428,0,0,0,.6-1.2.815.815,0,0,1,.6-.2l.2-.6a.576.576,0,0,1,.2-.4q.4,0,1.2-1.2v-.2l.2-.2h-.4l.2-.2h.4l-.2-.2a.576.576,0,0,0,.2-.4l.2-.2v-.4a.354.354,0,0,1,.4-.4v-.6l.2-.4q.4-.6.6-.6t.2-.4V-90h.4a.576.576,0,0,1-.2-.4h.2l.4-.2v-.2l.2.2a.25.25,0,0,0,0-.4h.2l-.2-.2h.4v-.2l-.2-.2v-.2a1.535,1.535,0,0,0,.6.2l-.2-.2H85V-92l.2.2v-.4l.2-.2h.2l.2-.2v-.2H86q.2,0,.2-.4l-.4-.6H86a.815.815,0,0,0,.6.2q.4-.4.2-.4l.2.2V-94h.2v-.2a.576.576,0,0,0,.2-.4v-.2h.2q0-.2.6-.6a1.152,1.152,0,0,0,.4-.8.576.576,0,0,1,.2.4l.4.2q.4-.4-.2-.6a9.043,9.043,0,0,1,.8-1.2,3.432,3.432,0,0,1,1-1v-.2h-.2q-.2-.2.2-.6t.6-.2l1.2-1.8q0-.4-.2-.4a1.535,1.535,0,0,0,.6-.2q.2-.4.4-.4.2-.2,0-.6h.2l-.4-.2.2-.2h.2v-.2q.2,0,.2-.4H94v-.2l.2-.2q0-.4.2-.4,0,.2.2-1,.4-.4.6-.4a.576.576,0,0,0,.2-.4v-.2h.2l.6-.6h.2v-.4h.2v-.2l-.2-.2.2-.2v-.2l.4.4.2-.2v-.2l.2.2.2-.4h.2v-.4l.2.2v-.2h.2v-.2l-.4-.4v-.4q.4.4.6.4.4-.4,0-.4h.4v-.4H99v-.4a1.775,1.775,0,0,0,.8-.2v-.2h.2l1.4-1.4a1,1,0,0,0,.2-1,5.5,5.5,0,0,0,1.6-1.8,3.261,3.261,0,0,0,1-1.2,1.687,1.687,0,0,1,1.4-1v-.6a.576.576,0,0,0,.2-.4.576.576,0,0,0,.4.2q-.2-.2.2-.6l.2-.6.6-1.2a3.134,3.134,0,0,1,.6-.8l.2.2a1.535,1.535,0,0,0,.2-.6.576.576,0,0,1,.2-.4q-.2,0,3-3.8,2.8-3.6,2.8-3.2a7.759,7.759,0,0,0,.4-1q.4-.4.4-.6a.784.784,0,0,0,.8-.6,2.327,2.327,0,0,0,.4-.6,1.775,1.775,0,0,0,.2-.8.25.25,0,0,1,0,.4q0,.4.2.4l1-1.2a.576.576,0,0,1-.2-.4.354.354,0,0,1,.4-.4q.4.2.4,0l-.4-.4q1.8-2.2,2.4-2.8,0,.4.6-.2.6-.8.8-.8v-.4l-.4.2-.4.4v-.4q0-.4,2-2.4a.815.815,0,0,1,.2-.6h.2a2.327,2.327,0,0,1,.4-.6l.4-.4h.2l2.2-2.2a21.88,21.88,0,0,1-2.2,1.4l4.8-5.4q2.6-2.6,7.4-7.2,0-.8,1-1.2v.2q1.8-1.6,5.2-4.8,0-.2.4-.4l.2-.2q1.2-1.2,3.8-3.6l1.8-1.8a8.769,8.769,0,0,0,1-1.8l.4.4.2-.2q.6-1,3.4-4.6a25.851,25.851,0,0,0,2.8-4.8q0,.8.8-.2a2.264,2.264,0,0,0,.8-.8q.6-1,.8-1a1.158,1.158,0,0,0-.2.8,1.775,1.775,0,0,0-.2.8,5.5,5.5,0,0,1,1.4-1.6,3.969,3.969,0,0,0,1.2-1.4q-.6,1.4-.4,1.4a21.878,21.878,0,0,0,1.4-2.2,4.425,4.425,0,0,1,1.4-1.8H163a14.143,14.143,0,0,0,2-2,8.869,8.869,0,0,1,1.6-1.8l.6-.6.6.4a4.629,4.629,0,0,0,1,.6l.8.8a6.2,6.2,0,0,0,1.4.4,2.935,2.935,0,0,1,1.6.8v.2a.576.576,0,0,0,.2.4q0,.2.4.6l1,1q.2,0-.2-.4a.576.576,0,0,0-.2-.4l-.2-.2a23.039,23.039,0,0,1,5,6l1.2,2Zm-28.8,41.8a16.378,16.378,0,0,0,2.4-1.2q.8-1,2.6-3l2.4-2.4a10.507,10.507,0,0,1-1,1.6,11.715,11.715,0,0,1-1.4,1.6,6.766,6.766,0,0,1-1.6,1.8,8.868,8.868,0,0,1-1.6,1.8q-.2,0-.8.8a4.289,4.289,0,0,0-.8,1,6.765,6.765,0,0,0-1.6,1.8,19.724,19.724,0,0,0-3,3.2q0-.6,1.4-2.2,1.8-2,2.2-2.4l-1.4,1.2q-.2,0-.6.4l-.4.2.2-.2a5.958,5.958,0,0,0,.6-.8,2.264,2.264,0,0,0,.8-.8q.2-.2,1.4-1.6a1.308,1.308,0,0,0,.6-.6A.576.576,0,0,1,151.6-133.2ZM102.2-91.6q-.8,0-.2-.4a4.653,4.653,0,0,1,1.2-.8,7.947,7.947,0,0,1,1.2-1l-.4,2A17.116,17.116,0,0,1,102.2-91.6ZM61-43l3.2-3.2a.815.815,0,0,1-.6-.2l-.2.6-1,.4-.2.2-.8,1.6Zm85.6-81.6q2.2-1.8,2.8-2.2l-1.8,2.4Zm-40,28.4q-.4-.6,1.6-2.2a4.453,4.453,0,0,0-1.4,1.6q-.4,1,1.2.4l1.6-1.8-2.2,2.8Zm33-65.2q.4.2,0,1-1.2.2-1,0,.6-.4.2-1.2A3.273,3.273,0,0,1,139.6-161.4ZM112-100a6.013,6.013,0,0,0,.2-1q.8-.2,1,.2.2.2-1,1Q111.8-99.6,112-100ZM73-58.6q.2-.4.4-.2a1.775,1.775,0,0,0-.2-.8q-.4,1-.6,1t0-.4q.4-.6.2-.6-1.2,2.2-1,1.8h.4l.2-.2.2-.4ZM146.8-127l-1,1a7.945,7.945,0,0,1-1.2,1l.6-.8a1.308,1.308,0,0,1,.6-.6Zm32.6-38q.4-1.8.6-2.8v.6a6.348,6.348,0,0,1-.4,1.8Zm-18.6-18.4a4.628,4.628,0,0,1-.6,1l-.4.2ZM134.4-21.2q.6,0,.6.2,0-.2.4.2-.4,0-.4-.2l-.2.2Zm-63-53.6a.641.641,0,0,1,.4.6h-.2l-.2-.2v-.2l-.2-.2ZM111.2-7.4h.4v-.2l-.2-.2h-.2Zm50.2-175.2q-.2,0-.8.8Q162-183.6,161.4-182.6Zm12.8,25a.576.576,0,0,1-.2.4q-.2.4-1.2,2l1-1.8ZM112.6-2.4q-.2.2.6,0Zm-1.2-12.2a1.535,1.535,0,0,0-.2.6Q111-14,111.4-14.6Zm-1.6,7.2.2.2a.576.576,0,0,1,.2-.4ZM99-80.4l-.2.2a.576.576,0,0,1,.2-.4Zm33.2,60,.2.4h-.2Zm2.6-1.2a.576.576,0,0,1,.4.2v.2Zm37.4-132.6q0,.2-.4.6Zm.6-3.4.4-.6v.2ZM99-83.6q.2-.6.2-.4v.2ZM116.8-14q0,.2-.2-.6Zm18.4-7.4a.354.354,0,0,1,.4.4ZM135-22h.2v.2Zm38.6-163.2v.2l-.2-.2ZM134.4-20.4h.2l-.2.2Zm38.2-134.4q0,.2-.4.6A2.326,2.326,0,0,0,172.6-154.8Zm-76.8,48h-.2v-.2Zm33.4,89.6a.576.576,0,0,0-.2-.4v.2Zm-16.4,4,.2-.6v.2ZM93.2-107.8v-.2h.2ZM110.4-7.4l.2-.2h-.2Zm22.8-11.8.2-.2v.2Zm-12,3.8-.2.2v-.2Zm10-2.8v.2H131Zm30-164a.576.576,0,0,1,.2-.4ZM93-104.4h.2l-.2.2ZM84.2-91.6v.2l-.2-.2Zm37,76.8q.2,0,0,.4Zm52-143.4a1.535,1.535,0,0,1,.2-.6ZM126-18.8a1.535,1.535,0,0,1,.2.6Zm-8.4,3a3.273,3.273,0,0,1,.2.8ZM161-58.6q-.2-.2-.4.2,0-.4.2-.4.4,0,.4-.2l.2-.2v.2l.2-.2v-.4l.2.2h.2v-.4l-.2.2v-.2l.2-.2h.4l.2.2V-60h.2a.576.576,0,0,1,.2-.4.576.576,0,0,1,.4-.2v-.2a.576.576,0,0,0,.4-.2h.2v-.4a.4.4,0,0,0,.6-.2l.2.2v-.4h-.4V-62q.4.2.6,0l-.2.2h.2V-62l.4-.4.2.2a.576.576,0,0,1,.2-.4v.2h.2l-.2-.2a.576.576,0,0,0,.2-.4l.2.2h.2l-.2-.2h.4q.2-.4.4-.2v-.2h-.2l.2-.2.2.2v-.4h.2l.4-.4q.4-.2.4,0a2.327,2.327,0,0,1,.4-.6l.2-.2h.2l.4-.4h.2l-.2.2h.2v-.4a.576.576,0,0,1,.4.2.576.576,0,0,1-.2-.4.815.815,0,0,1,.6-.2.576.576,0,0,0,.4-.2l-.2-.2h.2v.2a.25.25,0,0,0,0-.4h.2v.2l.2-.2v-.2q.8-.4.8-.2v-.2h.2v-.2h.2l-.2-.2v-.2q.2.2.6,0V-68l.2.2V-68h.2v-.2H173l.2-.2.2.2.6-.4.4-.4v-.2a.25.25,0,0,0,.4,0v.4l.2-.4-.2-.4.2.2.2-.2q0,.4.2.4l-.2-.4a1.357,1.357,0,0,1,1-.4q-.2-.2.2-.4a.25.25,0,0,0,0-.4l.2.2.6-.6-.2.4.2.2q.4-.4.2-.4v-.2l.2-.2v.6q.2,0,.2-.4a.576.576,0,0,0,.4-.2l.2.2q.2-.2,0-.6l.2-.2v.4l.2-.2-.2-.2q.4-.2.4,0,.4-.2.4-.4a.576.576,0,0,0,.4-.2l.2-.2v.4l.4-.2v-.2l.2-.2h.6a.576.576,0,0,0-.4-.2h-.2l.4-.4.2.2h.4l.4-.2v-.2a.576.576,0,0,0,.4-.2q.4-.2.6,0v-.2l-.2-.2h.2v-.2a.576.576,0,0,0,.4-.2v0a1.775,1.775,0,0,1,.8-.2l-.2.2.4.2v-.2l.2-.2-.4.2.4-.4.2.2v-.2h.2l.2.2q0-.2.4-.4l-.2-.2h.4v.2l.2.2q.4-.6.4-.4h.2l.2-.2-.2-.2-.2.2q-.2-.2.2-.4h.4a.576.576,0,0,0-.4.2q.4,0,.4-.2l.2.2.2-.2h.2q0-.6.4-.2l.2-.2v-.2q.4.2.4,0l.2.2v-.2l.2-.2q0-.2.6.2l.2-.2v-.2h.6l.2-.2h.2l.2.2v-.2q.4.4.4,0h.2l.2-.2L193-78h.2a1.775,1.775,0,0,1,.8-.2q-.2,0,0,.4l.2-.2a.576.576,0,0,0,.4-.2l1-.2-.2.2h.2v-.2l.8-.2.8.2.2.2q.4,0,.4-.2h.2q.4.2.4,0l.4-.2v.4q.2,0,.4-.4v.2a.653.653,0,0,1,.8.2q.2.2.6,0h.8l.2.6v-.2l.2.2a5.876,5.876,0,0,1,1.4.2l.4.2a1.535,1.535,0,0,0,.6.2,9.783,9.783,0,0,0,1,.6l.4.2v.2h.2l.6.6a1.308,1.308,0,0,1,.6.6,1.288,1.288,0,0,1,.6.8,7.838,7.838,0,0,1,.8,1.8,1.775,1.775,0,0,1,.2.8.576.576,0,0,1,.2.4v1.6l-.2.4v.6a9.228,9.228,0,0,1-1.2,2.6,6.268,6.268,0,0,1-1.2,1.6,10.941,10.941,0,0,1-2.2,2l.2-.2V-63l-.4.4-.4.2-.2.2q.4-.8,0-.6a1.638,1.638,0,0,0-1,.6v.2a.815.815,0,0,0-.2.6.576.576,0,0,0-.2.4v.4q-.2.4-.4.4v-.4l-.2.2-.4-.4h-.6V-61l-.2-.2.2-.2v-.4H200v.4l-.2-.2v.2h-.2l-.6.6a5.958,5.958,0,0,0-.8.6,10.9,10.9,0,0,1-2,1.8q-.6,0-.2-1.6a3.89,3.89,0,0,0,.2-2,.576.576,0,0,0-.2-.4,1.535,1.535,0,0,1-.2-.6l.8-1.6a10.974,10.974,0,0,0-1.4.6l.2-.8a5.779,5.779,0,0,0-2.4,1.4,4.152,4.152,0,0,1-2,1.2,16.266,16.266,0,0,1-3.4,1.8q-1.6.4-4,1.2T180.2-58a38.071,38.071,0,0,0-7.2,4,32.881,32.881,0,0,1-4.6,3.2q-4.2,2.4-5,3-5.8,3.8-8.2,7.4a19.336,19.336,0,0,0-6.6,4.8,32.707,32.707,0,0,0-2.6,3.4q-1.6,2.4-2.6,4.2l-.2.2-.2,1v.4h2.4a6.067,6.067,0,0,0,1.8-.2q2-.4,6.4-1a31.372,31.372,0,0,0,7-1.6,31.124,31.124,0,0,0,4.8-2q2-.8,4.2-1.6a17.791,17.791,0,0,1,1.8-1,5.576,5.576,0,0,1,1.4-.8,21.266,21.266,0,0,1,3.6-1.6,3.433,3.433,0,0,0,1-1q.2-.4,3.2-1.4a34.67,34.67,0,0,0,4.4-1.8,43.756,43.756,0,0,1,4.4-2.8q4.6-2.6,4.8-2.8,1.2-1,1.2-1.4.6-.4,4.8-2.6l1-.6a7.817,7.817,0,0,1,1.6-.6h.4l.2-.2h1.2a.815.815,0,0,0,.6.2.576.576,0,0,1,.4.2l.8.4a3.134,3.134,0,0,0,.8.6,3.149,3.149,0,0,1,.8,1.2l.4,1.2a3.29,3.29,0,0,1,.2,1v.4l-.2.2v.6a.576.576,0,0,0-.2.4l-.2.4v.2l-.2.4v.2l-.2.2v.2l-.2.2a6.291,6.291,0,0,1-.8,2.2l-1,2a28.016,28.016,0,0,1-4.2,7.6q-2.2,3-8.2,7.4a83.935,83.935,0,0,1-14.4,8.6A87.345,87.345,0,0,1,164-9.6q-1.8.6-3.4,1l-.4.2v-.2H160l-.2.2v.2l-.2.2h-.8l-.2.2-.2-.2-.4.4q0,.2.4,0v.4a1.357,1.357,0,0,0-1-.4v.4l-.2-.2V-7l-.2-.2V-7h-.2l-.8.2-.6.2.2.2h.2l-.4.4q-.2-.6-.4-.4l.2-.2v-.2l-.4.4.2.6-.2-.2v-.2a.576.576,0,0,0-.4.2v.2l-.2-.2a.576.576,0,0,1-.4.2v.2l-.2.2v-.2l.2-.2h-.6q0,.2-.4.4l-.2.2-.2-.2-.2.2h.2V-5l-.2-.2L152-5q0-.6-.2-.4l-.2.4h-.2v-.2a.576.576,0,0,0-.4.2v.2l-.2.2v-.2h-.2V-5a1.308,1.308,0,0,0-.6.6l-.2.2q-.4,0-.4-.2a.576.576,0,0,0-.4.2h-.4V-4l-.2.2a.576.576,0,0,1-.2-.4h-.4l-.2.2v.2h-.4V-4l-.2.2h.2q.2,0,.2.4-.4-.2-.6,0v-.4l-.4.4h.2a.576.576,0,0,0-.4.2v-.4q-.4-.2-.4.2v.2h-.4l.2-.2-.4.2h-.6V-3h-.2v.2a1.535,1.535,0,0,0-.6.2,1.535,1.535,0,0,1-.6.2.576.576,0,0,1,.2-.4h.4L144-3q-.2-.2-.8.2.2,0-.2-.4V-3l-.2.2h.2v.4h-.4l-.2-.2h-.2l-.2.2-.2-.2-.4.4h-.2v-.2q-.4,0-.4-.2l-.2.4h.2V-2l-.2-.2h-.2l-.2-.2q-.4.2,0,.2V-2h-.6q.2.2,1,0,0,.2-.4.2h-.6V-2h-.2v.2h-.2q0,.6-.4,0l-.4.4a.576.576,0,0,0-.4-.2v-.2l-.2-.2v.4a.576.576,0,0,0-.4.2v.2q0,.2-.4-.4l-.4.2-.2.2h-.2v-.2l-.2.2-.2-.2V-1h-.2q-.2.2-.4-.2V-1q-.2-.6-.4-.2V-1h-.2v.2h-1.2V-1l-.2.2a.576.576,0,0,1-.4.2,1.775,1.775,0,0,0-.8.2.25.25,0,0,0,0-.4h-.2q.2.4,0,.4h-.6l-1.6.2h-2l.2-.2q-.4,0-.4.2L127,0V-.4q-.2,0-.4.4l-.2-.2q-.2.2-.6-.2-.4-.2-.6,0l.4.4a5.824,5.824,0,0,1-1.4-.4V-.6l-.2.2h-.4l-.2.2a.576.576,0,0,1,.2-.4l-.6.4V-.4a.815.815,0,0,1-.6-.2q-1,.2-1.2-.2A8.923,8.923,0,0,1,118-2a8.58,8.58,0,0,1-2-1.6l-.2-.2a.576.576,0,0,0-.2-.4q-.6-.4-.6-.6a2.326,2.326,0,0,0-.4-.6v-.2l-.2-.2a7.759,7.759,0,0,0-.4-1v-.6h-.2v-3.2a2.786,2.786,0,0,1,.2-1.2v-.6l.2-.4a8.923,8.923,0,0,1,1.2-3.2v-.4l.2-.2A16.067,16.067,0,0,1,118-20v-.4a.576.576,0,0,1,.4-.2l.4-.4a.576.576,0,0,1,.4.2q-.2,0-.2.4l.2-.2v.4a9.785,9.785,0,0,1-.6,1,.576.576,0,0,1,.4-.2.25.25,0,0,1,.4,0,6.555,6.555,0,0,0-.8,1v1a5.959,5.959,0,0,0-.6.8q0,.2.4-.2V-17l.2.2q.4,0,.2-.4l.2.2a.576.576,0,0,1-.2.4l-.2.2v.2q-.4,1-.6,1.6a19.827,19.827,0,0,0,1.4-1.6,7.759,7.759,0,0,1-.4,1,4.629,4.629,0,0,1-.6,1,1.535,1.535,0,0,0-.2.6l-.8,1.2-.2.8a2.461,2.461,0,0,1-.4,1,.576.576,0,0,1,.2.4.576.576,0,0,0-.2.4.576.576,0,0,0,.2.4v1.2h.2V-8h.2v.4l1,.4q0,.2-.4-1l.4.4v.2l.2.2V-7h.4l.2-.2.2.2h-.2a2.226,2.226,0,0,0,1,.2L120-7a.641.641,0,0,1-.6-.4,1.152,1.152,0,0,1-.4-.8l-.4-.8v-.2a2.226,2.226,0,0,0-.2-1v1.6h.2v.4a.576.576,0,0,0,.2.4v.2h-.2V-8l-.2-.2v-.2h-.2V-9.6l-.2-.6a.576.576,0,0,1,.4-.2v.2a2.327,2.327,0,0,0,.4-.6q0-.6.2-.6l-.2-.2h.2l.2-.2v-.6h.4v.2q.2,0,.4-.4-.2,0,.4-1l.2.2.2-.2h-.2l-.2-.2V-14l.2-.2h.4l.2-.2v-.4q.6-.8.6-.6-.4.4,0,.4,0,.4-.2.4a2.062,2.062,0,0,0-.4.8.25.25,0,0,0,0,.4v.4q-.6,1.6-.8,2.2v.4a.576.576,0,0,1-.2.4v1h.2l.2.2h-.2l.2.2v.2a1.535,1.535,0,0,1,.6.2.815.815,0,0,0,.6.2,3.55,3.55,0,0,0,1.6.4h.2l.4.2a8.427,8.427,0,0,1,1.4.2,2.785,2.785,0,0,0,1.2-.2l.2.2h.2a.85.85,0,0,1,.8,0l.6-.2q0,.2,1,0v-.2h-1a5.47,5.47,0,0,1,1.2-.2,1.8,1.8,0,0,1,1.2,0,.815.815,0,0,1,.6-.2h1.4a.815.815,0,0,1,.6-.2.25.25,0,0,1,.4,0h.2l.2-.2,1-.2v.2a1.158,1.158,0,0,1,.8-.2q.8,0,.8-.2l.2.2q.2,0,.2-.4a2.257,2.257,0,0,0,1.6-.2V-9a4.585,4.585,0,0,1,1.4-.4l.2-.2.4.4v-.4h.4v.2h.2v-.2h-.2q.8-.2.6-.2a2.171,2.171,0,0,1,.8-.4.576.576,0,0,1-.2.4v.2l.2-.2h.2a.25.25,0,0,0,0-.4,1.535,1.535,0,0,0,.6-.2h.6v.4q.6-.8.6-.6l1.2-.2h-.2a.576.576,0,0,0,.4-.2v.2q.6,0,.4-.4a3.29,3.29,0,0,1,1,.2l-.2-.2h.2l.4-.2v.2l.2-.2h-.2a3.775,3.775,0,0,1,1.2-.2.576.576,0,0,1,.4-.2l-.2-.2h.2l.2-.2h.4a.576.576,0,0,1,.4-.2h.2l.2.2v-.2h.2a7.759,7.759,0,0,1,1-.4,2.461,2.461,0,0,0,1-.4.25.25,0,0,1,.4,0h.2v.2a2.327,2.327,0,0,0,.4-.6v.2h.2l.4-.4.2.2v.2a1.928,1.928,0,0,1,1-.8l.6-.4.8-.2.2-.2a.576.576,0,0,0,.4-.2l.4.4V-15l.2-.2a.25.25,0,0,0-.4,0q0-.2.6-.4h.4l-.4.2h.2l-.2.2.6-.2v.4l.4-.4a.576.576,0,0,1,.2-.4V-16a.576.576,0,0,1,.2-.4.576.576,0,0,0,.4-.2l.4-.2h.2l.6-.2.2-.2h.2l.4-.4v.2l.6-.4v.2a9.782,9.782,0,0,1,1-.6v.2h.2v-.2H164a.576.576,0,0,1,.4-.2v-.2h.4a2.327,2.327,0,0,0-.4.6.576.576,0,0,0,.4-.2h.4l-.2-.2v-.2l.2-.2h-.4a1.535,1.535,0,0,0,.6-.2l.2-.2.4-.2q.4,0,.4.2.2,0,0-.4.6-.2.8,0L167-20a2.915,2.915,0,0,0,1.2-.4,1.638,1.638,0,0,0,1-.6,3.007,3.007,0,0,0,1.6-1h.4l.8-.4q.4-.4.2-.4l.4.2a.576.576,0,0,1,.4-.2q.2,0,.4-.4.4-.2.6,0l.2-.4q0-.2-.4,0t-.4,0a.815.815,0,0,1,.6-.2l.4-.4v.2l.8-.4q-.2.2.4-.2h.2v-.2h.6v-.4a1.535,1.535,0,0,0,.6-.2q.4,0,.4-.2l.2.2a.641.641,0,0,1,.6-.4l-.6.6a.576.576,0,0,1,.4-.2h.2q-.4.2-.4.4a.354.354,0,0,0,.4-.4h.2v-.2a.806.806,0,0,0,.8-.4l.2.2-.6.2-.2.2v.2l-.2.2h.2a13.077,13.077,0,0,0,1.4-.8l.2-.2.6-.4-.2-.2-.2.2q-.2.4-.4.4a1.535,1.535,0,0,1-.6.2l.2-.4.8-.4q0-.6.2-.4,0,.2.4,0,.6-.4.6-.6l.2.2-.6.6h-.4v.4a11.544,11.544,0,0,1,1.6-1.2,1.535,1.535,0,0,1-.6.2q.8-1.2,1.4-1v-.4a7.817,7.817,0,0,1,1.6-.6.576.576,0,0,1,.2-.4V-30l.6-.2.4-.4a.576.576,0,0,1,.4-.2V-31q.2,0,.4-.4h.2l.2-.2q1.8-1.6,3.2-3l-.2-.2.2-.2v.4l.4-.4-.2-.2.4-.4h.6v-.2h.2V-36l.2-.2h-.2l.2-.2h.2l.2-.2q0-.2.4-.4,1.6-1.8,3-3.4l-.6.2q-8.4,3.2-8,3-7.2,3-15.2,6.6-5.4,2.4-7.6,3.2a54.264,54.264,0,0,1-8.2,2.8,54.483,54.483,0,0,1-8.6,2.2,34.7,34.7,0,0,1-4.8.4,6.575,6.575,0,0,1-1.6-.2,2.226,2.226,0,0,1-1-.2l-.4-.2-.8-.8v-.2l-.2-.2a.576.576,0,0,0-.2-.4V-25h-.2v-.6h.2V-27l.4-1.6a15.6,15.6,0,0,1,1.6-4,27.363,27.363,0,0,1,2.8-5v-.2l-.2-.2.2-.2v.4a.576.576,0,0,0,.2-.4v-.2a.576.576,0,0,1,.2-.4l.2-.2v-.2a.576.576,0,0,0,.4-.2v.2l-.2.2q1.2-1.4,2.6-3a92.316,92.316,0,0,1,13.6-13.2,17.892,17.892,0,0,0,3.2-3.2h.2a.5.5,0,0,0-.8,0h.2l-.2.2v-.2h-.4l.4-.4V-59l.8-.4.4-.4h.2v-.4h.2l.2-.2h.2v.2l.2-.2a.576.576,0,0,0,.2-.4l.2.2h.2a.25.25,0,0,1,0-.4v.4a.576.576,0,0,0,.4-.2q0-.4-.2-.4l.2-.2q.4,0,.4-.2V-62a.576.576,0,0,0-.4.2V-62q-.8.2-.6.4h.2v.2l-.4.2h-.2l-.2.2a.576.576,0,0,0-.2.4,3.508,3.508,0,0,1-1,.4v.2l-.2.2-.2-.2q-.2,0,0,.4l-.2.2a.25.25,0,0,1-.4,0v.2l-.6.2q0,.2.4,0l-.2.2h.2a.576.576,0,0,1-.2.4h.2q-.4.6-.4.4,0,.2-.4.4h-.4a.576.576,0,0,1,.4-.2V-58l.4-.4H162l-.2.2v-.4h-.2v.2h-.2l-.2.2a.25.25,0,0,0,0,.4l-.4-.2v.2l-.6.4h.4l-.2.2h-.2v-.2q0,.2-.4.2v.2l.2.2a.576.576,0,0,0-.2.4l.2-.2q0-.2.2.4l-.2.2-.2-.2v.4h-.2l-.2.2v.2h-.2v-.4h-.4a.576.576,0,0,1-.4.2.576.576,0,0,0-.2.4v-.2l-.4.6h.2l.8-.8h.2l.2.2a5.958,5.958,0,0,1-.8.6.815.815,0,0,1-.6.2l-.2.2a.576.576,0,0,1-.2.4v-.4l.2-.2v-.2q.2-.2-.4,0v.2H157q0-.2-.4,0a1.535,1.535,0,0,0-.2.6l-.2.2H156l-.2.2-.2-.2q-.2.4-.4.2v.2a.576.576,0,0,1-.4.2q.4.2.6,0l.2-.2q.2,0-.2.4l-.2.2V-53l-.8.8h-.2l-.4.4V-52l-.2.2v.6h-.4q-.4.4-.2.4-.2,0-.4.4a.815.815,0,0,1-.6.2.576.576,0,0,0-.2.4l-.2.2h-.2v.4l-.4.2v-.2h.2l.2-.2-.2-.2-.2.2-.4.6-.2.4v-.2l-.2.2h.2l-.2.2v.2l-.6.6v.2l-.2.2-.2-.2v.4q0,.2-.4.4a2.327,2.327,0,0,0-.4.6l-.2-.2v.2H148a.641.641,0,0,0-.6.4.815.815,0,0,1-.2.6l.2-.2h.2a2.327,2.327,0,0,0-.4.6H147v.4h-.2v.2l-.2.2h-.2v.4a1.638,1.638,0,0,0-.6,1h-.2l-.2.4-.2.2H145l-.2.2v-.2l-.2.2h.2v.2a3.134,3.134,0,0,0-.6.8,1.535,1.535,0,0,1,.2-.6q-.4-.2-.4,0v.2a.576.576,0,0,1-.2.4V-41l.2-.2h.2v-.2h.2v-.2a.576.576,0,0,0,.2-.4h.2l-.2-.2h.2v.2a.576.576,0,0,1,.2-.4v-.4h.2q.2-.6.2-.4l.6-.6.4-1.2h.2l.2-.2h.2l.2-.4v-.2l.2-.2v-.2l.2-.2h.2q.2-.4,0-.4a.25.25,0,0,1,.4,0V-47h.2v-.4a.576.576,0,0,1,.2-.4v.4l.2-.4.4-.4.4-.6q.2-.4.4-.4h-.2q.2,0,.4-.4l.4-.4.8-.4v-.2h.2q0,.2,1-1.4l.2.2v-.4l.4-.4h.2v-.2h.4q.2-.2,0-.6.4,0,.4.2v-.4l.2.2.4-.2h-.4a.576.576,0,0,1,.2-.4l.2-.2.8-.2v-.2h.2v-.2h.2V-55h.2v-.2l.2.2h.2l-.2-.2q0-.2.4-.4,0-.2.6-.4v-.2q.2.2.6-.4h.2a.576.576,0,0,1,.4-.2.354.354,0,0,1,.4-.4l-.2.2a.576.576,0,0,0,.4-.2v-.2a.576.576,0,0,0,.2-.4q.2.2,1-.6h.4ZM131-3.4h.2v.2q.2.2.8,0h.2l.2-.2.2.2h.4q.8-.2.6-.2l-.2-.2h.2a.576.576,0,0,1,.2.4l.2-.2h.6q.2-.4.4,0,0-.2.4-.4h-.8q.2-.4,0-.4a1.158,1.158,0,0,1,.8-.2v.2l.2-.2q.2.2.4-.2v.2q.4,0,.4-.2a1.288,1.288,0,0,0,1,0v.2H137l-.6.2h-.2a.354.354,0,0,0-.4.4h.4l1-.2q.4,0,.4-.2h.2q.2,0,.2.4l.2-.2v-.2q.6,0,.4-.2.2.2,1,0h-.2v-.2l.6-.2v.2h.8q.4-.8.6-.2.2,0,.2-.4a.25.25,0,0,0,.4,0,.576.576,0,0,0,.4-.2.806.806,0,0,1,.8-.4q0,.2-.4.2l.2.2v.2l.2-.2q.4-.2.4,0l.4-.4h-.6l-.2.2a.576.576,0,0,1,.2-.4q.4-.2.6,0v.4h.4q0-.2.4-.2L145-6l1-.6v.2q0,.4-.2.4a5.57,5.57,0,0,0,1.2-.4q-.2-.4,0-.6h.2a.576.576,0,0,0,.2.4,9.979,9.979,0,0,0,1.2-.2l-.2-.2h.6a.576.576,0,0,1,.4-.2V-7h.2l-.2-.2h.2q.6-.2.4,0,.4-.4.6-.4l.2.2.2-.2h.2l-.2.2a.576.576,0,0,0,.4-.2l-.2-.2h1L152-8l1.2-.2-.4.4h.2v.2a.576.576,0,0,0-.2.4l-.2-.2q.2-.2-.6.4v.2a1.535,1.535,0,0,1-.6.2q0,.4.2.4.4-.2.2.2l.4-.2-.2-.2q0-.2.6-.2l-.2-.2,1.2-.2v-.2l.2-.2q0-.2-.4,0a.25.25,0,0,1-.4,0q.2-.4.4-.4l-.2-.2.4-.4.2.2a.576.576,0,0,0-.2.4A.576.576,0,0,0,154-8l.2-.2h-.4a2.062,2.062,0,0,1,.8-.4v.2a2.03,2.03,0,0,0,1.6-.4H156l-.2-.2a1.638,1.638,0,0,1-1,.6v-.4q.4-.2.4,0,.2-.4.4-.2l-.2-.4q-2.2.8-4,1.4a11.4,11.4,0,0,1-2,.6h-.2l-.2.2h-.8l.2.2h-.2v-.2h-.4l-.2.4v-.4q-2.2.4-4,.6-.4-.2-.4,0H143v.2h-.2l-.2.2q.2-.4.4-.4h-.6l-.2.2v-.2q-2,.2-4.2.6h-.4l-.2.2H137V-6h-1.2l-.4.2a.576.576,0,0,1,.2.4h.4q.4-.2.4,0l.6-.2a5.47,5.47,0,0,0,1.2-.2,2.785,2.785,0,0,0,1.2-.2h.4l.2-.2.2.2h.2a.576.576,0,0,1-.4.2l-.2.2v-.2h-.2a.815.815,0,0,1-.6.2,1.775,1.775,0,0,0-.8.2H138q-.4.2-.4,0-.2,0-.2.4h.2v.2q0,.2-.6,0a.576.576,0,0,0,.4-.2q-.6-.6-.6-.4V-5h-.2l-.2-.2-1.2.4h-.6q0-.4.4-.2l-.2-.2h.2a.576.576,0,0,0,.4-.2v-.4h-.2v.4l-.2-.2h-.2v-.2h-.2l.2.2q0,.2-.8.2l.2-.2-.2-.2.6-.2-1,.2-.2.2.2.2L133-5l.2-.2v-.2l-.2-.2a.576.576,0,0,0,.2.4q-.8,0-1,.4v-.4a.815.815,0,0,0,.6-.2v-.2h-.2l-.2.2h-1.2l.4-.2a3.775,3.775,0,0,0-1.2.2h.8a.815.815,0,0,1-.6.2.815.815,0,0,0-.6.2h-.2l-.2-.2v-.2h-.2a.576.576,0,0,1-.4.2.815.815,0,0,0-.6.2l.2-.4-.2.2v-.2a.576.576,0,0,0-.2.4H128v-.2a.576.576,0,0,1,.4-.2,4.432,4.432,0,0,0-1.4.2h.4a.4.4,0,0,1-.6.2v-.2h-.4q-.4.4-.6,0h-.2l.2.2h-.6l.2-.2h-2.2a.576.576,0,0,0,.4.2.576.576,0,0,1,.4.2q0-.2.4-.2h.4v.2h.6l.2.2h-.4a8.6,8.6,0,0,1-1.6-.2h-.8l-.2-.2a2.465,2.465,0,0,1-1.4-.4,6.575,6.575,0,0,1-1.6-.2l.2.2a.576.576,0,0,1-.4-.2h-.8a.576.576,0,0,1,.4.2l.6.4-.4-.2V-5l.2.2h.2q.4.2.4.4h.2q.4-.2.4,0h.2v.2h.2l.2.2v.2H121l-.2.2a7.76,7.76,0,0,0-1-.4,1.535,1.535,0,0,0-.6-.2l-.4-.4h-.4l-1-1a2.327,2.327,0,0,1-.4-.6.576.576,0,0,0-.2-.4l-.2-.2h-.4v.2h.2a.815.815,0,0,1,.2.6.576.576,0,0,0,.4.2,1.535,1.535,0,0,0,.2.6l.2.4q0-.6.2-.4l.4.4v.4a13.546,13.546,0,0,0,2,1l1.4.6q0-.2.4-.2a.576.576,0,0,0,.4-.2l-.2-.4-.2.2a.576.576,0,0,1-.4-.2v-.2q-.2-.6-.2-.4l-.2-.2a6.013,6.013,0,0,1,1,.2h-.6a.576.576,0,0,0,.4.2l.2.2.2-.2q-.2,0,.4.2h1l-.2-.2a6.575,6.575,0,0,0,1.6.2l.2-.2a1.775,1.775,0,0,0,.8.2.576.576,0,0,1-.4.2q.8,0,.8-.2H126l.2-.2h.4l.2.2L127-4h.4a10.35,10.35,0,0,0,2.6-.2l.2.2-.2.2.6.2v-.2h.2q0,.4.2.4l-.2-.2v.4ZM184.6-23a1.535,1.535,0,0,0,.2-.6l.2.2v-.2l.2-.2h.2l.2-.4h.2l.2.2h-.2l-.4.4h.2l.2-.2a.576.576,0,0,1,.4-.2l.2-.2v-.2a.576.576,0,0,0,.4-.2q.2-.4.4-.2V-25h.2q.2,0,.4-.4l.4-.4.2.2h.2v-.2a1.535,1.535,0,0,1,.2-.6,2.171,2.171,0,0,0,.8-.4v.2a7.946,7.946,0,0,0,1.2-1,.641.641,0,0,1,.6-.4l1-1h.2l.2-.2h-.2a2.326,2.326,0,0,0,.6-.4l.4-.4a13.055,13.055,0,0,0,1.4-1.2l1.4-1.4v-.2H196l.2-.2a9.3,9.3,0,0,1-1.8,1.4,2.062,2.062,0,0,0,.8-.4l.2-.2a1.535,1.535,0,0,0-.2.6.25.25,0,0,1-.4,0q0,.2-.6.6l.2-.2v-.2l-.4.4v.2l-.2.2v.2h-.2v-.4l-.2.2v.2l-.2.2v-.2l-.2.2q-.2.4-.4.4l-.4.6a1.535,1.535,0,0,1,.2-.6l-.6.6v.2h-.6l-.2.2h.2l-.2.2v-.2a6.554,6.554,0,0,1-1,.8v.2l-.2-.2v.6a.25.25,0,0,0-.4,0v-.2l-.4.4v.2a2.327,2.327,0,0,1-.4.6q0-.2-.4,0-.2.4-.4.4,0,.2-.6.6a.25.25,0,0,0-.4,0l-.4.4v-.2h-.2v.2h.2l-.4.4v-.2q0,.2-.4.4l-.2.2-.2-.2-.2.2h-.2l-.4.4q.2.2-.2.4a.576.576,0,0,1,.2-.4,4.6,4.6,0,0,0-1.2.6l.2.2a.576.576,0,0,0-.4.2h-.2l-.2.2h-.2l-.4.4a.576.576,0,0,0-.4.2v.4h-.4l-.2.2h-.4v.4a.25.25,0,0,1-.4,0q.2.2-.2.4t-.4.4h-.2q-.4.2-.4-.2-.2,0,0,.4h-.4l-.2.2h.2a.576.576,0,0,1-.2.4v-.2h-.2l-.2.2-.6.2h-.2v.2H177a4.031,4.031,0,0,1-1.2.8l-.2-.2v.4h.4q0-.2.4-.2v-.2l.2.2q.6-.8.8-.6h.4l-.2-.2h.4l.2.2.4-.2q.2-.4,0-.6a1.535,1.535,0,0,1,.6-.2l.2-.2h.2l.2.2a3.134,3.134,0,0,1,.8-.6h-.2a1.535,1.535,0,0,1-.6.2l.4-.2.2-.2h.2v-.2l.4-.2.2-.2.4-.2h.4l-.2.2h-.4q.4.2.6,0l.8-.4v-.2l-.2-.2v-.2q.2.2.6,0a.25.25,0,0,0,0-.4q.2.2.6,0v.4q0-.2.4-.4h-.4l.2-.2A.815.815,0,0,1,184.6-23ZM162-16.6a1.535,1.535,0,0,0-.6.2h-.2l.4.4a2.327,2.327,0,0,1-.6.4h.2a79.45,79.45,0,0,0,9.6-4.6q1-.6,1.8-1l.2-.2q2.4-1.4,4.6-2.8.6-.4.4-.2,0-.2.4-.4H178q-.2.2-.4-.2l-.2.2.2.4a6.2,6.2,0,0,0-1.2.4h-.2v.2l-.2.2q-.8,0-.6.2a5.958,5.958,0,0,1-.8.6,2.327,2.327,0,0,0-.6.4l-.2.2-.6.2-.2-.2.2-.4H173v.2l-.2.2v.2l-.2.4v-.2q0,.2-.4.2H172l.2-.2.4-.2-.2-.2h-.2q0,.4-.2.4V-22l-.2.2v.2l-.2.2h.2a.576.576,0,0,0,.2.4q.2,0-.4.2V-21l-1.8.6h.2l-.4.4v-.2l-.4.4V-20l-.4.4q-.2-.4,0-.4h-.2l-.2-.2v.6l-.4.4v-.6l-1.2.8.4-.4-.2-.2a2.264,2.264,0,0,1-.8.8q.2,0,.2.4,0,.2-.4.2l.2-.2H166l-.2.2h-.2q-.4.8-.4.6l-.2.2h-.2v-.4h-.2l-.2-.2-.4.6-.2-.2q0,.2-.4.2l-.2-.2-.8.2a1.308,1.308,0,0,1-.6.6.25.25,0,0,0,.4,0v.2a1.158,1.158,0,0,0,.8-.2l-.4.4-.6.2v-.2l-.4.2h-.2Q161.6-16.2,162-16.6Zm15.2,0q2.6-1.6,5.6-3.8l-.2-.2h-.2v.2h-.2l-.4.2v.2l-.2-.2v.2q0,.4-.4,0l-.4.4h.4l-.2.2q-.4.2-.4.4h-1v.2h-.2q-.4.6-.6.4v.2h-.2a.576.576,0,0,1-.4.2v.2a1.158,1.158,0,0,1-.8.2v.2q-.4,0-.8.6H176q0,.2-.4.2h-.2l-.2.2a.641.641,0,0,0-.4.6q-.2-.2-1.4.6h-.2q0,.2-.4.2a.576.576,0,0,0-.4.2l-.2.2-.2.4q.2-.4-.2-.2v.2l-.4.4,4.2-2Zm19.2-16.6v.2q0-.2.2.4,2.8-3,5.2-5.8,1.2-1.6,2.4-3.4a19.714,19.714,0,0,0,1.6-2.6v-.4q-.2,0-.2.4a.576.576,0,0,1-.2.4l-.8,1.2L201-38q-1.8,2-3.6,3.8a.25.25,0,0,1,0,.4h-.2V-34Zm-33,21.6a.25.25,0,0,0,.4,0v.2l.2-.2a2.062,2.062,0,0,0,.8-.4,2.326,2.326,0,0,0,.6-.4l-.2.4.2-.2v-.2a.576.576,0,0,1,.4-.2.25.25,0,0,0,.4,0v.2l.2-.2h.2l.2-.2h.2l-.2-.2-.2.2a.576.576,0,0,1,.2-.4,1.535,1.535,0,0,1,.6-.2v.2h.2l.4-.4a5.57,5.57,0,0,1,1.2-.4h.2v-.2h-.2l.2-.2.2.2v-.2l.2.2.2-.2h-.2v-.2q.2.2.6,0,.2-.4.2,0l.2-.2.4-.2-.2-.2v-.2l.2-.2a.25.25,0,0,0-.4,0,.576.576,0,0,0-.2.4q-1,.4-1,.2h-.2l.2.2-.8.2V-15l-.2.2.2.2h-.2v.4l-.2-.2a.576.576,0,0,0-.4.2h.4l-.4.4v-.4l-.4.2a.25.25,0,0,0,0,.4h-.4a.25.25,0,0,0,0-.4l-.4.4q0-.2.4-.6-.2,0-.6.4-.2.4,0,.4,0,.2-.4.2a.576.576,0,0,0-.4.2l-.2-.2-.4.4V-13l.2-.2q0-.2-1,.4l-.2.2a2.062,2.062,0,0,0,.8-.4,1.308,1.308,0,0,1-.6.6H164l.2-.4H164v.2h-.2l-.4.2q.4,0,.4.2v-.2h.2v.4h-.2v.2l-.2.2Zm10.8-5.2V-17q.4-.2.4-.4h-.4l-.2-.2v.2q.2,0-.2.4l-.2-.2v-.2l-.2.2h-.2v.4l-.2.2h-.2v-.2h.4L173-17l-.2.2V-17a.576.576,0,0,1-.4.2l-.2.2q.4,0,.4.2h-.4l-.4.4a.576.576,0,0,1-.4.2l.2.2a.576.576,0,0,1,.4-.2v.2l-.2.2h.2l.2-.2h.4v-.2h-.2l.2-.2v-.2q.6.4.6.2v-.2q0-.2.8-.2,0-.2-.4-.2v-.2a.25.25,0,0,0,.4,0v.2h.4ZM156.4-9.4l.2-.2h.2l.2-.2.2.2a.576.576,0,0,0-.2.4l.4-.4h.4q-.4.2-.4.4.6-.4.8-.2l.2-.2a.815.815,0,0,0,.2-.6l-.8.4a.576.576,0,0,0,.2-.4,3.07,3.07,0,0,0,1.2-.4,2.327,2.327,0,0,0,.6-.4q-1,.4-1.6.6l-.4.2-.2.2v-.2l-2,.8h.2v.2h.2V-9l.4-.2ZM129.6-4.6h-1a.576.576,0,0,0-.2.4q0-.2-.4-.2-.2,0-2-.2l2.4-.2v.2a.576.576,0,0,0,.2-.4h.6Zm27.6-49.6.2.2H157v.4h-.2l-.2.2q-.6.4-.6.6-.4.4-.6.2a.576.576,0,0,1-.2.4v-.4a.25.25,0,0,1,.4,0,.25.25,0,0,1,0-.4q.4-.2.2-.4l.2-.2a.576.576,0,0,1,.4.2l-.2-.2.2-.2h.2q.4-.4,0-.2v-.2ZM177-69.4v.2l-.8.2v.2l-.2.2h.2l.2-.2v.4l.2.2v-.4a.25.25,0,0,0,0-.4l.2.2q0,.2.6-.4v-.2q.2-.4.4-.4,0-.4-.4-.2l-.2-.2-.2.2.2.2-.4.2Zm7.6,39a.576.576,0,0,0,.4-.2q.4-.4.6-.4h-.2v-.2h.2a9.041,9.041,0,0,0,1.2-.8.576.576,0,0,1,.4-.2,2.327,2.327,0,0,0-.4.6,2.666,2.666,0,0,0-1.2,1l-.8.4ZM122.2-3.2v.6a.576.576,0,0,0,.4-.2V-3l.2.2h.2l.4-.2q.2,0,.2.4h.2v-.6h-1.4a.576.576,0,0,1,.4-.2q0-.2-.4-.2Zm4.6.4q.4,0,.4-.2-.6,0-.2-.2h-.2l-.2-.2q0,.4-.2.4h-.8v-.4h-.4v.2h.2l.2.2h-.2l-.2.4.4.2.8-.4Zm42.6-17.8q0,.2.4,0,.4-.4.6-.4v.2l1.2-.4v-.2q-.6,0-.4-.2H171q-1.2.6-1.2.8h-.2Zm-6.6,9.4a1.535,1.535,0,0,1-.6-.2h-.4v.2l-.4.4h-.2v.2h.4v.2l.4-.4h.6q0-.2.4-.2v-.2ZM150.4-47.4q-.4.6-.6.6V-47l.4-.6.2-.2h.2a.576.576,0,0,1,.2-.4q.2,0,0-.4l.2.2.4-.4V-49h.2v-.2l.2.2-.2.2-.2.4-.4.4v-.2l-.2.2h.2v.2h-.2Zm21,33.6-.2-.2-.2.2V-14l-.2-.2v.4h-.2q0,.2-.4.2l.2-.2-.4.2-.6.6v.2ZM128-3a.906.906,0,0,0,1,.2q.6-.2.8,0a.354.354,0,0,0-.4-.4h-.2v-.2a3.273,3.273,0,0,0-.8.2V-3Zm28.4-11.2.6.2v.2l.4-.4v.2l1.2-.4a.25.25,0,0,0-.4,0h-.6l.2-.2a.576.576,0,0,0-.4.2h-.2l-.2-.2Zm26.4-6.2q1-.8,2.4-1.8H185l-.6.4-.2.2-.4.2-.4.4v-.2l-.4.4h-.2Zm23.6-25.4a.576.576,0,0,0,.2-.4v-1.2a2.326,2.326,0,0,0-.4-.6,2.326,2.326,0,0,0-.4-.6.576.576,0,0,1-.2-.4h-.2a2.327,2.327,0,0,1,.4.6,2.326,2.326,0,0,1,.4.6,1.775,1.775,0,0,1,.2.8ZM174.2-23.4v.2a.25.25,0,0,1,.4,0,2.326,2.326,0,0,1,.6-.4,2.327,2.327,0,0,0,.6-.4q-.4.2-.4,0l.2-.2.6-.2h-.6a.576.576,0,0,0-.4.2v.2l.2.2H175l-.2.2ZM127.8-3.2q.4,0,.4-.2-.2.2-.6,0v.2l.2.2h-.4v-.2a.25.25,0,0,0,0,.4v.2h.2a.25.25,0,0,1,0,.4h.6q0-.4-.2-.4-.4,0-.4-.2h.4V-3Zm51.6-66.4H179q-.2.4-.4.4h-.2l-.2.2H178a.25.25,0,0,0,.4,0l-.2.2a3.273,3.273,0,0,1,.8-.2v-.2h.4ZM140-5.6q.6,0,.6-.2.2.2.6,0h.4a.815.815,0,0,1-.6.2.815.815,0,0,0-.6.2l.2.2V-5l.2.2h-.2a.576.576,0,0,0-.4.2l.2-.2h-.2V-5l.2-.2ZM140-3q0,.2.6-.8a1.944,1.944,0,0,0-1,.4h.2V-3Zm42.2-26v.4a.576.576,0,0,0,.2-.4.815.815,0,0,0,.6-.2l-.2.2-.2.4v-.2q-.4.8-.8.2h.2ZM143-39.2a1.775,1.775,0,0,1,.2-.8q-.2,0,.4-.6v.4h.2v.2l-.2-.2-.2.8V-40Zm1.8-1a2.327,2.327,0,0,1-.4.6v-.2l.2-.2a1.535,1.535,0,0,0,.2-.6h.2a1.152,1.152,0,0,1,.4-.8v.6Zm4.8-6q-.4.2-.2.4H149a2.062,2.062,0,0,1,.4-.8h.2l.2-.2A1.535,1.535,0,0,1,149.6-46.2Zm5.6-6q-.4.4-.4.6a.576.576,0,0,0-.4.2l-.2.2v-.6h.4q.2,0,.2-.4ZM134.8-6h.4v-.2a.576.576,0,0,1,.4.2l.2-.2h.2v-.2a2.786,2.786,0,0,0-1.2.2Zm34.4-7h-.4v.2q-.4-.2-.6.4h.2l.2-.2h.2a1.535,1.535,0,0,0,.6-.2Zm36.6-31.8a.576.576,0,0,0,.4-.2l.2-.2v-.6l-.2.2-.2.4-.2.2ZM130.8-5a2.786,2.786,0,0,1,1.2-.2h.2A1.516,1.516,0,0,1,130.8-5Zm10.4-30.8L141-36a1.288,1.288,0,0,1,.6-.8.576.576,0,0,0-.2-.4h.4a.641.641,0,0,1-.4.6,1.535,1.535,0,0,0-.2.6l.2-.2v.2Zm4-6.2a.25.25,0,0,0-.4,0l.2.2v.2l.6-.6a.576.576,0,0,0-.2-.4v-.2a.25.25,0,0,0,0,.4A.576.576,0,0,1,145.2-42ZM120-14.6a4.629,4.629,0,0,0-.6,1l.2-.8v-.2l.2-.2h.2Zm85-34.6-.2-.2h-.4a.815.815,0,0,0-.6-.2l-.4.2h.8a.576.576,0,0,1,.4.2Zm-45.2,39-.4.4a.576.576,0,0,0-.2.4h.2l.4-.4ZM145-4.4q.4.2.2-.2h-.4q0-.2-.4-.2v.4l.2-.2v.2h.2l.2.2Zm-14.4-.2-.2.2-.2-.2h-.6a1.158,1.158,0,0,1,.8-.2h.2Zm7.4-.2q.2-.4.4-.4a.815.815,0,0,0,.6-.2.576.576,0,0,1-.2.4h-.2Zm18-3.4a1.535,1.535,0,0,1,.6-.2l.6-.2h-.6v-.2a2.327,2.327,0,0,1-.6.4Zm27-21q.2,0,.8-.6,0,.4-.2.4-.2.4-.4.4l-.2.2.2-.4-.2.2ZM158-9q-.2-.2-.6.2h.2a2.46,2.46,0,0,0,1-.4H158Zm-3.6,1.2q0,.2.4.2t.4-.2L155-8h-.2v.2ZM118.6-11a.815.815,0,0,1-.2.6,1.922,1.922,0,0,1,.2-1.4Zm9.8,7.4h.2a.25.25,0,0,0,.4,0l.4-.2h-1Zm47-64.4.2-.2q0-.2-.4,0a.576.576,0,0,0-.4.2l.2.2h.2V-68ZM146.8-43.4a.85.85,0,0,1,0,.8.576.576,0,0,0-.4.2l-.2.2q0-.2.4-.4Zm31.8,17a.576.576,0,0,0,.4-.2v.2l-.2.2v.2h-.4Q178.4-26.4,178.6-26.4ZM142-3.8q-.2-.4-.4-.4-.4.2-.4.4Zm20-7.8h-.6q.2.2.6,0a3.273,3.273,0,0,1,.8-.2q-.2-.2-.6,0h-.4Zm-44-.2a1.535,1.535,0,0,1-.2.6q-.2-.2.2-1.4ZM184.6-30q0,.2-.4.2l-.2.2-.2-.2a2.327,2.327,0,0,0,.6-.4v.2Zm-36-15.6a.25.25,0,0,1,.4,0l-.4.2h.2l-.4.4v-.4Zm-.4,40q0,.2,1-.2h-.8Zm12.4-51.6h.2l.2-.2h.2v.2l-.2.2v.2ZM192-27.4a9.3,9.3,0,0,0,1.8-1.4ZM118.4-5.8,118-6l.6.6a.576.576,0,0,0,.4.2Zm42.4-51q-.2.4-.4.4l-.2-.2.2-.2Zm3.8,39.2q.4,0,0,.2-.4.4-.4,0Q164.6-17.8,164.6-17.6Zm3.2,5.2q-.2-.4-.2,0v.2a.576.576,0,0,0,.4-.2h.2a.576.576,0,0,0-.2-.4v.2Zm28.2-20a1.535,1.535,0,0,1-.6.2l.6-.6ZM150.2-11.8q-.4-.2-.4,0l.2.2h.2l.2-.2V-12Zm3.6-.8a1.535,1.535,0,0,0-.6-.2l.2.4h.2ZM142.4-38.2v.2a.25.25,0,0,1,0-.4l.2-.4v.2l.2.4h-.2v-.2ZM144-5q.8,0,.8-.4Zm17.6-52.2.2-.2.4-.2v.2l-.2.2Zm14.2,39.4a.576.576,0,0,0-.2.4l.6-.2A.576.576,0,0,0,175.8-17.8Zm-5,2a.25.25,0,0,1,.4,0,1.535,1.535,0,0,0,.2-.6Zm3-51.6-.4.2v.2l.8-.4Zm-14,11.2a.576.576,0,0,1-.2-.4l-.4.4.2.2v-.2ZM123.4-4h-1v-.2h.2ZM143-4.4l-.2.2h-.2l.2.4.2-.4h.2Zm15.6-10,1.2-.6.2-.2-1.2.6Zm8.6-4.4H167a1.535,1.535,0,0,1-.6.2,2.326,2.326,0,0,1,.6-.4h.2Zm-8.4,8.6a.354.354,0,0,0,.4.4q-.2-.4,0-.4Zm-5.6-40.4h.2l.2-.2a.576.576,0,0,1-.2.4.25.25,0,0,1-.4,0Zm26.2,24.2v-.2l-.2-.2h.2q0,.2.4-.2v.2ZM152.6-12.6q.2.2.6-.2A.815.815,0,0,0,152.6-12.6ZM136-2.6q0-.2.4-.2v-.4l-.2.2Q135.8-2.8,136-2.6Zm44.6-25,.2-.2a.576.576,0,0,1,.4-.2.576.576,0,0,1-.2.4Zm-8,12.4q.4.2.6,0H173l.2-.2H173ZM137.8-6.6h.4l.2-.2h-.6ZM151-11.8q.4,0,.4-.2a.576.576,0,0,0-.4-.2Zm23.8-5.8v.2l.6-.4-.2-.2v.2ZM149.8-48a.576.576,0,0,1-.4.2v.4l.4-.4Zm14.4-11.2.4-.4h-.4v.2l-.2.2ZM191-26.4a2.327,2.327,0,0,0,.6-.4h-.4v.2H191ZM133.2-4l.2.2q-.4-.2-.4,0h-.4l.2-.2Zm8.6.4q-.4-.2-.4,0l.2.2h.2Zm11.4-6.8a7.761,7.761,0,0,0,1-.4h-.4A2.327,2.327,0,0,1,153.2-10.4ZM154.8-54q-.4.2,0,.2l.4-.2A.25.25,0,0,0,154.8-54Zm4.6,38q.2,0,.2-.4a.25.25,0,0,1,0,.4v.2h-.4ZM129.2-2.6q-.6,0-.6.2h.4Zm24.6-48q-.2-.2,0-.6Q154-51,153.8-50.6Zm19.6,28a2.327,2.327,0,0,0,.4-.6Q173.2-22.8,173.4-22.6Zm-27-21a.576.576,0,0,0-.4.2h-.2l.2.2h-.2v.2Zm6-5.8a.576.576,0,0,1-.4.2.576.576,0,0,0,.2-.4ZM140-7l1.4-.4-1.8.4Zm-20.8-.4-.2.2-.2-.2.2-.2Zm32.4,0a.4.4,0,0,0,.6-.2Zm-9.4-30.2H142V-38a.576.576,0,0,0,.4.2Zm-10.8,34,.2-.2h.2l.2.2Zm52.4-19.8h.2l.2.2h-.6Zm19.2-26a3.273,3.273,0,0,0-.8.2h.6ZM146.4-5.6q.6-.2.4-.2h-.2V-6Q146.2-5.8,146.4-5.6ZM142.2-4q-.2.4,0,.4h.2Q142.4-4,142.2-4Zm-3.8.8-.2-.2L138-3v-.2l-.2.2h.4v-.2Zm15.2-48.6a.576.576,0,0,0-.4.2v.2h.4l-.2-.2ZM181-19.4h-.6v.2h.2Zm-17.6,8-.2-.2-.2.2.2.2Zm-14.6.2h.4l.2-.2H149Zm27.6-57a1.535,1.535,0,0,0-.6.2h.6Zm-9.6,7v-.2h-.2a.576.576,0,0,1-.2.4Zm-33,57h.2q.4.2-.4.2Zm13.4-39.4q0,.4-.2.4v-.4Zm-6.4,40q0-.2.4-.2L141-4l-.4.4Zm47.4-20.8q-.2,0-.6.6Zm-4.4-50.2h-.4l-.2.2A1.535,1.535,0,0,0,183.8-74.6Zm-37.6,33a.576.576,0,0,1-.2-.4h.2Zm4.6,35.2v-.2l-.2.2.2.2.2-.2Zm38-27a.576.576,0,0,1,.4-.2l-.6.6ZM149.4-5.8l.2.2V-6h-.2ZM161-56.4l-.2-.2a.815.815,0,0,0,.6-.2Zm1.4-1.2h-.2q0-.4.4-.2ZM180-27l.6-.6v.2ZM131.8-2q.4,0,.4-.2h-.4Zm-4-1.4a.576.576,0,0,0,.4-.2v-.2ZM178-70.2v.2h.2l.2-.2ZM149.6-12l-.2.4q.2,0,.4-.4Zm6,.8q1-.4,0-.2Zm5.4.8h-.4v.2h.2ZM158.8-56a.25.25,0,0,0,0-.4l-.2.2Zm-7,6a.25.25,0,0,0-.4,0v.2Zm.6,43.2-.2.2H152v-.2Zm-32.2-8.4a.576.576,0,0,1-.2.4,2.171,2.171,0,0,1,.4-.8A.576.576,0,0,1,120.2-15.2Zm57.2-54.4-.2.2H177v-.2ZM118.6-11.8A5.57,5.57,0,0,0,119-13h.2Zm66.6-10.4,1-.8a.576.576,0,0,0-.4.2l-.4.4ZM176.4-19v.2q0-.2.6-.4l.2-.2ZM129-3.2q0,.2-.4.2Q128.6-3.2,129-3.2Zm10.4-.2q.2,0,.2-.4l-.2.2Zm10.8-1.4q-.4,0-.4.2A.576.576,0,0,0,150.2-4.8ZM149-47.2q-.4.4-.4.6Q149-47,149-47.2Zm37.8,23.6q-.4.4-.4.6a1.308,1.308,0,0,1,.6-.6ZM182.4-22q.4.4-.2.4l.2-.2ZM140.6-34.4q-.2-.2,0-.6ZM119.8-16.8a2.327,2.327,0,0,1-.4.6Zm66.4-59-.2.2V-76ZM135.4-4l-.2-.2H135l.2.2ZM130-3q.4,0,.4-.2h-.2Zm1.8,2.2h-.4l.2.2Zm45-69.6.2.2v-.4ZM152.6-50.2h.2l-.2.2h-.2ZM147.2-6.8H147v.2h.2Zm-2,.6-.2-.2.2-.2Zm45.4-20a.576.576,0,0,1,.4-.2h-.4ZM144-4.4l.2-.2h-.4Zm-2-1.2h.2v.2H142Zm-8.2,1h-.4l.4-.2Zm35-8.4.4-.2h-.4ZM128.4-.6l-.2.2h.4ZM160-9.8v.2a.576.576,0,0,1,.4-.2Zm-3,3-.4.2v-.2Zm9.6-5v-.4l-.2.2Zm12.4-59v.2h.2v-.2ZM164.2-11.4l.2.2.2-.2Zm14.4-58.2h-.4l.2.2Zm-7,54.4h-.2v.2h.2Zm-8.2-2.4h.2a.576.576,0,0,0,.2-.4ZM178.2-20a.576.576,0,0,0-.4.2h.4ZM146.6-4.8l.2-.2h-.4Zm.6-4a.576.576,0,0,0,.4-.2h-.2Zm4.6-3.4v.2h.2v-.2ZM141.8-36a1.775,1.775,0,0,1,.2-.8ZM120.4-1l.2-.2h-.4ZM143-7.8h.2V-8H143Zm3.6-3q-.6.4-.2.2h.2Zm27.8-56.8a.576.576,0,0,1,.4-.2Q174.4-67.8,174.4-67.6Zm-57,56q-.2,0,0-.4ZM167.2-19q.2-.4.4-.2ZM138.8-2q-.4,0-.4.2Zm27.4-11.6a1.535,1.535,0,0,1-.6.2h.4Zm-40.6,11a.576.576,0,0,1,.4-.2Q126-2.6,125.6-2.6Zm48.8-13.6q0,.2.4,0ZM143.2-38.8q0,.4-.2.4ZM155-13.4a.25.25,0,0,0,0,.4Zm.2,5.4a.25.25,0,0,0,.4,0ZM136.8-6.6q.4.2.4,0Zm13.4-3.2a.25.25,0,0,0,.4,0Zm1.4-2.6a.25.25,0,0,0,.4,0Zm29.8-61.2h.2l-.2.2ZM143-38.4v.2h-.2Zm34.8-32.8v-.2l.2-.2Zm-17.6,55v.2l.2-.2Zm-21,11,.2-.2h.2Zm20.2-3v-.2l-.2.2Zm30.2-17.2h-.2v.2Zm-26.2,13h-.2l.2.2Zm30-65.4.2-.2h-.2ZM151-9.8V-10l-.2.2Zm37-23-.2.2v-.2ZM177.6-19.6h.2v-.2ZM151.2-6.4v-.2l-.2.2Zm20.2-8,.2.2v-.2ZM132.8-2.2v-.2l-.2.2Zm44.8-17.4h-.2v.2ZM205-49.2a.576.576,0,0,0,.4.2A.576.576,0,0,0,205-49.2Zm-38.6-13h.2v-.2ZM131.2-3.6h.2l-.2.2Zm24.4-7.6-.2-.2v.2Zm-4.2-1.2v.2h.2Zm-3,6.2-.2.2h.2Zm-29.2-7,.2-.4-.2.6Zm56.6-57-.2.2v-.2Zm-27.6,61V-9l.2-.2Zm-17.4,5a.576.576,0,0,1-.4.2A.576.576,0,0,1,130.8-4.2Zm28.2-5v-.2l-.2.2Zm-7.8-.6a.576.576,0,0,1,.4-.2h-.2ZM169.4-15l-.2-.2v.2Zm-3.6,3.6.2-.2h-.2ZM142.6-37.8l.2-.4v.2ZM131.6-3h-.2v.2Zm40-63.8-.2.2.4-.2Zm7.6-5.6-.2.2v-.2ZM143.4-4.2l-.2-.2v.2Zm42.2-20.6h.2V-25ZM184-29l-.2.2h.2Zm5.8,3.4h-.2v.2ZM159.8-11h.2l.2-.2Zm20.4-10.2.2.2v-.2ZM164-60.6l-.2.2h.2ZM132.2-2h.2l-.2-.2Zm16-44H148v.2Zm33.6,17.8v.2h-.2ZM129.6-3.4a.576.576,0,0,0-.2-.4A.576.576,0,0,0,129.6-3.4Zm26.8-3.2a.576.576,0,0,0-.4.2l.2-.2ZM145.8-41.4l-.2-.2h.2ZM143-39.2v.2l-.2.2Zm4.4-4.6h-.2l.4-.2Zm25-22.8h-.2v.2ZM152-5l-.2.2V-5Zm24.8-65.4h-.2l.2.2Zm-30,25.6.2.2v-.2ZM131.4-2.6l.2-.2h-.2Zm23.4-11.2V-14l.2.2Zm13-5-.2-.2h.2Zm25.8-12a.576.576,0,0,0,.4-.2Zm-20-37.8a.576.576,0,0,0,.2-.4v.2ZM155-53.8l-.2.2h.2ZM168-64v-.2l-.2.2ZM149.6-9.4h.2v-.2Zm23.6-59,.2-.2v.2Zm27.2-9.8h-.2v-.2Zm-51,30,.2-.2v-.2Zm37,24h-.2v-.2Zm1.4-52q.4,0,.4-.2Zm4,49.2.2-.2h-.2ZM143.4-10.2v.2h.2ZM131.6-2.8q.4-.2,0-.2Zm12.2-36.8-.2.2v-.2ZM138-4.6q.4-.2.4,0ZM149.6-6l.2.2V-6ZM148-45.6l-.4.2.2-.2ZM134.6-2.4l-.2-.2v.2Zm32.2-9.4.2-.2v-.2ZM146.4-5.2h.2v-.2Zm-16.6-.2h-.2l.2.2ZM156.4-9h.2l-.2-.2ZM143.8-40.2v-.2h.2Zm2-1.6.2.2h-.2Zm36.2-32V-74h.2ZM163.4-17.4l-.6.4.2-.2ZM132.6-.8V-1l-.2.2Zm9.6-5.4v-.2h.2Zm7.8-42-.2.2h.2ZM143.2-39l-.2.2V-39Zm9.2-11.8h-.2v.2ZM139.6-9l-.2.2h.2Zm62.2-51.8h-.2v.2ZM184.8-23v-.2l-.2.2Zm-24,7.6.2-.2a.576.576,0,0,0-.4.2Zm27-10.8q.2-.6,0-.2Z" transform="translate(209.4 189.2)" fill="#fff"/></svg>