<svg xmlns="http://www.w3.org/2000/svg" width="510.8" height="229.6" viewBox="0 0 510.8 229.6"><path d="M-140.9,11.4q-.8.4-.8.8h-1l-.4.2q-1.8,1.6-1.2.4-.6.2-.6.4l-.4.4-.6.2-.2-.2-.4.4V12.8a2.226,2.226,0,0,0,.2-1q0-.6-1-.4l.2-.2a4.432,4.432,0,0,0,.2-1.4l-.6.8q0-.6-.4-.6V9.8h.4V9.6l.4-1.8a3.508,3.508,0,0,0-1,.4V8q-.2.4-6.4,8.8,3.6-5.4,14.6-22.6,9-13.8,14.2-22.2l.6-1.8a2.469,2.469,0,0,0,.6-1.4,3.261,3.261,0,0,0,1-1.2v.6a26.561,26.561,0,0,1,2.2-3.6,6.348,6.348,0,0,0,.4-1.8,3.538,3.538,0,0,1,1-1.6l1-2a4.813,4.813,0,0,1,1.2-1.2q-1,.2-.4,0a3.969,3.969,0,0,1,.4-1.8q8.6-15,11.2-19.2a95.573,95.573,0,0,1-13.6.2,12.033,12.033,0,0,1-1.8-.2,12.271,12.271,0,0,0-1.6-.2,143.452,143.452,0,0,0-15.8-.4q-39.2,39.4-44,44-5.6,6.2-6.8,6.8A121.255,121.255,0,0,0-203.9-.4q-.2-.2-2.4,1.4.2,0-11,11.4a18.951,18.951,0,0,1,2.8-3.6,2.326,2.326,0,0,1-.6.4q-1.2.6-.8.2-.2.2,7.6-7.8V1.2a51.267,51.267,0,0,1-4.6,4.4,53.01,53.01,0,0,0-4.2,4.6,34.428,34.428,0,0,1-3.6,3q-1,.6-.4-.4L-207.5-.8q-.4.2-.6,0,5.6-5.6,14-14.2v-.4l-2.4,2a2.326,2.326,0,0,0-.6-.4q1.4-.8,5.2-5,3.6-3.8,5.4-5.6,5.8-6.8,4.2-6l-2.2,2.6q0-.2-.6-.4-12.4,12-14.2,13.8a.576.576,0,0,1-.2-.4q1.8-2,2.8-3-1.2,1-5.4,4.4L-219.7,3.8q-1.4.6-1.6.4-2,2.2-12.2,11.8,3.2-3.4,26.4-26.2Q-191.7-26-181.9-37a8.77,8.77,0,0,0,1.6-1.6,18.031,18.031,0,0,1,1.4-2.2q1.6-1.4,3.2-3-1,.6-.2-.2a3.939,3.939,0,0,1,1-1.4l7-8.2q4-4.2,7.6-8,.2,0,1-.8l.4-.8q-3.6.2-6.2.2-5,.4-5.8,0a23.3,23.3,0,0,0-9.8-.4q0-.4-1.6-.6-2,0-4.2.2-4.8.8-4.2.6,1-.2,2.8-.6l-.6-.2q-.6-.2-.4-.4a13.711,13.711,0,0,1,2.6-.2h1.8a2.083,2.083,0,0,0,1.2-.2v-.4q-2,.2-6.4.6h-2.6q-.8-.2,0-.6a75.223,75.223,0,0,1,9.8-1.2v-.4a24.065,24.065,0,0,0,3.6-.4q4.4-.2,7-.4V-68h-1.6v-.6a35.36,35.36,0,0,1,3.6-.4,33.894,33.894,0,0,0,4.4-.8q4.4-.6,3.4-1l-1.6.2v-.8q-7.2.2-10.6.2a.576.576,0,0,1-.2-.4,17.351,17.351,0,0,0,2.4-.2,34.838,34.838,0,0,1-3.8-.6,23.623,23.623,0,0,0-6.2,0q-3,.4-7.4.8-1,0-1-.6a21.456,21.456,0,0,1-4.8.6q-1.6.2-4.6.6,1.4-.4,2.4-.6l.8-.2h.4l1.4-.4,2.8-.4,2.4-.4q1.8,0,10.4-1,12.8-.6,19.8-1.6a7.76,7.76,0,0,0,1-.4,3.432,3.432,0,0,1,1.4-.2,21.22,21.22,0,0,0,2.4-.2.641.641,0,0,1-.4-.6,2.151,2.151,0,0,1,1.2-.4q6.4-.6,10-.6,4.2-4,8.6-8.8l-.2-.4q-.4,0,3.2-3.4a1.535,1.535,0,0,1,.2.6l2.2-2.4a.576.576,0,0,0,.2.4q.8-.8,3.2-3.4,2-2.2,3-3.4l.2.2q.4-.4,2.2-2.6a12.233,12.233,0,0,0,1.6-2.2q0,.2.4.4-.4-.4,1-1.4,2.8-3.8,3.6-5.2,1.4-1.4,6-6.2,1.6-1.8,2.4-2.8l1.2-1.2a18.87,18.87,0,0,0,2.6-2.8,22.4,22.4,0,0,0,2.4-2.8q0,.2-.2,1.6-.2.6.6,0a6.546,6.546,0,0,1,.4-1.6,4.025,4.025,0,0,1,2.4-2,2.151,2.151,0,0,0,1.2-.4,7.76,7.76,0,0,0,1-.4q2.2-2.2,4.4-4,5.4-4.2,3.4-1.4-.4.8-3.4,5.6a10.608,10.608,0,0,1,2.2.6l1.2.6a48.95,48.95,0,0,0,8.6,1.2,69.183,69.183,0,0,1,8.4.6q2,0,2,.4a2.327,2.327,0,0,1,.4.6,33.373,33.373,0,0,1,5.2-6.6q2.4-2.6,1.6-.6l-2.8,8.4.2.2h3.6a1.582,1.582,0,0,1-1,.2.25.25,0,0,0,0,.4q.6.4.4.6h-2.8v.2h3.2a1.175,1.175,0,0,1,1,.6v.4h-1.2a4.6,4.6,0,0,1-.6,1.8v3a7.759,7.759,0,0,1-.4,1h.8q.4,0,.4.6.2,0,3.4.6-2,.2-4.8.2a27.983,27.983,0,0,1-2,4q-.2.4-.8,2a13.546,13.546,0,0,1-1,2l-1.8,3.6q-2.2,3.8-4.4,7.8-1.8,3.6-4,7.8a.576.576,0,0,0-.4.2v.2a59.917,59.917,0,0,0-3.2,5.6,21.878,21.878,0,0,0-1.4,2.2,3.888,3.888,0,0,0-.8,2q0-.4-.4-.2l-.4.6-1,2a.576.576,0,0,0-.4.2q-.6,1-1.8,3.2A29.081,29.081,0,0,1-87.1-66l.4-.4q-.6,1.2-.6.8-1.6,4-1.6,3.6l-.6.8a8.5,8.5,0,0,1,1.2-.8q-.6,1-2.8,5.4a65.52,65.52,0,0,0-4,6.8q-4,6-4.2,6.8-6.6,9.6-8.6,15.2a8.441,8.441,0,0,0-.8,2.6l-1.2,1.4q-1.6,1.8-2,1.4,0,4.2-5.8,11a13.992,13.992,0,0,1,1-2q-.6,0-.6.2l-.4-.2-.4.8q-.4,1,0,1.2a12.1,12.1,0,0,1-.8,1q0-.4-.6,0-.4.2-.4,0l-.2.4.2.2a9.4,9.4,0,0,1-1.2,2v.4a1.875,1.875,0,0,0-1,1.2q-.2,1.2-.4,1.2l-.4.2-.4,1.2V-5.2a5.048,5.048,0,0,1-.6,1.2l-.6,1.2h-.6v.6q-.2,0-1,2.4a6.2,6.2,0,0,1-.4,1.2V1.2l-.2.6.2-.2a6.013,6.013,0,0,0-.2,1l-.2-.4-.2.6q-.2,0-.2.4v.6l-.6-.4a1.288,1.288,0,0,0-.6.8,3.273,3.273,0,0,0-.8.2q-.2,0-.6,1.6v.2a1.535,1.535,0,0,1-.2.6q-.4,0-.4.2l-.4.8V8a.641.641,0,0,1-.6.4q-.4,1.4,0,1.2-.4.8-.6-.2-.8-1-.8-.2h-.4l.2-.2.2-.4V8.4h-.2a2.461,2.461,0,0,1,.4-1V7l-.6.8q-.4.2,0-.4l.2-.6h.2q.6-1.6.6-1.2V5.4l.2-.4v.6a.576.576,0,0,0,.2-.4,3.273,3.273,0,0,1,.2-.8q1-1.4,1.2-1.6a1.308,1.308,0,0,0,.6-.6,3.29,3.29,0,0,0,.2-1,7.947,7.947,0,0,1-1,1.2l.2-.6h-.2a1.535,1.535,0,0,1,.2-.6V1l.6-1.6q.2-2,.2-2.2h.2l.6-.2v-.4l.4-.6q0-.4.6-.8l.6-1.2.2-.2q0-.2.4-.4a1.288,1.288,0,0,0,.6-.8,19.056,19.056,0,0,1,1.8-2.8,17.242,17.242,0,0,1,2-3.2q-.2-.2-.6,0l-.2.2a83.821,83.821,0,0,0-5.8,7.4,28,28,0,0,1-1.8,2.6,5.457,5.457,0,0,0-1.4,2.6q-.2-.2-.6,0a5.339,5.339,0,0,1-1,1.4q-.2,0-.4.4a2.226,2.226,0,0,1-.2,1,1.308,1.308,0,0,1-.6.6q-.4.4-.4.6-2,2.6-4.2,6a4.29,4.29,0,0,1-.8,1l-.4.4A1.535,1.535,0,0,0-140.9,11.4Zm61.2-117.8q.4-.6,2.8-5a15.73,15.73,0,0,1-6.8-.2q-2-.2-3.4-.2v.2q0,.4-.8,0v-.4q0-.4-.6-.4v-.2h-2v-.4q-.6.2-.8,0a1.944,1.944,0,0,0-1,.4h-1.2a11.929,11.929,0,0,1-2.6,3.2q-4.2,5.4-13,16a51.9,51.9,0,0,0-7.2,7.6q-4.4,4.4-6.6,7a3.8,3.8,0,0,1,2,.2v.4q0,.2,2,.2v.4a10.661,10.661,0,0,1,2.4-.2,16.536,16.536,0,0,1,2.2-.2q.2,0,.2.4a4.16,4.16,0,0,1,1.6-.2,7.436,7.436,0,0,0,1.8-.2v.4a.806.806,0,0,1,.8-.4,10.122,10.122,0,0,0,3.4-.4q7.2-.2,7.2.2a21.878,21.878,0,0,1,2.6.2,66.866,66.866,0,0,0,4-6.6q-.6-.2,1.6-3.4,0,.2.6.2A10.835,10.835,0,0,0-89.1-90l.2.2a29.352,29.352,0,0,1,1.8-3q1.2-2.4,2-3.8a.576.576,0,0,0,.2.4,6.185,6.185,0,0,1,1.2-2.4,3.758,3.758,0,0,0,1-2.4l.2.2q-.2-.2.6-1.2Zm14.6-8.4a7.76,7.76,0,0,1,1,.4q.6-1,3.4-5.6h-1.4a9.98,9.98,0,0,0-1.2-.2l.2.2h-1q-1.4,4.6-.8,5v.2Zm-69,102q-.4,1.2-9,13.8a17.006,17.006,0,0,1,2.2-2.2V-1a6.742,6.742,0,0,0,1.2-1.8,52.856,52.856,0,0,1,3.4-5.6,20.928,20.928,0,0,0,2.6-4.6Zm8.6-9.6-.2.4a12.062,12.062,0,0,0-1.4,2.4,2.327,2.327,0,0,0,.4-.6v.6l-.4.2a6.067,6.067,0,0,0-.2,1.8,2.469,2.469,0,0,0-.6,1.4l.6-.8q0,.4,2.2-5a5.19,5.19,0,0,1,1.2-2.2,4.952,4.952,0,0,0,1-1.8h-.4a4.628,4.628,0,0,0-.6,1q-.6.6-.6.8-.4.8-1,2.2Zm-6.6,8.2a23.455,23.455,0,0,1-2.4,4.2,12.346,12.346,0,0,0-1.4,2.2q-.4,1.6,0,1.8,0-1.2,2.2-4.4Q-131.1-13.6-132.1-14.2Zm-15,27q.2,0,0,.8V14l-.2.2a1.288,1.288,0,0,0,0,1,1.158,1.158,0,0,1-.8-.2.576.576,0,0,1,.2-.4l-.2-.6h.6a4.384,4.384,0,0,0-.6-1.2Zm25.6-40-.6.6a6.648,6.648,0,0,1-.4,1.6,2.151,2.151,0,0,1-.4,1.2l.6-.6q.4-1.6.6-2.2Zm5.2,13.2,1.6-2.4-.6.4q-.2-.4-.6.6.2,0-.4,1.2Zm-17.8,2.4q1.2-1.8,1.8-2.6a4.29,4.29,0,0,1-1,.8Q-133.7-12.6-134.1-11.6ZM-144.9,10a16.827,16.827,0,0,0,2.4-2.6l-2.4,2.4Zm8.4-7q.6-.8,1-1.4l-.4-.4a5.514,5.514,0,0,1-.6,1.6Zm-11,8.4a1.729,1.729,0,0,1-.6,1.2v-.8Zm18.8-6.8a2.083,2.083,0,0,1-.2,1.2V4.4ZM-65.5-113q-.6.4-.4.4a1.152,1.152,0,0,0,.8-.4ZM-143.1,1a13.057,13.057,0,0,0-1.2,1.4,5.091,5.091,0,0,0,1.2-1.2Zm10.8,7.6q0-.2-.4-.2Q-132.7,8.8-132.3,8.6Zm-1,.6V8.6l.2.2Zm9.8-87.4h.2v-.4Zm-3,57.8.4-.8a1.535,1.535,0,0,0-.2.6Zm3-12a2.171,2.171,0,0,1,.4-.8ZM-144.9,9.2v.2l.2-.2Zm14-6.4V2.6l.2-.2Zm-15.6,2.6.2-.2h-.2Zm5.6,6a.815.815,0,0,1,.2-.6A.815.815,0,0,1-140.9,11.4Zm9-6.8-.2.4A.576.576,0,0,1-131.9,4.6Zm88.6-26-.2.2h.2a2.327,2.327,0,0,0,.6.4h-.2l.8.2q-.2.6-.8-.2h-.4a.25.25,0,0,0-.4,0,.815.815,0,0,0-.6-.2,3.29,3.29,0,0,1-1,.2l-.2.2h.2q-.2.2-.6,0a7.839,7.839,0,0,0-1.8.8l-1,.2q.2,0,.4.4-3.2,1.6-4.4,1.4v-.4h-.2l-.8.8a1.944,1.944,0,0,1,1-.4q1,.4.4.6l-1.6.4h-.4v.2a1.535,1.535,0,0,1-.6.2,4.461,4.461,0,0,1-1.6.6,9.043,9.043,0,0,1-1.2.8h-.2a10.288,10.288,0,0,1-2,.8,2.171,2.171,0,0,1-.4.8q-.2-.2-1.2.6a2.935,2.935,0,0,1-1.6.8v.2q-.4.2-4,1.6-2.6,1-4.2,1.8-.2-.2-1.6,0a20.752,20.752,0,0,1-2.4.8q-.2.4.4.2a6.013,6.013,0,0,1,1-.2,1.308,1.308,0,0,0-.6.6q0,.2-1,.4v-.2q0-.2-.6.2v.4l-1-.2q-1.2.6-3.4,1.6a18.791,18.791,0,0,0-3.4,1.4l-.2-.2q-.2,0-1.4.2a4.708,4.708,0,0,0-1.8.6h.4a3.586,3.586,0,0,1-1.8.6,9.492,9.492,0,0,0-2.2.2l1.6-.6h-.6l.4-.2V-3h-.6q.6-.2,3-1.2l-.2-.2-1.8.4-.2.2h.4q-.8.2-.6.2a23.488,23.488,0,0,0-2.8,1,15.826,15.826,0,0,1-2,.6l-.8.4a.576.576,0,0,0-.4.2l.6-.2h.4a.576.576,0,0,1,.4-.2v.2h.2l.4-.2.8-.2a1.535,1.535,0,0,1-.6.2h.2a7.567,7.567,0,0,1-2.8.8h-.4v.2h-1.6a5.989,5.989,0,0,1-2.2,0h.6l-.4-.2h-.2l-.6-.2h-1l-.2-.2a.641.641,0,0,1-.4-.6q-1.2,1.4-1.8,2l-7.8-9.4,7-8.6q.8-1,29.8-37.4,2-2.6,4.6-5.8,2-2.6,2.4-3v-.2l.4-.2.4-.4a.815.815,0,0,1,.2-.6l.2-.6a.576.576,0,0,1,.4.2,4.29,4.29,0,0,1,.8-1l.6-1.2h.4A19.273,19.273,0,0,1-63.5-70q.6-1,1-1.6v-.2h.4a1.152,1.152,0,0,1,.4-.8q.6-.4.6-.8a6.554,6.554,0,0,0,.8-1q.4-.6.6-.6,3.8-5,3.6-4.8l-.2-.2-2,2.6a.576.576,0,0,0-.2-.4q-.6.8-8,10.4-5.2,6.8-8,10.2a.576.576,0,0,0-.4-.2l1.8-2.4q.8-1,1.4-1.8-1.6,2-6,7-.8.8-19.4,25.4-1.2,1.8-1.6,1.4-1.2,2-11.6,15.6,6.2-8.4,40.4-55.6,32.6-40.8,56.8-71.6,35.6-45,48.4-62.2h4.8a36.306,36.306,0,0,1,4.2-1.6,168.758,168.758,0,0,0,21.8-9.6l-.2.4a12.1,12.1,0,0,1-1,.8,9.98,9.98,0,0,0-.2,1.2,4.4,4.4,0,0,0-.8,1.8,7.877,7.877,0,0,1-.8,1.6q-.8,1-.6.4.2-.8-.2-.4a2.062,2.062,0,0,0-.4.8v.6h-.8q-.4.6-.2.6v.2q-.4.6-.2.6a1.535,1.535,0,0,0-.2.6l.4-.4q.4-.2,0,.2a15.718,15.718,0,0,0-2.2,2.8q-1.2,1.8-2,2.8l.4-.2q-.6.6-.6.8l-1.4,1.4a13.425,13.425,0,0,0-2,2.4l.8-.6-1.2,1.2h.4a21.629,21.629,0,0,1-2.8,3.2l.2.2-.8.6.4-.2-1.2,1.2a2.666,2.666,0,0,0-1,1.2.641.641,0,0,1,.6-.4h.4l-2.4,2q.2.2-.2.6l.2.2-.8.6h.2a21.432,21.432,0,0,1-4.4,4.8,27.261,27.261,0,0,0-4,5.2l-2,1.8a1.535,1.535,0,0,1-.2.6,1.158,1.158,0,0,1-.2.8q.2.8-1.6,1.4v.2h.4a27.987,27.987,0,0,1-2.2,2.8q-1,1.2-1.8,2,.6-1.2,1.8-3.2a21.82,21.82,0,0,0-1.6,1.8,21.878,21.878,0,0,1-1.4,2.2l.8-.8a4.959,4.959,0,0,1-1.4,2q-1,1-1,1.4a6.1,6.1,0,0,1-1.6,1.4L23.9-158l.8-.2-.8,1.2-.4-.2q-.6.6-.4.8a11.714,11.714,0,0,0-1.6,1.4l-1.4,1.4v.4l-.4.2a2.062,2.062,0,0,1-.4.8l-.2.6q1.2-1,1-1.2.6-.2,0,.6a5.958,5.958,0,0,0-.6.8l-.6.6v-.2l-.6.6a2.55,2.55,0,0,1-1.2,1.2,1.281,1.281,0,0,0-.8,1.2l-.4-.2-.4,1.2q-.4-.2-1,.4-.6.8-1,.6-.6.6-.2.4h.4a13.976,13.976,0,0,1-1.6,1.8q-1,1-1,1.2a9.7,9.7,0,0,0-1.4,1.2,11.692,11.692,0,0,1-1,1.2l.4.2q-1.2.8-1.2,1h.2q-1.2,1.4-3.2,3.6.4.2,1-.4a7.428,7.428,0,0,1-1.8,2,25.969,25.969,0,0,0-2.2,2.4h.2l-1,.8.4.2q-2.6,3.4-4,4v.4l.2.2A59.379,59.379,0,0,0-6.9-121l-2,2a2.785,2.785,0,0,1-.2,1.2q-.2-.2-1,1.2-1,1.2-1.4,1.6l.2.2-7,8q-.4-.2-1.8,1.2a14.9,14.9,0,0,1-2.2,2.2q.2.4.6-.2.6-.6.8-.6a.815.815,0,0,0-.2.6q0,.4-.8,1h.2q-.4.2-.4,0-.2-.2-.6.6l.2.4-1,.4q-.8,1.2-2.8,3.6-1.8,2.2-2.8,3.6-.2.2,0-.4L-30.5-93a7.358,7.358,0,0,0-1.4,1.8l.4-.2a11.491,11.491,0,0,1-1.8,1.8l-1.4,1.4a5.576,5.576,0,0,0,.8-1.4.576.576,0,0,0-.4.2v-.2a.576.576,0,0,0-.2.4v.4h-.4a1.944,1.944,0,0,0-.4,1h-.2v-.4l-.2.2q-.4.6-.8.6a3.134,3.134,0,0,0-.6.8v.2q-.4.2-.2.4-2,3-2.4,2.8-.8,1-1.2,1.6a1.308,1.308,0,0,0-.6.6.641.641,0,0,1-.6.4q.4-1.4,1-1.6a.576.576,0,0,0-.2-.4.576.576,0,0,1,.2-.4l-.2-.2a2.327,2.327,0,0,1-.4.6,2.461,2.461,0,0,0-.4,1l-.4.8q0-.4-.6-.4v.6q-.4.4-.6.2a12.29,12.29,0,0,1-2,3h-.2q-.2,0,0-.4V-78a1.927,1.927,0,0,1,1-.8,6.688,6.688,0,0,1,1.6-2.6,3.148,3.148,0,0,0,.8-1.2q.2,0,.2.4v.2a1,1,0,0,0,.2-1q.8-.6.4-.6a4.7,4.7,0,0,0,1-1.6q0,.2.4-.4a3.134,3.134,0,0,0,.6-.8l.4.2a10.351,10.351,0,0,1,1.4-2.2,3.508,3.508,0,0,1-1,.4q-.6,1-1,.8a3.134,3.134,0,0,1-.8.6l-.2.4q.2.4-.4,1.2-.4,1-.8.8a9.784,9.784,0,0,1,.6-1h-.2l-.6.6q-1,.6-.8,1.2h-.2a.576.576,0,0,0-.4.2v.2a.576.576,0,0,1-.2.4h.6l-.4.4a1.775,1.775,0,0,1-.2.8h.2v.4l-.2.2q-.4,0,0-.6l-.2.2-.4.2a13,13,0,0,1-1.6,2.8l-.2.2q0,.6-.6,0l.2-.4q-.2,0,0-.4a5.958,5.958,0,0,0-.6.8,2.062,2.062,0,0,0-.4.8l-.2.2h-.2a.815.815,0,0,0-.2.6h-.2a14.113,14.113,0,0,0-1,1.4l-.2.2h.2l.4-.2h.4l-.6.8h-.2a.25.25,0,0,0,0,.4l-.2.2v.2h-.2l-.4.6-.2-.2-.2.6h.2a2.327,2.327,0,0,0-.6.4q-.2,0-.6.4l.2.2a1.535,1.535,0,0,0-.6.2l-.2.2v1h.2l-.2.4a.576.576,0,0,0,.4-.2l.4-.4a1.535,1.535,0,0,1-.2.6q-.2.4,0,.6a1.308,1.308,0,0,0-.6.6,2.165,2.165,0,0,1-.8,1q.6,0,1.2-1.2,0,.4.4-.2a3.5,3.5,0,0,1-1,1.8,6.185,6.185,0,0,1-1.2,2.4q-.4-.2-.4.4-.2.6-.6.2a2.327,2.327,0,0,0,.4-.6,2.28,2.28,0,0,0-.8,1.2q-1,1.2-1.2,1.4-.4-.2,0-.4l.2-.6q-.2-.2-.6.4l-.4.4a5.958,5.958,0,0,0-.6.8l-.4.6q.2,0,1-.8,0,.4-1,1.4a5.2,5.2,0,0,0-.8,1.4l-2.2,3.4a3.273,3.273,0,0,1,.8-.2,1.272,1.272,0,0,1,1-.8l.2-.2v-.2q.4-.2.6,0,0-.2.6-.4t.6-.6q.8,0,.8-.2h.4l.8-.8q4.8-3.8,7.6-5.6-.2.6.2-.2t.2,0l.8-.6,1-.6V-66l.6-.6a5.959,5.959,0,0,1,.6-.8,2.881,2.881,0,0,1,2-1q.2.2.8-.4.6-.4.4,0a19.641,19.641,0,0,1,3.4-2.4l1.6-.8a9.99,9.99,0,0,0,1.8-.8,1.775,1.775,0,0,1,.8-.2l.4-.2a.576.576,0,0,1,.4-.2,1.944,1.944,0,0,0,1-.4,7.761,7.761,0,0,0,1-.4,7.761,7.761,0,0,0,1-.4l.2-.2h.2l.6-.2.8-.2.2-.2h.2l.2-.2q.8-.4.8-.2l.2-.2h.2l.6-.2h.8l-.4-.4-.2-.4q.6.4,2.4-.4,1.4-.6,1.4,0h-.2q-.2.6.8.4h1.6a.641.641,0,0,0-.4-.6,3.48,3.48,0,0,0,1.4-.6,45.736,45.736,0,0,0,4.8.4q3,0,4.2,1.2a.576.576,0,0,0,.4-.2,1.775,1.775,0,0,1,.8-.2,26.962,26.962,0,0,0,2.8,1.4,2.062,2.062,0,0,1,.8.4q-.2-.2.8.2a6.807,6.807,0,0,1,1.8.8l.8.4a5.957,5.957,0,0,1,.8.6,1.288,1.288,0,0,1,.8.6q.4.2.4.4l.4.4a1.308,1.308,0,0,1,.6.6.576.576,0,0,0,.4.2,4.962,4.962,0,0,1,1.4.6q.4.8,0,.6t-.2.2a2.327,2.327,0,0,0,.4.6.576.576,0,0,1,.4.2v.2a.576.576,0,0,1-.2.4q.4.6.6.4h.2q.2.4.2,0-.2-.6,0-.8A1.612,1.612,0,0,0,5.9-67l1.4,2.4a14.4,14.4,0,0,1,.8,3v-.2h.2v.8l.2-.2q0,.4-.2,2v1.6H8.1v.8l-.2.6.4-.8v.2l-.2.6-.4.8h.4l-.2.2a.576.576,0,0,1-.2.4l-.2.4a.576.576,0,0,0-.2.4,6.519,6.519,0,0,1-1.2,2l.4.2-.4.4a.576.576,0,0,0-.4.2h.4l-1,1a6.555,6.555,0,0,0-1,.8.85.85,0,0,1,.8,0q0,.2-.4.4l-.6.6-1,.6a1.535,1.535,0,0,1-.2.6v.2l-.8.4.2.2a22.015,22.015,0,0,1-4.6,3.2,18.191,18.191,0,0,0-4.6,3h.2l-1.2.4a7.76,7.76,0,0,0-1,.4.576.576,0,0,1-.2.4.354.354,0,0,1,.4.4h-.2q.2,0-.2-.4a3.134,3.134,0,0,1-.6.8q0-.4-.8.2l.8.4v-.2a1.2,1.2,0,0,1,.8.8q-.8-.4-1.8-.8h-.6q-.2.4,0,.4h.4q-1,.6-2.6,1.4-1.8.8-2.6,1.2A29.208,29.208,0,0,1-13.5-37q-.8.4-1.8,1t-1.8,1l1-.2A4.123,4.123,0,0,1-17.7-34a2.171,2.171,0,0,0-.8.4h-.2v.2h-.2a3.434,3.434,0,0,1-1.8.6,4.708,4.708,0,0,0-1.8.6l.8.4-.6.2a2.327,2.327,0,0,0-.6.4l-.2-.4q-.6.2-.6.4a4.61,4.61,0,0,0-1.6.4,6.348,6.348,0,0,1-1.8.4v.4l-.4-.2q0,.2-.4.6-.6.4-.4.4,1.2-.2,1.2-.4.6,0-.4.4a3.273,3.273,0,0,0-.8.2,2.327,2.327,0,0,0-.6.4q.4-.4,0-.2h-.6l.2.2a6.2,6.2,0,0,1-1.4.4.784.784,0,0,0-.8.6l-.4-.4-.8.8q-.2-.4-.8-.2-.6.4-.8,0-.6.4-.2.4l.2.2-1.8.6q-.4.4-.6.4l-.4.4a5.048,5.048,0,0,0-1.2.6,4.605,4.605,0,0,0-1.2.6v.2a4.605,4.605,0,0,0-1.2.6,2.327,2.327,0,0,1-.6.4q3.8.4,7.8.6,2.2,0,10.6-.8l5.2-.4,5.2-.8h.2l.8-.2q1.2-.2,1-.2h.8l1-.2,2.8-.6.6-.2h.4a.576.576,0,0,0,.4-.2h.2l1.2-.4h.4a2.226,2.226,0,0,1,1-.2l.2-.2h.6q-.6,0,4.8-1.6l-.2.2a.576.576,0,0,0-.4.2,1.535,1.535,0,0,1-.6.2h.2l-.6.2h.2l.6-.2a7.76,7.76,0,0,1-1,.4.815.815,0,0,1-.6.2H.9L.7-27H.9l-.2.2V-27l-.2.2H-.1v.2l-.2.2H-.9l.2-.2H-.9v.2h-.4l.4-.2h-.2q.2,0-.4.2h.2l-.4.4h.2l.2-.2h.2l-.2.2-.4.2q-1.2.4-1,.2l.8-.2.2-.2h-1l.2-.2-.4.2h.2l-.2.2q.4-.2.4,0l-.8.2.2-.2h-.2q.2-.4-.2,0h.2l-.8.2h-.2v.4l.2-.2h.2a.576.576,0,0,0-.4.2l-.6.2a1.535,1.535,0,0,1-.6.2h-.2a7.76,7.76,0,0,1-1,.4,2.171,2.171,0,0,1,.8-.4l-.6.2v-.2h-.2l-.2.2h.2l-.2.2h-.2v-.2l.4-.2h-.2l-.6.2h-.2l-.8.2h-.2l.6-.2h-.4a1.535,1.535,0,0,1-.6.2h.2v.2h.2l-.4.2h-.2l-.4.2h.4l-.2.2h-.8a.576.576,0,0,1-.4.2q-.4,0-.4.2h-.8a3.29,3.29,0,0,1-1,.2,1.535,1.535,0,0,0,.6-.2h-1a.653.653,0,0,1,.8-.2h.2v.2a3.273,3.273,0,0,0,.8-.2,3.29,3.29,0,0,1,1-.2h-.2l.8-.4a.576.576,0,0,0,.4-.2h-.4a.576.576,0,0,1-.4.2q-.8.2-.6.2h-.8q.4-.4-.2,0h.2a1.535,1.535,0,0,1-.6.2h-.2a.25.25,0,0,1-.4,0,2.915,2.915,0,0,1-1.2.4v-.2h-.2v.2h-.4l.4-.2h-.4l-.2.2h.2a.576.576,0,0,1-.4.2q.2-.2-.4,0h-.2q-.4,0-.4.2V-23h-.4l-.4.2h.6v.2h.2v-.2h.2v.2l-.2.2h-.8a1.535,1.535,0,0,0,.6-.2h-1v-.2h-.2l-.2.2h.2a.576.576,0,0,0-.4.2h-.4q-.4.2-.4,0a6.013,6.013,0,0,0-1,.2q-1,.2-1,0h.2l.2-.2h-.4a.815.815,0,0,0-.6.2v-.2h-.2v-.2h-.2l.2.2-.4.2h-.4v.2h.2a.576.576,0,0,0,.4-.2h1l-.2.2h-.8a3.273,3.273,0,0,1-.8.2,13.837,13.837,0,0,1-1.6.4l.4-.2h-1.4q1-.2.8-.2h.4V-22h.4l-.2.2v.2h.6l.6-.2h-1V-22h.4q-.2-.6-.6-.2h-.8l.2-.2a.576.576,0,0,0-.4.2q-.8.2-.4.2h.6l-.2.2h-1.2l.2.2h.4a.576.576,0,0,1-.4.2h-.6a1.582,1.582,0,0,0-1,.2h-.6a1.775,1.775,0,0,1-.8.2h-1q-1.4.8-1,.2h-.8V-21h.6v.2q0-.2.4-.2,0-.2.4,0h.2l-.2-.2v-.2h.4l-.4-.2-.2.2v-.2l-.2.2h.4a3.273,3.273,0,0,1-.8.2l.2-.2v-.2l-.2.2h-.2l-.2-.2-.2.2q0,.4-.4,0h-.8v-.2h-1.8q.2.2-.6,0h-1v.2h.4v.2l.2-.2h1.2a.576.576,0,0,0,.2.4h-.2v.2h.2l-.2.2h-.6l.2-.2h.2v-.4h-.2v.2h-.6q-.8-.2-.6,0l-.2.2h.2q1,0,1,.2h-.8a1.535,1.535,0,0,1-.6-.2V-21l.2-.2h-.4l.2-.2v-.2h-1v-.2l-.2.2h-.4v-.2h-.2l.2.2h-.6l.2.2h.2l.2-.2v.2h.2q0-.2.6,0h-.2l.2.2h-.2l-.2.2v.2h-.2V-21l-.2.2h.2v.2l-.2-.2v.2h-.2l.2-.2-.2-.2h-.4l-.2.2v.2h-.4v-.2h-.4l.2.2q-.4,0-.4-.2a3.775,3.775,0,0,1-1.2.2v-.2l.2-.2.2.2h.4q-.4-.2-.4-.4h-.4v.2h-.2l.2-.2q-1.2-.4-.8,0l-.2.2q-.8-.2-.4-.2a1.535,1.535,0,0,0-.6-.2v-.2h-.2v.2l.2.2h-.2a.576.576,0,0,1,.4.2q-.4,0-.4-.2Zm-5.6-32.4a3.273,3.273,0,0,1-.8.2q-.4,0-.4.2l.2.4.2-.2-.4.6v-.2q-.4.6-.4.4v-.2l-.2.2q0-.2-.4-.2h-.2l-.2.2q-.2,0-.2.4l-.2-.2v.2l-.2.2V-52q-1.6,1.4-1.6,1.2-.2,0-.6.4l-.6.6V-50a1.2,1.2,0,0,0-.8.8l.2.6v.2l-.2.2-.2-.2a.815.815,0,0,0-.2.6q0-.6-.8-.4a2.327,2.327,0,0,0-.4.6,2.327,2.327,0,0,1-.6.4l-.4-.2v.4l-1.4,1.4h-.2v.2a5.579,5.579,0,0,0-2,1.2q-.2-.2-.4.2h.2a12.347,12.347,0,0,0-2.2,1.4v.4q.2-.4-.4-.2.6-.6.6-.8h-.4v.4l-1.2.8-.4.4a6.155,6.155,0,0,0-1,3.6v.2a17.9,17.9,0,0,1,2.2-1.6L-66.3-38a3.134,3.134,0,0,0-.8.6l.4.8,1.4,2,1.6,1.6,1.6,1.8a32.414,32.414,0,0,0,8.2,4.8q5.2-3.2,17.4-11h-.2a29.359,29.359,0,0,0,5.6-3.4h.2a11.693,11.693,0,0,0,1.2-1v.2l1-.8a5.876,5.876,0,0,0-1.4.2l.4-.6a1.582,1.582,0,0,1,1,.2l.6-.4-.2.2q1.6-1.2,2.6-2a9.5,9.5,0,0,0,2.4-2,32.076,32.076,0,0,0,4.2-4.6A8.984,8.984,0,0,0-16.9-53a10.3,10.3,0,0,1,2.4-1.8q3.4-2,3.4-3.8a1.938,1.938,0,0,0-1.4-1.8h-.4l-.2-.2a.576.576,0,0,1-.4-.2h-.4l-.4-.2a1.535,1.535,0,0,1-.6-.2l-.8-.2a15.521,15.521,0,0,0-2-.8h-.2v-.2a1.535,1.535,0,0,0-.6.2l-.6.2h-.8l-.2.2a.25.25,0,0,1-.4,0h-1.4l.2.2q-.8,0-2.8.2a21.22,21.22,0,0,1-2.4.2h-.6q.2,0-.6.4-.2.2-.6,0,0-.4-.4,0a3.273,3.273,0,0,1-1.8.4,3.24,3.24,0,0,0-2,.6V-60l-.4.2.2.2h-.4q-.4.2-.4,0h-.4l-.2.2a5.47,5.47,0,0,0-1.2.2,3.273,3.273,0,0,1-.8.2l-.2.2a3.07,3.07,0,0,0-1.2.4.576.576,0,0,0-.4.2q-.4.2-.6,0,.4-.2-3,1.6-1.6.6-1.8.4a7.76,7.76,0,0,1-1,.4q-.6.6-.8.6,0,.4-.8,0v.4q-.4,0-.4.2v-.2a.815.815,0,0,0-.6.2,1.535,1.535,0,0,0-.6.2h-.2l-.2.2v-.2l-.2.2a.815.815,0,0,0-.6.2v.2Zm-38,36.6.2-.4-.4.2q1-.6,2.8-1.8a13.992,13.992,0,0,1,2-1,11.341,11.341,0,0,0-2.2,4.6,8.766,8.766,0,0,1-1.6.8l-.2.4v.4a3.02,3.02,0,0,0-1.8.8,4.123,4.123,0,0,1-1.6.8l.4.2-1.4.8-1.2.8.4-.2h.2A59.3,59.3,0,0,1-83.1-13a22.059,22.059,0,0,0-4.6,1.8.4.4,0,0,1-.2.6.4.4,0,0,0-.2.6.576.576,0,0,0-.4.2q-1,.4-2.6,1.2l-2.6,1v.2a1.535,1.535,0,0,1,.6-.2,33.636,33.636,0,0,0,4-1.6q.2.2-1.4.8-1.6.8-3.8,1.8-2,.8-3.2,1.2l-.4.4h.2a3.273,3.273,0,0,0,.8-.2l.6-.2A10.974,10.974,0,0,0-94.9-6a23.487,23.487,0,0,0,2.8-1q2.4-1,5.6-2.6,9.6-4.4,10.6-4.8,4.6-2.2,10.2-5.2,2.6-1.4,5-2.8.4-.2,1.4-.8h-.2l.2-.2h.2a.576.576,0,0,1,.4-.2v-.2h-.4l-.2-.2v-.2a.906.906,0,0,1-1-.2v-.2h-.2l-.2-.2q-.8,0-.8-.4h-.4a1.152,1.152,0,0,0-.8-.4l-.4-.4a7.76,7.76,0,0,1-1-.4h-.2l.6.4q-.2.4.4.2a.815.815,0,0,0,.2.6v.2h.8l.2.2v.2l-1-.4-.4-.4q-.4-.2-.4-.4-.2.2-.6-.4h-.2a.576.576,0,0,0-.4-.2,5.958,5.958,0,0,0-.8-.6l-.6-.4v-.2l-.2.2a1.535,1.535,0,0,0-.2-.6h-.2a1.822,1.822,0,0,0-1-1v-.2h-.2l-.2-.2a3.507,3.507,0,0,1-1.2-1.4q-.2,0-.6-.8a2.264,2.264,0,0,0-.8-.8.815.815,0,0,1-.2-.6l-.8.4-2.2,2.2q0-.2-.4,0a10.9,10.9,0,0,1-1.8,2l.8-.4-.2.2q-2.4,1.8-4,3.2a14.142,14.142,0,0,0-2,2,3.571,3.571,0,0,0-1,1q-.2.4-.4.4l-2.2,2.2a16.448,16.448,0,0,0,2.4-1.4l-2,1.6-.8.6a10,10,0,0,1-1.4,1l-.6.6q0,.2-.6.6l.4-.2v.2l.2-.2ZM50.5-194.8q.8-.2,1.6-1.6t1.2-2.2l-.2.2q-.4.4-.4,0h-.2q-.4.4-3.2,3.4a.576.576,0,0,0,.2.4q0,.2-.4.2a.576.576,0,0,0-.4.2,4.628,4.628,0,0,0-.6,1,.806.806,0,0,1-.8.4q.2,0-.8,1.4-.2,0-.6.4-.4.6-.6.6a25.017,25.017,0,0,1-2.4,3.2,19.657,19.657,0,0,0-2,2.6,1.152,1.152,0,0,1-.8.4,1.612,1.612,0,0,1-.8,1.2,2.517,2.517,0,0,0-1,1.4,12.107,12.107,0,0,0-.8,1,1.927,1.927,0,0,1-1,.8v.8a.576.576,0,0,1-.4.2h-.4a20.237,20.237,0,0,1-3.2,4,1.866,1.866,0,0,1-1.4,1.4,6.649,6.649,0,0,1-1.8,2.8,21.44,21.44,0,0,0-2.2,3l-.4-.2a2.168,2.168,0,0,1-1,1.6q-1,1-.8,1.6a4.528,4.528,0,0,0-1.6,1.6.576.576,0,0,1-.2.4q-.2.4-.4.4v.6l-.2-.2q0,.2-.4.2,0,.4.4.2.4,0,.4.2a15.783,15.783,0,0,0,2.4-2.8,9.527,9.527,0,0,1,2.8-2.6,1.152,1.152,0,0,0-.8.4,2.062,2.062,0,0,1-.8.4l.4-.4,4-3.4h-.8a3.433,3.433,0,0,0,1-1,9.784,9.784,0,0,1,.6-1l.2.2q.6-.6.4-.8t0-.6a1.822,1.822,0,0,0,1-1,2.194,2.194,0,0,1,.8-1.4h-.2a10.273,10.273,0,0,0,2-2.4q1.2-2.2,1.4-2.6v1l1.2-1.4.2-.4q.2-.4-.2-.2a5.957,5.957,0,0,0-.6.8v-.4q1.2-1,1-.4a9.978,9.978,0,0,0-.2,1.2,7.945,7.945,0,0,1,1-1.2q.8-.4.8-.6t-.6.2q-.6.2-.4-.4a4.923,4.923,0,0,1,2.8-2.6,5.463,5.463,0,0,1,1.4-2.6q1.2-1.4,1-1.8h.2l.4-.4h-.2a1.285,1.285,0,0,1,1-1,5.958,5.958,0,0,0,.8-.6h-.6q.8-.8,2.2-2a4.568,4.568,0,0,0,1.8-2.2l-.2.2q-.4.2.6-.8ZM-78.5-32.6q-2,2.6-4.2,5.2-.6.8-1.8,2.8a1.535,1.535,0,0,1,.6-.2,14.112,14.112,0,0,1,1.4-1l3-3q.2-.2,3-2.2a14.152,14.152,0,0,0,2.6-2.2h.2a3.261,3.261,0,0,0,1.2-1h.2a8.475,8.475,0,0,1-.8-2.4l-.2-.2-.4.2v.2h-.4l-.4.2q-.2,0-.4.4a1.535,1.535,0,0,1-.6.2ZM-89.9-15.4A30.479,30.479,0,0,0-92.1-13a2.469,2.469,0,0,1,1.4-.6,1.927,1.927,0,0,0-1,.8l-.6.2-.8.8,1.2-.8q-.4.6-.2.8,0-.2,1-.6a4.605,4.605,0,0,0,1.2-.6v.4a1.152,1.152,0,0,0,.8-.4,3.134,3.134,0,0,1,.8-.6q.2-.2-.2-.4.2,0,.6-.4a2.165,2.165,0,0,0,1-.8q-.4-.2-1,.4a3.419,3.419,0,0,1-1.6.6l1.4-.6q.2-.6-.8,0-1.2.8-1.2.4.2-.6,1.4-1a1.37,1.37,0,0,0,1.2-1Q-89.7-15.8-89.9-15.4ZM13.5-148.8a11.8,11.8,0,0,0,2-2.2,4.544,4.544,0,0,1,2-1.8,6.013,6.013,0,0,1-.2-1,9.164,9.164,0,0,1-1.6,1.4.576.576,0,0,1-.4.2q-.8.8-.6,1.4,0,.6-1,1.2-.4-.4.8-1.4a2.061,2.061,0,0,0-.8.4,8.311,8.311,0,0,0-1.2,1.6l-.4-.2v.2a.815.815,0,0,1-.2.6v.2a2.327,2.327,0,0,0,.6-.4h.8Zm-36.4,44.6q-.2,0,1.6-1.6v-.2l-.2.2h-.2v.2l-.6.4q0,.2-.6.8a1.288,1.288,0,0,0-.6.8v-.2a.576.576,0,0,0-.2.4l.2.2a.653.653,0,0,1-.8.2.576.576,0,0,0-.4.2.576.576,0,0,1-.2.4.641.641,0,0,1,.6-.4l.2.2a.576.576,0,0,1-.4.2l-.4.4h-.2l-.4.4v.2a5.959,5.959,0,0,1-.6.8,1.775,1.775,0,0,1-.2.8q-.2.6-.6.2l-.2.2v.6h-.2a10.973,10.973,0,0,1-.6,1.4q3.4-4,5.2-6.2-.8.6-.4.2l.6-.8ZM-83.3-21.4a14.165,14.165,0,0,1,3-2q2.8-1.4,3.4-1.6l-.2.4q-1.2.8-2.2,1.6h-.2a3.273,3.273,0,0,0-.8.2q.6.2-1,.8-1.6.8-1.4,1.2l-.2-.4Zm7.6,13.6q-.8,0-.4-.2l.6-.4-3.2,1.2a7.016,7.016,0,0,0-2,.8h.4l-.4.2-.8.2q-1.4.6-2.4,1l5.8-1.6Zm66.2-113a64.016,64.016,0,0,0,5.6-6.8l-.8.4a4.978,4.978,0,0,1-1.4,1.8.576.576,0,0,1-.2.4.576.576,0,0,1-.2.4q-.2,0-.6.8a1.638,1.638,0,0,1-1,.6q-.8,1.2-1.2,1.2a1.357,1.357,0,0,1-.4,1,.576.576,0,0,1-.2.4q-.4.4-.4.6a1.308,1.308,0,0,1,.6-.6ZM-31.3-94.2a.576.576,0,0,0,.2-.4.25.25,0,0,1,0,.4,7.758,7.758,0,0,1,1-.4,5.692,5.692,0,0,0,1.2-1l-.2.6,1.6-1.8-1,.8q0-.2.6-.6a3.571,3.571,0,0,0,1-1,7.015,7.015,0,0,0-2.8,2.4h-.2v-.2a6.555,6.555,0,0,0,.8-1v-.4l-.2.2v.2l-.2.2h-.2a5.5,5.5,0,0,1-1.4,1.6v-.2a.25.25,0,0,0,0-.4h-.4v.2A1.158,1.158,0,0,0-31.3-94.2Zm13-15.6h-.2a2.536,2.536,0,0,0-.6,1.2,11.715,11.715,0,0,0,1.4-1.6l2.8-2.8q-1,.6-2.2,1.4l.4-.8-.8.8v.2l-.2.2a.576.576,0,0,0-.2.4l-.4.4v-.2h-.2a8.766,8.766,0,0,1-.8,1.6,9.042,9.042,0,0,0,.8-1.2l.2.2h.2ZM19.3-156a5.048,5.048,0,0,0,.6-1.2q0-.4.8-.8-.4,0-.2-.4.2-.6-.2-.4,0,.6-1.4,1.6l-.6.6a6.965,6.965,0,0,1-1.4,1.4h.2v.2l.4-.4.4-.2v-.4q.4,0,.2.4l1.2-1Zm-29.8,37.4q1.2-1.8.6-1.4a4.292,4.292,0,0,0-1.4.8.576.576,0,0,1-.2.4h.2l-.2.2-.4.6q.2,0,0,.4a3.134,3.134,0,0,1,.8-.6Zm-22.8,28q.4,0,1.2-1a8.5,8.5,0,0,1,.8-1.2.576.576,0,0,0-.4.2q-.2,0-.2-.4h-.2l-.4.4.2.4a.576.576,0,0,1-.2.4h-.4q.4.2,0,.4v-.2h-.2a9.785,9.785,0,0,1-.6,1,9.784,9.784,0,0,0-.6,1,6.554,6.554,0,0,0,.8-1l1-1Zm-62.8,83q.8-.2,1.4-.4a21.878,21.878,0,0,1,2.2-1.4l-.6.2q.4-.4.6-.4,0,.2.4,0,.4-.4,0-.4-.2-.2-.8.2l-.2.4a15,15,0,0,0-2.8,1.6Zm12.2,3a.576.576,0,0,0-.2-.4l-.6.2-.6.4h2l-.2.2,1.8-.6a.641.641,0,0,0,.6-.4A5.417,5.417,0,0,0-83.9-4.6Zm-3.4,1.4a5.57,5.57,0,0,1,1.2-.4q0-.2-.4-.2-.2-.2.2-.4a1.535,1.535,0,0,0-.6.2l-.8.2h-.2l-.2.2a1.775,1.775,0,0,1-.8.2v.2l-.4.2a6.013,6.013,0,0,0,1-.2,6.013,6.013,0,0,1,1-.2l-1.2.4a.576.576,0,0,0,.4.2Zm72.8-111.4a5.048,5.048,0,0,1,.6-1.2h-.2v.2a2.326,2.326,0,0,0-.4.6.576.576,0,0,1-.4.2,5.958,5.958,0,0,0-.6.8l-.8.8h.6a1.152,1.152,0,0,0,.8-.4Zm1.4.8q-.8-.2,0-.8a7.319,7.319,0,0,0,1.2-1.4,1.535,1.535,0,0,0-.6.2q-.2.4-.4.4a17.9,17.9,0,0,1-1.6,2.2q0,.4.4,0a2.327,2.327,0,0,1,.6-.4A.576.576,0,0,1-13.1-113.8ZM-59.9-25l-.4-.4q-.4-.2-.4-.4h-.4a.576.576,0,0,0-.4-.2l-.2-.2-.4-.2h-.2q-.2.4.4.2v.4h-.2l.2.2a2.171,2.171,0,0,0,.8.4,1.535,1.535,0,0,0,.6.2l.2-.2.2.2Zm-9.4,14q2.4-.4,2.8-1.2a3.29,3.29,0,0,1-1,.2,4.629,4.629,0,0,0-1,.6Zm5.6-2a.576.576,0,0,1-.4.2V-13a7.008,7.008,0,0,1-2,1q-.2.2.4.2h.8q-.4-.6.4-.6a4.961,4.961,0,0,0,1.4-.6Zm-6.2-18.4.2-.2a.354.354,0,0,0,.4.4l-.2.2h.4v-.4q-.6-.2-.4-.6a1.535,1.535,0,0,1-.6-.2v-.2l-.4-.4v.8q.4,0,.6.6h-.2l.2.2ZM8.9-143.2q.6-1,.2-.8-.2.2.2-.8H9.1q-.4,1.2-1.2,1.4l-.2.2.2.2Q8.7-143.6,8.9-143.2ZM-68.3-29.8q.2.4.4.2a2.327,2.327,0,0,0,.4.6h.2q0,.4.2.4-.2-1-.8-1.2a.576.576,0,0,0-.2-.4,3.508,3.508,0,0,0-1-.4v.2h.4v.4A.576.576,0,0,1-68.3-29.8ZM43.9-185.6a2.327,2.327,0,0,0,.4-.6l-.2-.2-1.2,1v.6l.6-.6ZM-2.9-128.8l1-.8a2.194,2.194,0,0,0-1.4.8l-.4.4a.815.815,0,0,0-.2.6l1.6-1.4ZM-72.7-36.4a1.175,1.175,0,0,0,.6,1v.6h.4V-35h.2l-.2-.2.2-.2h-.4v.2l-.4-.6q.2,0,.4-.4l-.2-.2Zm110-139q-.2.4.2-.2a2.264,2.264,0,0,0,.8-.8q-.4-.2-.6,0l-.2.4v-.2a.576.576,0,0,1-.4.2q-.2.4.2.2T37.3-175.4Zm-62.4,142a6.013,6.013,0,0,0,1-.2,1.42,1.42,0,0,1,1.2-.2Q-22.7-34.6-25.1-33.4Zm18.2-8.4q.4,0,0,.2-.2.2.4,0a1.152,1.152,0,0,0,.8-.4,1.535,1.535,0,0,0-.6-.2l-.4.2h-.4Zm-14.4-64.8a21.821,21.821,0,0,0,1.8-1.6l-.4.2v-.4a11.692,11.692,0,0,1-1,1.2l-.4.4ZM54.1-200q-.2.6-.4.6a1.2,1.2,0,0,0-.8.8,5.956,5.956,0,0,1,.8-.6,1.927,1.927,0,0,0,1-.8ZM-29.7-21.4h.4l-.2.2h.4v.2q.8-.2.6-.2h.2v-.2h-1v-.2h-.2l-.2-.2h-.4v.2h.4Zm-45.8-4.4A23.488,23.488,0,0,1-73.3-27a12.347,12.347,0,0,1-2.2,1.4Zm15.6.8.6.6a.25.25,0,0,1,.4,0l.4.2h.2l.2.2a.576.576,0,0,0,.4-.2,6.013,6.013,0,0,0-1-.2,2.327,2.327,0,0,0-.6-.4q-.4-.2-.4-.4Zm62-108.6q0,.2.4.2a1.822,1.822,0,0,0,1-1A5.2,5.2,0,0,1,2.1-133.6ZM-20.5-36.2l-.4.2a3.29,3.29,0,0,0-1,.2l-.2.4a1.944,1.944,0,0,0,1-.4l.4-.2ZM-37.9-85.4l.2-.2v-.2q-.2,0-1.2,1.6v.2a6.555,6.555,0,0,1,.8-1Zm8.8,53.6h-.4a.576.576,0,0,1-.2.4l.4.4h.2ZM4.3-135a1.288,1.288,0,0,0-.8.6v.8Zm-16.2,17-1.6,1.6h.2a7.947,7.947,0,0,1,1.2-1Zm-16,20.6-.2-.2v-.2q-.6.2-.4,1ZM-61.7-25.8a1.158,1.158,0,0,0,.8.2l.4.6-1.4-.6Zm8.4-40a9.043,9.043,0,0,0,.8-1.2l-.2.2a7.794,7.794,0,0,0-1.4,2A6.555,6.555,0,0,1-53.3-65.8Zm-6.6,42.4a2.171,2.171,0,0,1-.8-.4q0-.2.4,0a1.535,1.535,0,0,0,.6.2h.2l.2.2h-.2l-.2.2Zm45-15.4a6.2,6.2,0,0,0,1.2-.4l-.4-.2q-.6.4-.8.2ZM-41.1-22h-.6v.2a.576.576,0,0,1,.4.2h.6v-.2h-.2ZM4.3-28.4a.576.576,0,0,1,.4-.2l.4-.2h.6l-.8.4H4.5l-.8.4.2-.2Zm-73.2-3.2.2.6q.2-.2.6.4h.2v-.2a3.432,3.432,0,0,1-1-1Zm77-28.8a1.775,1.775,0,0,1-.2.8q-.2.2,0,1a1.775,1.775,0,0,1,.2-.8A1.288,1.288,0,0,0,8.1-60.4Zm49.4-143a5.57,5.57,0,0,0,.4-1.2,9.045,9.045,0,0,1-.8,1.2q.4-.2.4,0a2.326,2.326,0,0,1-.4.6q.4-.2.4-.4ZM-3.9-125.2a12.1,12.1,0,0,0,.8-1,2.062,2.062,0,0,0,.4-.8A18.2,18.2,0,0,0-3.9-125.2Zm40.6-49.2a1.289,1.289,0,0,1-.6.8,2.549,2.549,0,0,0,1.2-1.2A.641.641,0,0,0,36.7-174.4ZM4.3-138.6q.8-.6.6-.8H4.7a9.786,9.786,0,0,0-.6,1ZM-21.3-33.2a.815.815,0,0,1,.6-.2q-.2-.2-.6,0l-.4.4h.8q.4,0,0-.2Zm-6.8,11.6h.4a.815.815,0,0,1-.6.2l.2.2a1.535,1.535,0,0,1,.6-.2h.2v-.2l-.2.2v-.2h-.2l.4-.2h-.4ZM40.9-183a2.062,2.062,0,0,0-.4.8l1.2-1.8A2.165,2.165,0,0,0,40.9-183Zm13.6-13a1.308,1.308,0,0,1,.6-.6q.4,0,.8-.6a2.171,2.171,0,0,1-.8.4Q54.7-196.8,54.5-196ZM-70.9-36.4q-.4-.8-.4-.6v.8a.576.576,0,0,0,.4.2Q-71.3-36.2-70.9-36.4Zm26.8,15.8q0-.2,1.2.4Q-44.5-20.6-44.1-20.6ZM.3-133.8l.6-.6v-.2a2.327,2.327,0,0,1-.6.4l-.2.2v.2ZM-70.1-34q.2,1,.2.6h.4a.576.576,0,0,1-.2-.4A.576.576,0,0,0-70.1-34Zm36.2,12.6h1l.2.2h-.6v.2h-.2l.2-.2h-.4Zm17.8-.8a16.564,16.564,0,0,1,1.8-.4Q-16.9-21.8-16.1-22.2ZM-78.7-6.4l-.8.4.6.2ZM-7.1-41a.815.815,0,0,0-.6.2q-.4.4-.6.4Q-7.3-40.6-7.1-41Zm2.2,16,.2-.2a.576.576,0,0,1,.4-.2h-.2a1.535,1.535,0,0,0-.6.2l-.6.2h.2v.2l.2-.2a.576.576,0,0,0,.4-.2Zm-18,3.6q0,.2-.8.2h-1.2Zm-15.6-.2a3.273,3.273,0,0,0-.8-.2h-.4l-.2.2Zm23-15.2q-.2-.2,0-.6-1,.4-1,.6l.8-.4-.2.2Zm-55.4,4.2a.576.576,0,0,1,.4-.2l-.4-.6h-.2v.2Q-70.7-33.6-70.9-32.6Zm34.2,11.2q.4.2.4.4l-.2.2-.4-.2Zm3.2.6q.2-.2.6,0,.2,0-.8.2h-.2v-.2Zm8.4-79.4-.6.6h.6Zm79.4-96.2a1.638,1.638,0,0,0-.6,1A1.638,1.638,0,0,0,54.3-196.4Zm-32.8,38,.2-.2q.8-.8,1-.8,0-.4-.8.4ZM-43.1-20q-.2.6-.8,0Zm-23.6-8q.6.2.4.2v-.4q0-.4-.2-.4v.2A.576.576,0,0,1-66.7-28ZM-1.1-131.8a.576.576,0,0,0-.2.4q.6-.4.6-.8ZM62.1-208v-.2a2.327,2.327,0,0,1-.6.4l-.2.2h.4ZM-63.5-14.2a7.76,7.76,0,0,0,1-.4h-.6Zm34.8-6.4q-.8.2-.8,0,1.2-.2,1.2,0ZM-40.3-22q-.4,0,0,.2v.2h.2l.2-.2-.2-.2Zm16.2,1.2h-.8q0-.2.8-.2Zm-40.8-6q0,.2.8.4l-.4-.4ZM-90.3-2.6a2.171,2.171,0,0,0-.8.4v-.4Zm74.8-20h-.2q1-.6.6-.2h.4Zm18.2-114a.815.815,0,0,0,.2-.6,9.785,9.785,0,0,1-.6,1ZM-72.3-37a.576.576,0,0,0-.4.2.815.815,0,0,0,.6.2Zm45.8,15a3.29,3.29,0,0,0,1-.2h-.8Zm13.2-1.2-.2.2a9.979,9.979,0,0,0-1.2.2l.6-.2.6-.2Zm-7.4,1.4a.4.4,0,0,1-.6.2A.4.4,0,0,1-20.7-21.8Zm-7-76.8a1.288,1.288,0,0,0,.6-.8l-.6.6q0-.2-.2.4Zm20,74.4h.2q-1.2.8-.6.2A.576.576,0,0,0-7.7-24.2Zm-39.2,2.8q0,.2.4.2a.25.25,0,0,0,.4,0,1.535,1.535,0,0,0-.6-.2Zm18.6-.6q-.4.2.2.2.6-.2.4-.2ZM21.3-158.8l.4-.8-.4.2Zm-84,132.6a.576.576,0,0,1-.2-.4l-.6-.2.4.4A.576.576,0,0,1-62.7-26.2Zm31.6-14.6a1.535,1.535,0,0,1-.6.2l-.4-.2ZM-37.5-20q-.2-.6.6,0Zm-10.4-1q.2,0,.6-.4h-.4Zm-18-8.2q.2.4.4.2l-.6-.4.2-.2a.576.576,0,0,0-.4.2A.576.576,0,0,1-65.9-29.2ZM7.7-58.8a1.85,1.85,0,0,0,0,1.2ZM1.3-132.6a5.958,5.958,0,0,1,.6-.8,2.327,2.327,0,0,0-.6.4Zm-72,97v-.2h-.4a.576.576,0,0,0,.2.4v-.2Zm29.6,14.4v.2q.4.2,0,.2Q-41.7-21-41.1-21.2ZM-62.7-26a.25.25,0,0,0,.4,0l-.2-.2h-.2Zm6.2.6a1.535,1.535,0,0,1-.6-.2,2.327,2.327,0,0,0,.6.4ZM6.3-29.2h.4a1.535,1.535,0,0,1-.6.2q.4-.2-.2.2Zm-31.4,8a.653.653,0,0,1-.8.2Q-24.9-21.2-25.1-21.2Zm50-138.2a.576.576,0,0,1,.4-.2v-.2h-.2A.576.576,0,0,1,24.9-159.4ZM-71.1-10l-.4.4h.4Zm35.4-10a1.8,1.8,0,0,1,1.2,0Zm12-14.6h-.4l-.2.4ZM-63.9-51.2l.4-.4h.2l-.2-.2-.2.2ZM-52.5-20l1.2-.2h-.8Zm29.6-2.2v.2h.2l.4-.2Zm10.6-94.4a.576.576,0,0,0-.2.4l.4-.2ZM-41.7-20.8h.2a.815.815,0,0,0,.6.2Q-40.9-20.4-41.7-20.8ZM3.9-28.2a.576.576,0,0,1-.4.2h0l-.2.2H3.1l.2-.2.4-.2Zm-75.2-9.2q.2,0,.2-.4l-.4.4ZM20.5-156.2q0-.2.4-.6l-.6.4ZM-74.5-8.6a3.29,3.29,0,0,0-1,.2A6.013,6.013,0,0,0-74.5-8.6Zm42.4-11.6q-.4.8-.2,0Zm-60.2,18,.4-.2a1.775,1.775,0,0,1,.8-.2Zm80.6-21.4q1-.2,1,0ZM-18.5-22q0,.4-.4.2ZM-3.9-124.8q.2.2.6-.2Zm-39,103h.2V-22h-.4Zm43.4-5v.2a.815.815,0,0,0-.6.2l.2-.2H-.1A1.535,1.535,0,0,0,.5-26.8Zm-62-1a.576.576,0,0,1,.4.2l-.2-.4Zm49.2,4.4.4-.2h.2l-.2.2ZM-26.7-21h.6l-1,.2Zm-25.8,1-.4.2,1-.2Zm-13.2-8.6q-.4.2,0,.4ZM-90.3-3a.576.576,0,0,1-.4.2h-.2l.4-.2Zm73.2-19.4-.6.2v-.2Zm-51.6-9.8-.2-.2v.4h.2Zm24.6,11a.576.576,0,0,0,.4.2v-.2Zm-6.6.8-.4-.2-.2.2Zm31-2h.6v-.2Zm1,0h.2l.2-.2h-.4ZM-58.3-25q-.2.6.2.2ZM57.1-202.8q-.2,0-.2.4h.2ZM-6.3-25v.2h.2l.2-.2h-.4ZM23.5-157.2q-.2-.2-.6.4ZM-41.7-21.8l-.2-.2h-.2v.2Zm10.8.6a.25.25,0,0,1-.4,0Q-31.3-21.6-30.9-21.2Zm-6,.2.2.2q-.2.6-.2,0Zm12.8-1.2h.2q.2,0-.4.2h-.2Zm-6.2,1.8a.576.576,0,0,1-.4.2Q-30.7-20.4-30.3-20.4ZM-65.7-41.8a1.535,1.535,0,0,0,.6-.2q-.4.2-.4.4Zm-3.6,2.2a1.535,1.535,0,0,0-.2.6l.2-.2Zm6.4,12.8q0,.2.4.2l-.2-.2Zm30.8,6h.6Q-32.3-20.6-32.1-20.8Zm-31.6,7.6a.815.815,0,0,1,.6-.2l-.2-.2ZM7.7-29.4a1.535,1.535,0,0,1-.6.2l.2-.2ZM-56.1-80.2a1.308,1.308,0,0,0,.6-.6ZM9.7-145.6a.576.576,0,0,0-.2.4,2.327,2.327,0,0,0,.4-.6ZM-49.1-53.8V-54h.2v.2Zm14,33.6v-.2h.2v.2Zm-7.6-1.2q.4.2.6,0Zm-2.4,0v-.2h-.2v.2Zm47.2-6H1.7l-.2.2Zm-6.2-101a.576.576,0,0,1-.2.4l.4-.4Zm-9.4,88.8.2-.2h-.2l-.2.2Zm-48,15.2q-.4-.2-.4-.4ZM49.7-193.6l-.4.6.4-.4Zm-82,172q.4.2.6,0Zm2,1.2q0-.4.4-.2ZM-18.1-110l.4-.2-.4.4Zm-7.2,77.4h-.4v.2ZM-38.5-20q.2-.6.2,0ZM-68.9-32.8l-.2-.2v.4Zm85.8-122,.2-.2h-.2l-.2.2ZM-72.3-35.2l-.2-.2v-.2h-.2l.2.2v.2Zm43.6,13.4h-.4l.2.2ZM-38.9-20l.2-.2.2.2Zm20.2-88.4-.4.6.4-.4ZM-1.3-26.2l.4-.2h.2l-.4.2Zm-62-1q0,.2.4.4Zm61.4-103v.2l.4-.2Zm31-36.2h.4v-.2ZM-92.1-10.4l-.2-.2-.2.2Zm50.6-9.8a3.273,3.273,0,0,1,.8.2A3.273,3.273,0,0,1-41.5-20.2Zm19.4-85.4.2-.2h-.2l-.2.2ZM-93.7-7.4l-.6.2h.4ZM1.3-27l-.4.2V-27Zm4.4-2h.4a.576.576,0,0,0-.4.2Zm-45.6,9a.815.815,0,0,1,.6-.2ZM5.7-67.6l.2.6-.2-.4Q5.5-68,5.7-67.6ZM-9.1-23.8l.8-.2a.815.815,0,0,1-.6.2Zm-59.4-5.4h.2Q-68.1-28.8-68.5-29.2Zm-2.4-3.4q-.4.4.2,0Zm38.6,11.4q-.2-.2.4,0ZM-64.5-28q-.4-.4-.6-.2ZM-.3-26.4a1.535,1.535,0,0,1-.6.2.576.576,0,0,0,.4-.2Zm-53.4,9.6a1.535,1.535,0,0,1-.6.2l.4-.2Zm27.4-5.4a1.535,1.535,0,0,1-.6.2h.4Zm-13-61.6a2.327,2.327,0,0,0-.4.6A2.326,2.326,0,0,0-39.3-83.8ZM4.1-28.4h.2l-.4.2ZM-62.7-52.8a.25.25,0,0,0,0,.4Zm40,31.4h.4A.25.25,0,0,1-22.7-21.4Zm-42.8-6.2a.25.25,0,0,0,.4,0ZM-3.1-128q-.2,0-.4.4ZM-32.3-21.2q0,.2-.4,0ZM-38.9-20a.25.25,0,0,1-.4,0ZM23.5-163.2v.2h-.2Zm-84,136h.2a.576.576,0,0,0-.4-.2Zm56.8,1.8.2-.2h.2Zm-54.8-.8a.25.25,0,0,0-.4,0Zm24.8,6-.2.2v-.2Zm-33-8.6V-29h-.2ZM.5-26.6l.2-.2H.9Zm-2.8-99.2q0-.2.4-.4ZM-21.9-22.4q.4-.2,0-.2Zm-41-6.6v-.2l-.2.2Zm-7.4-4.2-.2.2h.2Zm28.6,12.4-.8-.2,1,.2Zm37.8-104q0-.2-.4.2Zm-36.8,103h.2l-.2-.2Zm14.6.8h.2l-.2.2Zm-35.8-5.6.2.2v-.2ZM-9.1-60.2l.2-.2h-.2Zm-8.4,22.6a.576.576,0,0,1,.4-.2h-.2Zm8.4,13.2v-.2l-.2.2Zm1.8-.2h.2l-.4.2Zm4.6-103.6a.576.576,0,0,0-.4.2A.576.576,0,0,0-2.7-128.2ZM-65.3-28.8h-.2l.2.2Zm54,4.8v.2l.2-.2Zm-46.6,9h-.2a.576.576,0,0,0-.4.2Zm19.4-5.8h.2v.2Zm15.4-11a1.535,1.535,0,0,0-.6.2ZM11.7-148l.2-.2h-.2ZM-43.1-20l.2.2h-.2Zm40.4-5.6-.4.2.2-.2Zm-29-67.8v.2l.2-.4ZM-54.3-16.8q0-.2-.4,0Zm40.4-6.6h.2l-.2-.2Zm-56-9.6h-.2v.2Zm23.8,11.6v.2l.2-.2Zm-21-9v.2h.2ZM-62.5-53l.2.2V-53Zm38.4,32,.2.2h-.2Zm-1.8-.8-.4.2h.2Zm-11.8.8.2-.2h-.2Zm6.2-.6h-.2v.2Zm-7.6.8h.2V-21ZM-67.9-31.4v-.2l-.2.2Zm-5.2,4.2v.2h-.2ZM49.7-193.6l.2-.2v-.2ZM-28.7-21.8v.2l.2-.2Zm9.2-.2q0,.2-.4.2ZM-96.3-1h.2l-.2-.2Zm37.2-25.4v-.2l-.2.2Zm58.6-.2.4-.2-.6.2ZM-84.9-24l.4-.2h-.2Zm66,1.4v.2l.2-.2Zm33-129-.2.2.4-.2ZM-87.9-17q.4-.2-.2,0ZM8.3-29.8h.2l-.4.2Zm-21.8,6.6-.6.2h-.2ZM7.3-29.4l-.2.2H6.9Zm61,1.6h-.2l-.4.4h-.2q-.6.2-.2-.2l-.4.4q.2-.2-.8.4V-27l.2-.2a9.783,9.783,0,0,0-1,.6h-.2v.2h-.2a5.958,5.958,0,0,1-.8.6.576.576,0,0,1,.4-.2l-.4.2-.6.4h-.2v.2a.815.815,0,0,1-.6.2l-.6.6.4-.2-.2.2-.4.4h-.2l-.6.4h-.2l-.2.2q-.4.6-.6.6l.2-.4-.2.2-1,.4a2.327,2.327,0,0,1-.6.4l-.2.2a1.775,1.775,0,0,1-.8.2.576.576,0,0,1-.2.4h.4a.576.576,0,0,0-.4.2q0,.2-.4.6l-.6-.2-.2.2h-.2q-1.2,1-1.4,1.2h.2l.4-.2-1.8,1.2a6.807,6.807,0,0,1-1.8.8v.2q-.4.2-8.2,4.6a39.726,39.726,0,0,0-5,4,.815.815,0,0,1,.2-.6,5.092,5.092,0,0,0-1.2,1.2,1.79,1.79,0,0,1-1,1.2q-.2.2.4,0,.4-.4,0,.2a1.535,1.535,0,0,0-.6.2h-.6a3.507,3.507,0,0,0-1.4,1.2.25.25,0,0,0,.4,0q.2,0,0,.4a11.013,11.013,0,0,0-3,.8,18.568,18.568,0,0,1-2.6,1.4l.2.4a13.075,13.075,0,0,1-1.4.8,2.915,2.915,0,0,0-1.2.4l-.6.6a7.76,7.76,0,0,1-1,.4l-.4.2h-.6a1.433,1.433,0,0,1-1.4-.8,2.327,2.327,0,0,0-.4-.6,27.547,27.547,0,0,1-5,1,2.171,2.171,0,0,1-.8.4H14.1A11.2,11.2,0,0,1,9.9-.8a7.616,7.616,0,0,1-2-.8l-.2-.2L7.3-2l-.2-.2a.576.576,0,0,1-.4-.2l-1-1a7.613,7.613,0,0,1-1.4-2,10.288,10.288,0,0,1-.8-2l-.4-2q-.2-1-.4-1.8v-.2a28.3,28.3,0,0,1-.4-6.8v-2.6h.2a6.581,6.581,0,0,1,.4-2,.576.576,0,0,0-.2.4v-1l.2.2q.2-.6.4-1.4l-.2.2a2.915,2.915,0,0,1,.4-1.2,1.944,1.944,0,0,1,.4-1l-.2-.2q-.4-.4.2-1,.6-.8.2-1.2a10,10,0,0,0-1,1.4,16.044,16.044,0,0,0,.2-1.6l.4-.4.2-.4a24.541,24.541,0,0,1,.8-2.4A5.255,5.255,0,0,1,5.9-35q.2-.6,0-.6T5.7-36l1-1.8a.25.25,0,0,0,0-.4q-.2-.4-.4-.2a1.775,1.775,0,0,1-.2.8.815.815,0,0,0-.2.6.25.25,0,0,0-.4,0,.354.354,0,0,0-.4.4q.4,0-.4,1.2A1.922,1.922,0,0,0,4.5-34l-.4-.2v-.2l-.4.2q.2-.8.6-2h.2a4.829,4.829,0,0,1,.6-1.6,5.855,5.855,0,0,0,1-1.6v.8a4.152,4.152,0,0,0,1.2-2q-.2.6-.4.4v-.4A2.469,2.469,0,0,1,7.5-42a9.575,9.575,0,0,0,1-2.2l.2.2a1.775,1.775,0,0,0,.2-.8l.2-.6a4.292,4.292,0,0,1,1.4-.8V-47l-.2.2a.815.815,0,0,1,.2-.6,2.327,2.327,0,0,0,.4-.6q0-.6.8.4.4-.8,0-.8h-.6a11.693,11.693,0,0,1,1.2-1,1.308,1.308,0,0,0,.6-.6,1.535,1.535,0,0,1-.6.2q.6-.4.6-.8l-.8.6a15.381,15.381,0,0,0,2.6-3.4h-.2l.6-.8.2.6a.641.641,0,0,1,.4-.6q.4-.4.2-.6l-.2.2.4-.6v.8a4.961,4.961,0,0,0,.6-1.4l.6-1.8q.4,0-.2,1.2t-.2,1.6a2.327,2.327,0,0,1,.4-.6q0-.2.4-.4V-56q-.2-.2-.6.4a8.769,8.769,0,0,1,1-1.8,3.068,3.068,0,0,0,.8-1.4l-.6.4q0-.2.4-.4l.2-.2h.2l.2-.2q.4-.2.4-.4v.4l.2.2.4-.4a1.152,1.152,0,0,1,.4-.8,5.576,5.576,0,0,0,.8-1.4q0-.2-.4.4l-.4.6v-.6q.6-.6.8-.6a9.043,9.043,0,0,0,1.2-.8l-.2-.2q.4,0,1-.8.4-.6.6,0l-.6.2.4.2.6-.8,1-1q.4,0,.4.2l.6-.8q.2,0-.2.8a3.508,3.508,0,0,0-.4,1v.2a.576.576,0,0,1-.4.2,4.629,4.629,0,0,0-1,.6l-.2.4-.4-.2a2.226,2.226,0,0,0-.2,1q.4-.2-2.2,2.4v-.2a2.327,2.327,0,0,0-.4.6l.4-.8-.2.2q-.6.4-.6.2,0,.2-.4.6a1.535,1.535,0,0,1-.2.6h.2l.8-.8a.576.576,0,0,1-.2.4,5.2,5.2,0,0,0-.8,1.4l.2.2a5.368,5.368,0,0,1,1.8-1.8l.2.2q.2,0,0,.4,0,.4.2.4.6-.8.4-1.2h.4q.6-.6.4-.8-.8.8-1,.8l.6-1a11.692,11.692,0,0,1,1-1.2q-.8.6-.8.4.2,0,.6-.4t.6-.4a4.653,4.653,0,0,1,.8-1.2l.4-.4-.2.4-.8.8a3.134,3.134,0,0,0,.8-.6l.2.2q.6,0,.2.6a.815.815,0,0,0-.6.2q-.4.6-.6.6l.2-.2.2-.4a3.134,3.134,0,0,0-.8.6,2.264,2.264,0,0,1-.8.8v.2a1.875,1.875,0,0,0,1.2-1v.8a1.288,1.288,0,0,0,.6-.8q-.2.6,0,.4a4.813,4.813,0,0,1,1.2-1.2,1.612,1.612,0,0,0,.8-1.2l.4.4.6-.6a.576.576,0,0,0,.4-.2l.2-.2.8-.6a.576.576,0,0,0,.2-.4,29.309,29.309,0,0,1,3.4-2.8l.2-.2-.8.4a.641.641,0,0,1,.4-.6,1.357,1.357,0,0,0,1-.4q-.4,0-.4.2,0-.2.6-.8.8-.4.8-.8h.4l.2.2.2-.2v-.2l.2-.2a.576.576,0,0,1,.4-.2h.4a9.783,9.783,0,0,1,1-.6,3.134,3.134,0,0,0,.8-.6h-.6q0-.2.8-.2.4-.4.6-.4H38.5l-.8.8a5.048,5.048,0,0,0-1.2.6l.2.4q0-.2-1.2.2-.4.2-1.4.8l-1,1a11.715,11.715,0,0,1,1.4-1.6l.8-.8a2.326,2.326,0,0,0-.6.4l.4-.8.6.2q.6-.4-.2-.4a1.535,1.535,0,0,0,.6-.2h.2l.2.2h-.4v.2l.4-.2a9.043,9.043,0,0,1,1.2-.8l-.6.2a9.783,9.783,0,0,1,1-.6l-.2-.2h.2v.2a3.019,3.019,0,0,1,1.2-1,2.749,2.749,0,0,0,1.4-.6h.6q.4,0,.4.2a.806.806,0,0,1,.4-.8l1.4-.4q.8-.2,1,.2,0,.2-.6.2-.4,0-.4.2h.4q.2.2,1-.2l.6-.2-.2-.4a.641.641,0,0,0,.6-.4q0-.4-.6-.4.8-.4.8.4t.4.4h.2l-.2-.4q.2.2.6,0a1.158,1.158,0,0,0,.8-.2v-.2a56.5,56.5,0,0,1,5.6-1.6,16.393,16.393,0,0,1,6-.4q.2.6,1.6,1,1.2.4,1,1.2h.2a.576.576,0,0,1,.4-.2q.8.8.4.8a23.487,23.487,0,0,1,2.2,1.2l.8.4.2.2h.2l.6.4.2.2.6.4v.2h.2l1.6,1.6a3.134,3.134,0,0,0,.6.8,17.148,17.148,0,0,1,2.2,2.2,6.959,6.959,0,0,1,1.4,3,10.876,10.876,0,0,1,.4,3,15.84,15.84,0,0,1-.2,2.6v1.2a10.15,10.15,0,0,1-.4,2.8,8.8,8.8,0,0,1-1.4,3,6.883,6.883,0,0,1-2.4,2.4l.2-.2a13.076,13.076,0,0,1-1.4.8.815.815,0,0,1-.6.2,44.346,44.346,0,0,1-2.6,4.2A295.6,295.6,0,0,1,46.9-20.8h.8L49.3-22l-1,1a5.092,5.092,0,0,0-1.2,1.2,2.785,2.785,0,0,1,1.2.2l.2-.2a9.043,9.043,0,0,0,1.2-.8.576.576,0,0,1-.2.4v.4q.8-.4.8-1l.4.2a.641.641,0,0,0,.4-.6l-.2-.2h.8a1.272,1.272,0,0,0,1-.8l-.2,1,.4-.4.2.2a4.292,4.292,0,0,1,1.4-.8q.8-.4.8-1l.4.8q.6-.4.6-.8a1.152,1.152,0,0,1,.4-.8.25.25,0,0,0,0,.4l-.2.2q.2.2,1.8-.8.2-.2,3.4-2a21.024,21.024,0,0,0,3.6-2.4h.2a27.424,27.424,0,0,0,3.2-2,21.017,21.017,0,0,1,3.2-2q.2.2,1-.2a3.48,3.48,0,0,1,1.4-.6l1-.8,2.4-1,2-.8,1.8-.6a13.055,13.055,0,0,1-1.4,1.2h.2a2.327,2.327,0,0,0,.6-.4h.2l-.2.2h.2l-.4.2h-.2l-.4.2h.2a2.327,2.327,0,0,1-.6.4l-.4.2v.2a.815.815,0,0,1-.6.2l.6-.4h-.4v.2a.576.576,0,0,0-.4.2l-.2.2h-.2l-.8.4-.2.2.8-.4h.2l-.4.2-.6.2-.2.2-.4.2-.4.4h-.2l-.2.2-.2.2v-.2l-.2.2q-.8.6-.6.4l-.2.2h-.2l-.8.4.2-.2q-.4,0-.4.2v-.2l-.2.2h-.2l-.6.6a2.327,2.327,0,0,0,.6-.4,1.535,1.535,0,0,1,.6-.2.576.576,0,0,1-.4.2,7.8,7.8,0,0,1-1.4.8h.2a1.535,1.535,0,0,1,.6-.2q-.4.4-.6.4h-.2a4.653,4.653,0,0,1-1.2.8h-.2v-.2h.2l.2-.2h-.2l-.2.2h-.2v.2a2.062,2.062,0,0,0-.8.4h.2l.4-.2q.4-.2-.4.4h-.2l-.6.4-.4.2Zm-35,3.2q0,.6-.2.6a.641.641,0,0,1,.4.6v.4l-.6-1.2h.2a1.535,1.535,0,0,0-.2-.6V-25h-.2v-.2l.4.2h.4v-.4a.25.25,0,0,1,0-.4q-.2,0-.2-.4v-.6q-.2,0-.2-.4V-28l-.2-.2v-1.6l.2-.2v-.2h-.2q-.4,1,.2-1.4a1.535,1.535,0,0,0-.2-.6q.2-.2.4.2v-.2h-.2l.2-.2v-1a3.273,3.273,0,0,1,.2-.8,3.273,3.273,0,0,0,.2-.8l.2-.2v-.6a.576.576,0,0,1,.2-.4,3.273,3.273,0,0,1,.2-.8.85.85,0,0,0,0-.8.25.25,0,0,0,0,.4l-.2.2q-.6,0-.2.2a4.241,4.241,0,0,1-.6,2.4,2.226,2.226,0,0,1,.2-1,8.307,8.307,0,0,0-.8,1.8v.4l-.2.6V-33l-.2-.2h.2v-.2a3.29,3.29,0,0,1,.2-1,3.29,3.29,0,0,0,.2-1v-.2q-.6-.4.4-.8v-.4l.2-.6.2-.2v-.2l.2-.2v-.2l.2-.2-.2-.2a1.944,1.944,0,0,1,.4-1l.2-.2q-.2-.8.4-.8a.576.576,0,0,1-.2-.4v-.2q.4-.4.4-.6v-.4q.2.2.4-.4v-1l.2-.4v-.4q-.2,0-.2.6l-.2.6q-.6,0-.2.6-.6.2-.4,1l-.6.4.4-1.2.2-.4q0-.4.2-.4,0-.2.4-.6a.25.25,0,0,1,0-.4v-.4a2.171,2.171,0,0,0,.4-.8.815.815,0,0,1,.2-.6l.4-.6V-47a1.729,1.729,0,0,0,.6-1.2l.2-.2.2-.4q.2-1.2.8-1.4a1.944,1.944,0,0,1,.4-1,1.944,1.944,0,0,0,.4-1,4.558,4.558,0,0,0,1-1.8,5.5,5.5,0,0,1,1.4-1.6,3.538,3.538,0,0,1,1-1.6q-.4.8.6-.4v.4a3.64,3.64,0,0,0-1.2,1.6v.2q0-.2.6-.4,0,.4.6-1l.2.2v-.2a.641.641,0,0,1,.4-.6q.4-.4.4-.6h.2q-.6-.4.2-.2l-.4.4q.2.4.6-.2h.2q-.2,0-.2.4h.2V-58h.2l.2-.2a.25.25,0,0,0-.4,0l-.4.2v-.4l.2-.2h.6q.2.2.6-.4l-.4-.2-.6.6.8-1.2q.2,0,.6-.4l.4-.4v.6q-.8,0-.6.6h.2l-.4.4v.2q.4-.4.4-.6a4.813,4.813,0,0,0,1.2-1.2,4.29,4.29,0,0,1,1-.8l.6-.6q-.8.6-1.4,1a5.855,5.855,0,0,1,1-1.6q1.4-1,1.2-.8a.25.25,0,0,1,.4,0l.4-.4v.4l.4-.2a.576.576,0,0,0-.4-.2l.4-.2h-.2a1.535,1.535,0,0,1-.6.2q.2,0-.8.2a2.327,2.327,0,0,1-.4.6l-.2-.2a.25.25,0,0,0,0,.4h-.4q-.8.2-.6.4L46.3-61v.2q-1.4,1.6-1.4,1.4-1.4.8-.8.6-1.2,1.4-1.2,1.2.4-.6,1-1.6a.25.25,0,0,1,.4,0,1.175,1.175,0,0,1,.6-1,3.432,3.432,0,0,0,1-1l1.6-1.6a64.5,64.5,0,0,0-9.4,5.6l-4,3-.4.2-2,2q0-.2-.4.2l-.6.8-.2.2q-.4.2-.4.4,0-.2-.6.6-.2,0-.6.6a3.134,3.134,0,0,0-.6.8A13.055,13.055,0,0,0,27.1-47l-1,1.2a44.271,44.271,0,0,0-4.8,7.4,62.033,62.033,0,0,0-5.2,11.2,59.736,59.736,0,0,0-2.4,6.6v.4l-.2.4a6.013,6.013,0,0,1-.2,1l-.4,2q-.4,2-.6,3.4a27.09,27.09,0,0,0-.2,2.8,2.171,2.171,0,0,0,.4.8v.2h.4a1.158,1.158,0,0,0,.8.2l1.4.2,1.6-.2a33.274,33.274,0,0,0,6.4-2.2l3.2-1.6q.6-.4,1.4-1a13.075,13.075,0,0,0,1.4-.8l.6-.6a1.308,1.308,0,0,1,.6-.6l1.4-1.2,1.2-1.2a4.813,4.813,0,0,0,1.2-1.2,3.134,3.134,0,0,1,.8-.6q-.8-.8-.6-1a3.134,3.134,0,0,0,.6.8.576.576,0,0,1,.4-.2q-.2-.4-.4-.4a7.544,7.544,0,0,0-.8-1.6,9.008,9.008,0,0,1-.4-1.8h-.4Zm3.8,2a17.017,17.017,0,0,0,1.6-2q6.2-6.6,10.8-12.6a10.974,10.974,0,0,1,.6-1.4q3.2-1.6,6.2-7.6,4.2-5.4,7.4-10.4L65.3-59l.6-1.2.4-.6.2-.2v-.2l-.2-.2-.6.6v.2a8.773,8.773,0,0,0-2-2.6,1.775,1.775,0,0,1-.8.2q-10,1.6-16.6,10.6a45.594,45.594,0,0,0-5.6,9.6q-.6,1.4-2.2,5.2l-1,2.6a9.627,9.627,0,0,0-1,2.4q-1.6,5.6.4,9.6Q36.7-23.2,37.1-22.6ZM72.3-54.4l-.6,1.2v-.2a1.535,1.535,0,0,0,.2-.6.815.815,0,0,0,.2-.6,3.273,3.273,0,0,1,.2-.8q-1.6,2.8-3.6,5.8A9.3,9.3,0,0,0,70.5-51a9.784,9.784,0,0,1,.6-1v.4a6.964,6.964,0,0,1-2.6,2.2v.4l.2-.2a2.327,2.327,0,0,0,.6-.4,10.317,10.317,0,0,0,2-2.2,1.775,1.775,0,0,1,.2-.8,2.327,2.327,0,0,1,.4-.6,2.461,2.461,0,0,1,.4-1Zm-27-2.4a.576.576,0,0,0,.2-.4.576.576,0,0,1-.4.2l.6-.6v.2l.2-.2h-.2q1.6-1.6,1-1.4,0-.2.4-.4a.576.576,0,0,0,.2-.4q.6-.6.4-.2.2-.8,1.4-1.2v-.2h-.2l-.4.4v-.2q-.8.4-.6.6l-.8,1a.576.576,0,0,0-.4.2v.2l-.2.2q-1.2,1-1.2,1.4-1.2.6-1,.6l-.4.6.2.2a6.554,6.554,0,0,0,1-.8v.2ZM66.1-29.6a5.048,5.048,0,0,1-1.2.6l.4.4q-.2-.2-1.4,0a9.043,9.043,0,0,0-1.2.8,10.974,10.974,0,0,1-1.4.6,14.166,14.166,0,0,1,3-2,13.172,13.172,0,0,0,2-1.2l-.8.8,1.6-.6ZM41.1-54h.2v-.2q0,.2-.4,0l.4-.4a.25.25,0,0,0,.4,0v-.2q0-.2-.4-.4a2.171,2.171,0,0,0-.4.8l-.2.4v.2a.354.354,0,0,0-.4.4.576.576,0,0,1-.4.2v.6q.4.2-.6.4l.2.2-.4.4h-.2q.2.4-.4.8l.2.2a.815.815,0,0,0-.2.6h.4a.806.806,0,0,1,.4-.8l-.2-.6.2.2a3.148,3.148,0,0,1,.8-1.2,1.944,1.944,0,0,0,.4-1ZM34.3-38.2q.2,0,0,.4.2,0,.4-.6a2.327,2.327,0,0,1,.4-.6h-.2a2.327,2.327,0,0,0,.4-.6,1.535,1.535,0,0,0,.2-.6l.2-.4v-.2q.2,0,.2-.4a.576.576,0,0,1,.2-.4v-.2q-.6.2-.2.4-.6.2-.6,1.2l-.4.4.4-1.4a2.461,2.461,0,0,0-.4,1,7.76,7.76,0,0,1-.4,1h.2A3.508,3.508,0,0,1,34.3-38.2Zm-31,5.8a5.048,5.048,0,0,0,.6-1.2v.2l-.2,1.2-.2,1-.6,1.8.2-1.2q.2-.6-.4,0A4.605,4.605,0,0,1,3.3-32.4Zm29,2.4a2.226,2.226,0,0,1,.2,1h-.2v.6a2.913,2.913,0,0,1,.2,1.8q-.4-.8-.2-1a.576.576,0,0,1-.2-.4l.2-.4a1.952,1.952,0,0,1-.4-1.4h.2l.2-.2-.2-.2a.576.576,0,0,1,.2-.4Zm-4-34.4q.2.6-1.4,2-.2,0-.2-.4,0-.2.8-.4v-.4l.2-.2A1.308,1.308,0,0,1,28.3-64.4Zm5,26a4.241,4.241,0,0,1-.6,2.4,14.043,14.043,0,0,1,.4-2.4,1.535,1.535,0,0,0,.2-.6l.4.2-.2.4ZM27.5-65.8q0-.2.6-.8.4.4-.2.8l-1.2,1.2a5.2,5.2,0,0,1,.8-1.4ZM38.1-49.2a.576.576,0,0,0-.4.2v.2a1.535,1.535,0,0,0-.2.6q-.4.8-.4.6a1.535,1.535,0,0,0-.2.6q1-.6.8-1.4a.576.576,0,0,0,.4-.2Zm50,8.8q1.4,0,1,.4l-1.2.4ZM15.5-50.6a1.535,1.535,0,0,0-.2-.6q-.6.2-.6,1.4Zm16.8,19v.2h.2v.6h-.4v-.6l.4-.8v.4l.2-.4q.2.2,0,.8v.6q.2-.2-.2-.8Zm-31,6.4q.6.2.2.4a9.784,9.784,0,0,0-.6,1v-.6l-.2.2q0-.8.2-.8a.4.4,0,0,0,.2.6ZM29.5-65l.2-.2-.2.8q-.2,0-.4.4a.576.576,0,0,0-.4.2,1.952,1.952,0,0,0,.4-1.4Zm34,39.8a2.327,2.327,0,0,1,.6-.4l.4-.2q.4-.6.8-.4a.576.576,0,0,0,.2-.4h.2l.2-.2h.2a2.327,2.327,0,0,1-.6.4v.2l-1.2.6a4.629,4.629,0,0,1-1,.6q0-.2.4-.4ZM29.3-66.6q.4,0,0,.2.2.2-1,.6,0-.2.6-.8ZM67.5-32.4l.4.4-1.6.6ZM21.9-58.6a2.51,2.51,0,0,1,.6-1q0-.2.4-.6v.2a1.775,1.775,0,0,1-.2.8l-.4.2Zm20.6,3.4a.576.576,0,0,1,.4-.2l.6-1.2-.4.4-.2-.2q0,.8-.4,1ZM30.7-68a1.357,1.357,0,0,1,1-.4,6.555,6.555,0,0,1-1,.8Zm3.8,42.6v.4l.2-.4v-.4l-.2-.2h.2v-.2h-.2v-.2h-.2v.8h.2l.2.2Zm-.2-45-.2-.2q0-.2.4-.4l.6.2-.8.4a2.327,2.327,0,0,1-.6.4Zm4.4,21.6a2.428,2.428,0,0,1,.6-1.2h-.2l-.4.4q.2.2-.4.8h.2v.2Zm48,10q0-.2-.4,0l-.4.2h-.2l.8-.8ZM51.3-63.4a.53.53,0,0,1-.6.6l-.6.6q.4,0,1.4-1Zm-9,9a.576.576,0,0,0-.2.4v.4q.2-.6.4-.4.6-1,0-.4ZM33.7-39.8l-.4.8Q32.9-40,33.7-39.8Zm2.6-6q0-.2.4-.2a.641.641,0,0,0,.4-.6.576.576,0,0,0-.4.2h-.2ZM62.5-24.6v-.2l.2-.2v.2a.815.815,0,0,1,.6-.2,2.926,2.926,0,0,1-1,.6Zm-27.4,1,.2.2q.2-.6,0-.4l-.2-.2-.2-.2.2.2-.2-.4v-.2h-.2v.2l.2.2a.576.576,0,0,0,.2.4Zm8-31.6.4-.2q0-.4.4-.2l-.2-.6-.2.4-.2.2v.2ZM16.1-53a1.152,1.152,0,0,0-.4.8q.2,0,.6-.8ZM34.5-20.2q-.6.4-.6-.6ZM33.1-69.4a2.327,2.327,0,0,0-.4.6q0,.4-.4.2.4-.4.4-.2l-.2-.2-.2.2a.576.576,0,0,1,.2-.4v.2Zm0-.4q0,.2-.4.4l-.2.2v-.6Zm19.4,47a6.555,6.555,0,0,1,1-.8,2.264,2.264,0,0,1-.8.8Zm21.8-9q.6-.4.6-.2l.4-.2h-.2l.2-.2-1,.4Zm-34.8-42-1,.4.6-.6ZM62.1-24a3.508,3.508,0,0,1,1-.4Q61.5-23.2,62.1-24Zm5.6-3.8a2.327,2.327,0,0,1,.6-.4l-.4.2.2-.2a1.535,1.535,0,0,1-.6.2l-.4.4a.576.576,0,0,1,.4-.2l-.2.2ZM76.3-33l.4-.4.4-.2-.6.2q0,.2-.4.2l-.2.4Zm7.4-4.6q0-.2.4-.4v.6h-.2ZM43.1-55.2l-.2.2q.4.4.6,0Zm-9,30.8a1.535,1.535,0,0,1-.2-.6v-.2l-.2-.2v-.2q-.2,0,.2.8v.4Zm4-24.8a.815.815,0,0,0,.2-.6h-.2l-.2.2Q38.1-49.6,38.1-49.2Zm.4-22.6h-.6a5.959,5.959,0,0,0-.8.6l.8-.4Zm30.4,12-.4-.4v-.2h-.6ZM21.3-57q-.2.4,0,.4l-.6.2q.2.2.6-.2h.2A.576.576,0,0,0,21.3-57Zm14-11.8a12.1,12.1,0,0,0-1,.8v.2ZM41.1-52q-1,.6-.6.4v.4q.2-.4.4-.4A.576.576,0,0,1,41.1-52ZM54.9-65.2a2.926,2.926,0,0,0-1,.6A9.783,9.783,0,0,0,54.9-65.2Zm27,29-.4.2-.4.4v-.2l.2-.2.8-.4Zm-40-17.4q-.2,0-.2.4a.576.576,0,0,1,.4-.2v.2h.2l-.2-.2v-.2Zm-6,31.2-.2-.2v.2l-.2-.2.4.8Zm26.2-2h-.2a.576.576,0,0,0-.4.2h-.2a.576.576,0,0,1-.2.4,2.327,2.327,0,0,1,.6-.4Zm-4,2.6a2.327,2.327,0,0,0,.6-.4q.2,0-.2.4Q58.1-21.6,58.1-21.8ZM52.9-64a1.638,1.638,0,0,0-1,.6Zm1.8,39.6a6.555,6.555,0,0,1-1,.8A6.554,6.554,0,0,1,54.7-24.4Zm12.8-6.8a9.784,9.784,0,0,0-1,.6Q67.5-31.4,67.5-31.2ZM31.9-33.4q.2,0,0,.6l-.2-.2Zm9.8-22a.576.576,0,0,0,.2.4l.2-.2-.2-.2Zm4.2-.2a2.327,2.327,0,0,0-.4.6h.2l.2-.4ZM33.5-26.8v1l.2-.8Zm1.4,5a.576.576,0,0,0,.2.4q.2,0,0-.4ZM1.5-25.6q-.4.2,0-1ZM36.3-42.4a1.535,1.535,0,0,0,.2-.6h-.2Zm30-22.8.2.4v-.6h-.2ZM35.5-35.6l.2-.6a2.327,2.327,0,0,0-.4.6Zm33.2,7.2-.2.2a2.171,2.171,0,0,1,.8-.4h-.4l-.6.4ZM34.5-32.6a.815.815,0,0,0,.2-.6l-.2.2Zm47.8-4,.4-.2v.2h-.2l-.4.2Zm-53-31q-.8,1-1.2,1Q28.3-66.6,29.3-67.6Zm30.2,45q.2.4-.4.4ZM85.1-37.8l.2-.2v.2h-.2l-.4.2.4-.4ZM46.9-60.6a2.327,2.327,0,0,1,.6-.4Q46.9-60.4,46.9-60.6ZM69.3-29a.815.815,0,0,0,.6-.2h-.2q-.6.2-.6.4ZM47.1-57h.2l.2-.2v-.2ZM35.7-41.8v-.4a.576.576,0,0,1-.2.4v.2Zm.2-.6.2-.6a.576.576,0,0,0-.2.4l-.2.4Zm-.4,19.6.2-.2h-.4v.2Zm32.6-8-.4.2,1-.8ZM28.5-63v-.6l.2.2Zm7,41.6h-.2v.2h.4ZM75.3-32.6v.2a2.327,2.327,0,0,1,.6-.4l-.4.2.2-.2ZM72.5-53.2a2.327,2.327,0,0,1-.4.6h.2A1.535,1.535,0,0,1,72.5-53.2Zm-39.8,25q.4.2,0,.2Q32.1-28.2,32.7-28.2ZM29.3-66.8l-.2.2q-.2,0,.2-.4ZM77.5-33.4a13.076,13.076,0,0,1-1.4.8Zm-6.6,3.8-.2.2q.2,0,.6-.4ZM37.3-45.8q-.2-.2-.4.2h.2ZM33.7-22.6q-.2.2-.2-.4Zm37.2-7.2a1.535,1.535,0,0,0,.6-.2h-.4ZM32.5-26.4v.6Q32.3-26.4,32.5-26.4ZM78.1-34h.2l.2-.2q0,.2-.4.4Zm5.2-2.8q-.6.4-.2,0Q83.9-37.2,83.3-36.8Zm-81,9.2q.2-.2,0,.6Zm57.4,5.2.4-.4v.2Zm-19-30.2a2.327,2.327,0,0,1,.4-.6A.641.641,0,0,0,40.7-52.6Zm30.4.6.2-.6v.4ZM34.9-22.6v.2h.2v-.2ZM80.5-35.4h.2l-.2.2h-.2ZM46.9-58.6l.2-.2V-59l-.2.2Zm4.8-5.6v.2l.4-.2Zm11.4-6-.2-.2h-.2l.2.2ZM33.7-32.8v-.4l-.2.4ZM63.1-75l-.2-.2-.2.2ZM35.3-42.2q0-.6-.2,0ZM31.3-66l-1,.6.2-.2Zm3,34.4q.2-.4,0-.6Zm34,3-.4.2v.2ZM34.7-22.4v-.2l-.2-.2v.2ZM44.9-75q.4,0,0,.2l-.2-.2ZM81.5-36h.2a.815.815,0,0,1,.6-.2l-.6.2ZM34.1-34.4v.2h.2v-.2ZM83.5-37l.4-.4v.2ZM31.7-32.2l.2-.6Q32.1-32.6,31.7-32.2Zm53-5.4a.576.576,0,0,0-.4.2h-.2l.4-.2ZM46.5-56.2l.2-.2v-.2l-.2.2ZM34.1-23.6V-24h-.2l.2.2h-.2ZM85.7-38.2h.2l-.4.2-.2.2.2-.2h-.2Zm-38-20.6V-59l-.2-.2v.2Zm-4,1.6v.2h.2v-.2Zm-2.4,4.8a.576.576,0,0,1,.2-.4.576.576,0,0,0-.4.2Zm-5.2,10v.4l.2-.2Zm1-2q.2-.4,0-.6Zm1-2v-.2l-.2.2v.2Zm.2-1.2.2.2v-.4Zm1.6-3q-.6-.2,0,.2Zm-5,13.2q-.6-.2,0,.2Zm4.4-14.8q-.6-.2,0,.2Zm47,13.6q-.6.4-.4.2Zm-50.8,17q.4-.2-.2-.2Zm1.6-26.8q-.4.2,0-.2ZM32.9-33.8q-.2.4-.2,0Zm-.8,3.2q-.4-.2,0-.2Zm34.6,3.8a2.171,2.171,0,0,1-.8.4l.4-.2A.576.576,0,0,1,66.7-26.8ZM33.9-40.6q.2-.4.4-.4Zm.8,7.2q.4-.2,0-.4Zm0-5.8q.2-.4.4-.4ZM1.3-23.6a.25.25,0,0,1-.4,0Zm1-3.4q.2,0,0,.4ZM38.1-43h.2v-.2Zm-1.2,3-.2.2h.2ZM34.1-29.2v-.2l-.2.2Zm51.4-9.2v.2h-.2ZM53.3-64.2l-.4.2h.2Zm17,35h-.2l.2-.2ZM35.9-40.4h-.2l.2.2ZM33.5-27a.25.25,0,0,0,0-.4Zm3-11.4.2-.2h-.2Zm40.8,4.8.2-.2h-.2ZM33.1-36v.2l.2-.4ZM60.3-23.2h.2l-.2-.2ZM42.3-53l.2.2V-53ZM32.7-25.6v.2l-.2-.2ZM49.5-61.8l-.2.2.4-.2ZM33.9-34.2a.25.25,0,0,0,0-.4Zm46.2-1-.4.2h.2ZM42.9-51.8v.2l.2-.2Zm-2.8,1.2h-.2l.2.2ZM66.7-26.8a2.327,2.327,0,0,0,.6-.4l-.2.2Zm2.2-1.8.4-.2h-.2ZM83.5-37l-.4.2.2-.2Zm2-1.4.2-.2v.2ZM50.3-63.2a.815.815,0,0,0-.2.6Zm2-1.4h-.2v.2ZM41.7-52.2v-.2l-.2.2Zm9.6-11.6-.2-.2v.2ZM38.7-48.2h-.2v.2Zm3.6-2.2-.2.2h.2ZM34.5-23.6h-.2v.2ZM37.9-73l.2-.2v.2ZM68.3-28l.2-.2h-.2ZM44.7-54.4l.2.2v-.2ZM50.1-62h.2l-.2-.2Zm-14,17v-.2h-.2Zm10-10.8h.2V-56Zm-5.4,1.2v.2l.2-.2ZM34.3-22.8v.2h.2Zm4-50.4h-.2l.4-.2Zm41,38.6a.576.576,0,0,1,.4-.2q-.4.2-.4.4ZM58.5-22.2v.2h-.2Zm15.8-9.6h-.2v.2Zm-39-9.4.2.2a.576.576,0,0,0-.2-.4Zm31.2,14h.2v-.2Zm17.4-10,.2-.2Q84.5-37.6,83.9-37.2ZM35.5-43.6q.4,0,0-.2Zm-1.4,5q.6.2.2,0Zm39.8,6.8q.2-.4-.2.2ZM32.3-68.6a1.535,1.535,0,0,1-.6.2ZM81.9-36.2l.2-.2h.2ZM53.7-22.4a2.327,2.327,0,0,0-.6.4A2.327,2.327,0,0,1,53.7-22.4Zm111.4-47v-.2a5.958,5.958,0,0,1-.8.6,9.781,9.781,0,0,1-1,.6l.2.2a.576.576,0,0,1,.2.4,2.327,2.327,0,0,1-.6.4,2.327,2.327,0,0,0-.6.4q-.4.4.4,1a.4.4,0,0,0,.2-.6.653.653,0,0,1,.2-.8q0,.6.4.6t.6-.6q-.2-.2-.6,0l1.4-1.6v-.2l.2-.2,1.2,1.2-.4-.2q-.2.4-1,1.6a4.338,4.338,0,0,1-1.2,1.4v-.4q-.2-.2-.4.2-.4.4,0,.2-.2.2-1.8,1.4-1.4,1-1.2,1.6-.4.2-.4-.4.2-.6-.2-.4a.25.25,0,0,1,0-.4l.6-.4v.4q.4-.2,0-.6a3.273,3.273,0,0,1-.8-.2.784.784,0,0,1-.6.8l-.8.4-.2.4q-.2.4-.4.4a.576.576,0,0,0-.4.2l-.4.4a1.535,1.535,0,0,0-.2.6h-.2a26.722,26.722,0,0,1-1.6,2.2l.8-.8q-.2.8,0,.4l.6-.6a.576.576,0,0,1-.4-.2q.8,0,2-1.8a2.666,2.666,0,0,1,1.2-1q-.4.6-1.2,1.6a2.517,2.517,0,0,0-1,1.4q.8-.6,2.4-2,.4.6-1,2.4a2.062,2.062,0,0,0-.8.4q-.8.4-.8.8l-.6.6q-.2.4-.4,0-.2,0-.6.8a1.535,1.535,0,0,1-.2.6h-.2a.4.4,0,0,0-.6.2l.2.2v.2l-.2.2h-.2a.924.924,0,0,1-.6,1,1.944,1.944,0,0,1-1,.4,9.763,9.763,0,0,0-1.8,2,17.78,17.78,0,0,1-1.8,2.2,59.483,59.483,0,0,1-4.2,4.8,1.288,1.288,0,0,1-.8.6l-.8.8a5.959,5.959,0,0,0-.6.8,5.959,5.959,0,0,1-.6.8,1.73,1.73,0,0,1-1.4.8,1.152,1.152,0,0,1-.4.8q-.6.4-.2.8-1.2,1.4-3.2,3.4t-3.4,3.6v.6q-.2.4,0,.6a1.8,1.8,0,0,0-1.2,0,5.579,5.579,0,0,1-1.2,2,4.952,4.952,0,0,0-1,1.8,1.612,1.612,0,0,0-1.2.8q-1,1.4-1,1.2,0,.2-.8.6a5.958,5.958,0,0,0-.8.6q-2.4,3.4-2.6,3.6-1.2,1.4-1.6,1a4.6,4.6,0,0,1-1.4,2.4,4.813,4.813,0,0,1-1.2,1.2,3.432,3.432,0,0,1-1,1,3.134,3.134,0,0,1-.6.8,5.959,5.959,0,0,1-.6.8l-.4.4-1.2,1.6q-.8,1.4-1,1.8l-.2.2q.2.2.6,0l.6-1.4a4.29,4.29,0,0,1,.8-1l.4-.4q-.2-.4.2-.4l.6-.6.2.4.6-.6h-.2q.6-1.4.8-1.2a4.605,4.605,0,0,1-.6,1.2l.2-.2a4.29,4.29,0,0,1,.8-1,5.855,5.855,0,0,0,1-1.6q0,.4.4,0a.576.576,0,0,0,.4-.2l.4-.4-.2.8a.641.641,0,0,1,.6-.4,2.327,2.327,0,0,0,.6-.4l-.2.6a3.134,3.134,0,0,0,.6-.8,3.134,3.134,0,0,1,.8-.6l-.4-.2a5.048,5.048,0,0,0,1.2-.6,9.043,9.043,0,0,1,1.2-.8q.4-1.4.4-1.2a1.152,1.152,0,0,0,.8-.4l-.6.2a14.142,14.142,0,0,1,2-2,18.54,18.54,0,0,1,2.4-1.8q-.4.4,0,.4l.6-.2,1.2-1q0,.2-.6.8a5.692,5.692,0,0,0-1,1.2,1.582,1.582,0,0,1,1,.2v-.4a2.428,2.428,0,0,0,1.2-.6.576.576,0,0,1-.2.4.576.576,0,0,0,.2.4q.6-.6.4-1h.4q.6-.2.4-.4l-.2-.2h.4a.576.576,0,0,0,.4-.2.784.784,0,0,0,.8-.6l-.2.8q.2,0,.4-.4l.2.2a2.165,2.165,0,0,1,1-.8q.8-.4.8-1l.4.8q.6-.4.6-.8v-.2q.4.2,1.4-.8a26.671,26.671,0,0,0,3.2-2,30.942,30.942,0,0,0,2.8-2.4l-1,.2a4.29,4.29,0,0,0-1,.8l-1.2.6a10.273,10.273,0,0,1,2.4-2,6.98,6.98,0,0,0,1.8-1.2,1.308,1.308,0,0,1-.6.6l1.2-.4a3.134,3.134,0,0,0-.8.6,3.134,3.134,0,0,0-.8.6v.2a.25.25,0,0,0,.4,0,19.656,19.656,0,0,0,2.6-2,9.986,9.986,0,0,1,3-1.8q.2,0,.6-.4a3.07,3.07,0,0,1,1.2-.4,11.633,11.633,0,0,1,3-2,10.29,10.29,0,0,1,2-.8,7.761,7.761,0,0,0,1-.4,21.136,21.136,0,0,1-3.6,2.8l-2.4,1.4-2.4,1.6h.4q-1,.8-4.2,3a29.793,29.793,0,0,0-4,3h-.2a2.264,2.264,0,0,0-.8.8,2.264,2.264,0,0,1-.8.8l.4-.4-.2-.2-1,.8q-.8.8-1.2.8a.815.815,0,0,0-.2.6q0,.2-.4.4h-.6a6.406,6.406,0,0,0-1.4,1.4l.4-.2q-.4.2-1.6,1a3.939,3.939,0,0,1-1.4,1v.2q-.2.2-7,4.4a45.469,45.469,0,0,0-4.2,4,.815.815,0,0,1,.2-.6,7.947,7.947,0,0,0-1,1.2,3.571,3.571,0,0,1-1,1q0,.4.4,0,.4-.2.2.2a1.535,1.535,0,0,1-.6.2h-.2l-.2.2h-.2a2.666,2.666,0,0,0-1.2,1,.25.25,0,0,0,.4,0q.2,0,0,.4a6.472,6.472,0,0,0-2.6,1,8.768,8.768,0,0,1-2.4,1.2l.4.4-1.2.8-1.2.6-.4.4-.8.4q0,.2-.4.2a1.535,1.535,0,0,1-.6.2,1.612,1.612,0,0,1-1.2-.8,1.357,1.357,0,0,1-.4-1v-.6l.2-.4v-.2l.2-.2q1-1.6.8-1.2a3.29,3.29,0,0,0,.2-1l.6-.4V-11l.2.2a1.638,1.638,0,0,0,.6-1l-.2.2h-.4l-.4.4h-.4l-.2.2h-1.6a36.4,36.4,0,0,1-4,2.8,3.134,3.134,0,0,0-.8.6,1.775,1.775,0,0,0-.2-.8.815.815,0,0,0-.6-.2q.6.4-.2.6-.2.4-.4,0h-.4a.815.815,0,0,1,.2.6,2.916,2.916,0,0,0-1.2.4q-.6.2-.2.8a1.158,1.158,0,0,0-.8-.2h-.4q.2.2,0,.6l-.8.8q-.2.6-.6.4-.2-.2.2-.4a.641.641,0,0,0,.4-.6h-.8v.2h.4a.354.354,0,0,1-.4.4h-.2v-.2a1.272,1.272,0,0,0-1,.8q0,.2.8-.2.4-.2.4.2a3.273,3.273,0,0,0-.8.2.576.576,0,0,1-.4.2v.2a7.139,7.139,0,0,0-1.8.6q-1,.2-1.2.6-.4-.4.4-.8a1.436,1.436,0,0,0,1-.6L93.3-2.8a.576.576,0,0,1,.4.2,12.788,12.788,0,0,1-2,.4l-.8.4A48.551,48.551,0,0,1,85.5-.2a25.675,25.675,0,0,1-6.4,0h-.8L76.7-.6a6.013,6.013,0,0,1-1-.2l-.8-.4h-.2l-.2-.2a5.47,5.47,0,0,1-1.2-.2l-.6-.2q-.2,0-.6-.4a2.749,2.749,0,0,1-1.4-.6,7.737,7.737,0,0,1-1.4-1,2.327,2.327,0,0,1-.6-.4,5.958,5.958,0,0,0-.8-.6,3.134,3.134,0,0,0-.6-.8l-.6-.6L66.3-7a5.959,5.959,0,0,1-.6-.8.815.815,0,0,1-.2-.6l-.4-.8a1.775,1.775,0,0,0-.2-.8l.2.2h.2l.2-.8-.2-.2q-.2.2-.2-1.2-.4.6-.6,0a.815.815,0,0,1-.2-.6.576.576,0,0,0-.2-.4v-1.6a3.29,3.29,0,0,0,.2-1V-17a2.327,2.327,0,0,1,.6-.4l.4-2-.2.2a.576.576,0,0,1-.2.4v.6q-.2,0-.2-.4a3.29,3.29,0,0,1,.2-1,3.48,3.48,0,0,1,.4-1.4,1.42,1.42,0,0,1,.2-1.2q.2-1,.8-1.2-.4-.4.2-1.6.4-.6,1.4-2.4v.2a1.535,1.535,0,0,1,.2-.6,3.48,3.48,0,0,1,.6-1.4,8.767,8.767,0,0,0,.8-1.6v.2l.2-.4a1.775,1.775,0,0,0,.2-.8,12.1,12.1,0,0,1,.8-1,2.326,2.326,0,0,0,.4-.6,1.535,1.535,0,0,0,.2-.6l.2-.2q.6-.8,1-1.4v-.2q1.6-2.6,3.6-5.4A184.129,184.129,0,0,1,92.5-60.6a62.016,62.016,0,0,1,7.4-6.2,17.9,17.9,0,0,1,2.2-1.6l.4-.2a1.944,1.944,0,0,1,1-.4l-.2.2-.2.2a2.326,2.326,0,0,0-.6.4l-.2.2-.2.2.2-.2-.2.2a3.134,3.134,0,0,1-.8.6,6.554,6.554,0,0,1-1,.8l.2-.2a50.523,50.523,0,0,0-3.8,3.8,14.637,14.637,0,0,1,2.8-2.4q.8-.4,0,.4-.2.4-4.4,5,1.4-1.4,1.4-1.2,0,.4-2.4,2.6A39.983,39.983,0,0,0,90.9-55a20.671,20.671,0,0,0,3-2.8q1.2-1.4,2-2.2l.6-.6a.576.576,0,0,1,.4-.2.576.576,0,0,1,.4-.2l-.2.2a9.786,9.786,0,0,0-.6,1q-.8,1-1.2,1.4h.2l-.6.6v-.6a34.511,34.511,0,0,1-3.2,3.2q-.2.6.2.2,1.4-1.2,1.6-1l.2.2a2.062,2.062,0,0,0,.8-.4l.2-.2v-.4q-.2.2-.6,0-.4,0-.8.6v-.2l.2-.2q.2-.4.4-.4l-.2.2q.8-.8.6-.8l-.4.6a3.019,3.019,0,0,1,1-1.2l-.4.4.2.2q-.2.6.2.6a9,9,0,0,0,1.8-2.2,7.207,7.207,0,0,1,2.4-2.2.25.25,0,0,0,0-.4q0-.2.4-.2,0-.2-.4-.4h-.4a.576.576,0,0,0-.2.4q-.2.2,0-.4a.4.4,0,0,1,.6-.2v.2a.576.576,0,0,1,.4-.2h.2l-.2-.2h-.4q-.6.2-.6-.4,0-.2.4-.2l.2.2a.576.576,0,0,0-.2-.4l.4-.4a.641.641,0,0,0,.6-.4.576.576,0,0,1,.2.4v.2q.6.2,1.2-.8a.815.815,0,0,0,.2-.6h.2l.2-.6.2.2q.2-.4-.4-.4a1.535,1.535,0,0,0-.6.2h-.4a.924.924,0,0,1,1-.6.806.806,0,0,0,.8-.4q.2.2-.2.4a.25.25,0,0,0,0,.4,2.326,2.326,0,0,0,.4-.6l-.2-.2V-67l-.6-.2q1-1,1-.8,0,.4.4.2a.354.354,0,0,0,.4-.4l-.2-.2a3.134,3.134,0,0,1,.6-.8q.2.4,1-.4a1.152,1.152,0,0,0,.4-.8h.4q.2,0,.6-.4a1.175,1.175,0,0,1,1-.6,1.14,1.14,0,0,1,.4-1.2,1.775,1.775,0,0,0-.8.2q0-.6.8-1l1-1q.2.2-.2,1a5.958,5.958,0,0,0-.8.6q.2.2.8-.4a3.508,3.508,0,0,1,1-.4l-.2-.2a.576.576,0,0,0-.2-.4q-.2-.4.4-.8a.641.641,0,0,0,.6.4.641.641,0,0,1,.6.4q-.4,0-.4.2a2.5,2.5,0,0,0,1.6-.2q.4.4,0,1.2-.2.8.2.8a2.428,2.428,0,0,1-.6,1.2,4.29,4.29,0,0,0-.8,1l1.2.2q.2.4-.4.8.2-.8-.8-.2l-1.2,1q-.2-.6.6-1l.4-.4a3.273,3.273,0,0,0-.8.2h-.8q-.6,0-.6.2-.2-.2,0-.6-.6,0-1.8,1.6a41.752,41.752,0,0,0-4.6,5v-.2l-.2-.2q0,.2-.4.4t-.4.4q0,.2.4,0,.2-.2.4.2a.906.906,0,0,0-1,.2q-.6.6-.8.6,0,1.2-.8,1.2a.576.576,0,0,0,.2.4l-.4.6q-.2,0-.2-.4v-.4q-.6.6,0,1l-.6.6q.4,0-1.6,2.4l-.4.4a3.134,3.134,0,0,1-.6.8,1.288,1.288,0,0,1-.6.8v-.2l-.4.4v.2l-.6.6a7.054,7.054,0,0,1-1.8,2.6q-.2-.2.2-.4a.576.576,0,0,0,.2-.4q-.2,0-.4.4l-.4.4a.576.576,0,0,1-.2.4l-1.2,1.2h.2a.576.576,0,0,1,.4-.2l.2-.4v.2l1.2-1q.4.2.4.4v.2q.2-.2,0-.6v-.6q.4,0,.8-.6.2-.8.6-.8V-53a17.353,17.353,0,0,0,1.4-1.8q.8-1,1.2-.8,0-.6,2.8-3.8a20.413,20.413,0,0,1,2.6-2.6.641.641,0,0,0,.4.6l-.4.6q.2.2,1,0a.784.784,0,0,1,.8.6q-.2,0-.8,1.6a12.1,12.1,0,0,0-.8,1q-.2.6,0,.8a1.288,1.288,0,0,1-1,0q0-.2-1.6,1.6v.4l.2.2q0-.2-.6.4l-1.2,1.4-1.6,1.6q-.4.4-.4.6-.2,0-.2.4a.576.576,0,0,0-.2.4l-.8.8q-.4.4,0,1l-.4-.4a18.075,18.075,0,0,1-1.8,2.2,15.893,15.893,0,0,0-2,2.4l.2.4q-.8-.2-1,.4v.6a1.436,1.436,0,0,1-1,.6q.2.4-.6,1.4a2.666,2.666,0,0,1-1.2,1q0,.2-3.4,5.4a2.327,2.327,0,0,0-.4.6,2.326,2.326,0,0,0-.4.6q-.4.6-.6,0-.2.2,0,.6,0,.2-.6.2a1.535,1.535,0,0,0,.2.6q-.8,1.2-2.6,4.4v-.6q-.4,0-.8,1-.6,1-.4.8l-.8,1.4a.576.576,0,0,1-.2.4h.2v.2a14.711,14.711,0,0,1-.6,1.6l-.2-.2q-.2,0-.2.6v.8l-.2.2-.2-.2q-.4.4-.4.6h.2a1.582,1.582,0,0,0-.2,1,2.915,2.915,0,0,1-.4,1.2,2.327,2.327,0,0,0-.4.6.576.576,0,0,0-.2.4,1.535,1.535,0,0,0,.2.6l-.2.2q-.4,0-.4.2v.8q0-.2-.2.6,0,.2.6.4-.2.2-.8,0,0,.2.4.6a.576.576,0,0,1,.2.4.576.576,0,0,0-.4-.2v.6q.4,0,1,.8a.576.576,0,0,0-.4.2l-.2.2a2.327,2.327,0,0,1,.6-.4v.6q0,.4.4.2v-.2l-.2-.2V-12l.4.2h.2l.4.2.4.4-.4.8v.2l.2.2h.2q.2.2.6,0l-.2-.2.2-.2-.4-.4V-11h.4q.6.2.2,0v-.2l.2.2.4.2a1,1,0,0,0,1.2,0l.2-.2q0-.4.4-.2a1.535,1.535,0,0,0-.2.6q0,.2.4.2.2-.4-.2-.4.4-.4,1,0h-.4a.4.4,0,0,0,.6.2q.6-.2.8,0a.641.641,0,0,1,.6-.4,1.535,1.535,0,0,1,.6.2.637.637,0,0,0,1-.2.576.576,0,0,0,.4.2,3.273,3.273,0,0,0,.8-.2,8.426,8.426,0,0,1,1.4-.2v.4l.4-.4h.8q.6.2.8-.2,0,.4-.2.4h-.2q.2.4.6,0a.815.815,0,0,0,.2-.6q.2.4.4.2a.25.25,0,0,0,0-.4,1.535,1.535,0,0,0,.6.2v-.2a4.2,4.2,0,0,1,2.2-.6h.8a7.76,7.76,0,0,0,1-.4l.4-.4a.4.4,0,0,1,.6-.2q0-.4-.2-.4a2.461,2.461,0,0,1,1-.4,6.648,6.648,0,0,0,1.6-.4q.2,0,.2-.4.4-.2.4-.4a2.749,2.749,0,0,1,1.4-.6l.4-.2a10.508,10.508,0,0,0,1.6-1,.815.815,0,0,1,.2-.6,2.327,2.327,0,0,0,.6-.4l.4-.2a3.134,3.134,0,0,1,.8-.6h-.2q-.2-.4.4-.2v-.2a.576.576,0,0,1,.2-.4h.4l.4-.2a1.152,1.152,0,0,1,.4-.8,2.062,2.062,0,0,0,.8-.4l.4-.4h.2l.2-.2V-22a.576.576,0,0,1,.2-.4v.2l.6-.6a1.535,1.535,0,0,1,.2-.6V-24a.576.576,0,0,0,.4.2q.2,0-.2.6l.6-.6q0-.2-.4,0a1.175,1.175,0,0,1,.6-1,1.357,1.357,0,0,1,1-.4.576.576,0,0,1,.2-.4q0,.2.4-.4.4-.2.4-.4v-.2a12.3,12.3,0,0,1,4-4.4q0,.2.4-.6a2.327,2.327,0,0,0-.4.6,10.509,10.509,0,0,1,3.6-4.4l.4-.4q-.4,0,0-.2.6-.6.4-1,.2,0,.2.4l.4-.4v-.2l1.4-1.4h-.2l1.2-1.2a.576.576,0,0,1,.2-.4l-.2-.2a6.555,6.555,0,0,0,1-.8l1.2-1.6q2.4-3,4.2-5.4,5.8-7,7-8.8,2.8-3.8,4-5.4,6.4-7.8,11.2-14l2.8-3.8q0-.2.6-.6l.2.2a.576.576,0,0,1-.2.4l1.6,1.6a.576.576,0,0,1,.2-.4l-1.6-1.6,1.8,1.6.2.2a2.327,2.327,0,0,0-.6.4l.2.2q.4-.2.4-.4l.8.8q-.4.4-.4.6l.4-.6.4.4a2.327,2.327,0,0,1-.6.4l.4.4v.2l.4-.8h.2v.2l.2-.2.2.4.2.2v.2l.2.2-.4-.2v-.2a2.326,2.326,0,0,0-.6.4l.4.4v-.4h.2l.4.4v-.4h.2l1,1h-.2a3.273,3.273,0,0,0-.8.2l.2.4.2.2q-.2-.4,0-.4l.4-.2h.2v-.2l.6.6h-.2l-.6.6a2.327,2.327,0,0,1,.4.6.576.576,0,0,0,.2-.4q.2.4,0,.6l.4.4a.576.576,0,0,1,.2-.4l.2-.2h.2a2.326,2.326,0,0,0-.4.6v.2l.2.2.6.8a.576.576,0,0,1,.2-.4l.2-.2a.354.354,0,0,0-.4-.4v-.2h.2l-.2-.2v-.2h-.2l-.2-.4-.4-.6,1,1,.2.4.4.4a.576.576,0,0,1-.2.4l.2-.2h.2l.2.2-.2.2.4.4-.2.2a.4.4,0,0,0-.6.2l.4.4a3.133,3.133,0,0,1,.6-.8v-.2l-.2-.2,1.2,1,.2.2q0,.4.2.4h.2l.2.2h-.2l.2.2v.2l.2.2Zm-52,54.2v.4h-.2l-.4.8q.2.2,0,.6.4,0,1.2-1.2l.2.2.2-.2.2-.6a16.551,16.551,0,0,1,2.2-2.8l.8-1-.8.4q0-.4,1-1.2v.4l.6-.6q0,.2.4-1a.576.576,0,0,1,.2.4.576.576,0,0,0,.4-.2h-.2V-21a.25.25,0,0,1,.4,0v-.4a.25.25,0,0,1,0-.4l.4-.2a2.327,2.327,0,0,1,.4-.6.653.653,0,0,1-.2.8l.4-.4q-.2-.2,0-1a1.175,1.175,0,0,1,1-.6l-.6.8a2.326,2.326,0,0,1-.4.6q.2,0,.8-1l.8-1.2a.641.641,0,0,1,.6-.4l.2-.2q0-.2.6-.6V-26q-.2-.2.2-.4a.641.641,0,0,0,.4-.6.85.85,0,0,1,0,.8.576.576,0,0,1-.2.4.25.25,0,0,0,0,.4q.8,0,2-2.6-.2,0-.4.4a2.327,2.327,0,0,1-.6.4.576.576,0,0,1-.4.2q0-.4.8-.8.4-.4.2-.6t1-.8l-.2-.2a1.793,1.793,0,0,0,1.2-1.2l.2.2a2.326,2.326,0,0,1,.4-.6h-.4v-.2q-.4-.2-.4-.4v-.2l-.2.2q.2.2,0,.6v.4a.576.576,0,0,1-.4-.2v.2l-.2-.2a.576.576,0,0,0,.2.4,1.612,1.612,0,0,0-1.2.8l-.4.4a1.357,1.357,0,0,0,.4-1,16.067,16.067,0,0,1-3.4,2.4q.6-1.4,1.4-1.2l-.2-.2a19.974,19.974,0,0,1,1.8-2l.2-.4.2-.2h.2l.2-.2.2-.4,1-1q2.6-2.8,3.8-4a2.327,2.327,0,0,0,.4-.6v-.2q.4-.4.6-.2V-39l1.2-1,2.8-3.2q.6-.8,2.4-3.4a.576.576,0,0,0-.2-.4,17.356,17.356,0,0,0-1.4,1.8,2.376,2.376,0,0,1-1.4,1.2q-1.8,2.6-2.6,2.8a4.292,4.292,0,0,1-.8,1.4v.4a.576.576,0,0,1-.4.2.815.815,0,0,1-.6.2q-.2,0,.2.6a3.134,3.134,0,0,0-.8.6q-.2-.2.2-.4l.4-.4-.4-.2-.4.4-.2.6-.6.6a19.851,19.851,0,0,0-2.4,3.2q-.2.2-5,6.2h.2l-.2.4a.25.25,0,0,1,.4,0,.25.25,0,0,1-.4,0l-.2.4a2.327,2.327,0,0,0,.6-.4.815.815,0,0,0,.2.6l.6.6q-.6,0-1,.8-.2.6-.4.6V-25q0-.4-.4,0-.2.4-.4,0v.6q.2.2-.2.4l-.4-.4a6.013,6.013,0,0,0,.2,1l-.6.2q-.4,0,0,.4a.25.25,0,0,1-.4,0,.815.815,0,0,0-.6.2q-.2-.4-.4-.4h-.4l-.2.2v.2h.4v-.2q.4.2-.2,1.2a6.965,6.965,0,0,1-1.4,1.4q0-.2.4-.6a.641.641,0,0,0-.6.4q-.2.6-.4.6l.4.2q-.2,0-.6.4t-.4-.2l-.2.8q-.4,0-.6.6v.6q.2.2.6,0,.2,0,.2.4-.2.2-.6,0-.4-.4-.4-.6a1.21,1.21,0,0,0,0,1.8.576.576,0,0,1-.4.2.576.576,0,0,0-.4.2q0-.6-1.2-1v.4h-.2v.4q-.2.2-.6,0l.2.2a.25.25,0,0,1,0,.4h-.8q.4.6-.8,1.4a.815.815,0,0,1,.6.2q.2,0-.4.6l.2.2.4-.4q.2-.2.4.2-.8.4-.6.8a1.308,1.308,0,0,1-.6-.6,2.327,2.327,0,0,0-.6.4q0-.2-.4-.4-.2-.2.4-.2a.85.85,0,0,0-.8,0q-.2.2.4.4.4,0-.2.4l.6.2a.25.25,0,0,0,.4,0,1.308,1.308,0,0,1-.6.6h.4a1.775,1.775,0,0,0,.8-.2h.2l.2-.2h.2l.2-.2h.4q0-.2.4-.2v-.4a1.193,1.193,0,0,1-.2-1.2.653.653,0,0,1-.8.2,2.666,2.666,0,0,0,1.2-1,2.327,2.327,0,0,1,.4-.6h.2v-.2ZM143.9-55v-.2l-.4-.2q-.2-.4.4-.6.2,0,.2.6l.6-.8h-.6q0-.6.8-1,1-.6,1-1a.576.576,0,0,0,.4.2,3.571,3.571,0,0,0,1-1q0-.2.4-.6l-.2.4a2.326,2.326,0,0,0,.4-.6l.4-.4q.4-.4.4-.6.4-.6.2-.8h.2l.2.2a24.355,24.355,0,0,0,1.8-2l-.4.2.6-.8a12.1,12.1,0,0,1,.8-1v.2l.6-.6v-.4a.576.576,0,0,1-.4.2,1.535,1.535,0,0,1,.2-.6q-.4-.4-.8.6h.2a3.877,3.877,0,0,1-1.4,1.8q0,.4-.4.2l-.2.2v-.8h.2l-.4-.6a.815.815,0,0,1-.2.6q0,.2-.4,0v.2q.4.2.2.4-.4,0-.8.8t-1,.8v.2q0,.2-.4.4l.2.2-1,1q-.2,0-.4.4h.2q.2,0-.4.2a.576.576,0,0,0-.2.4h.2q.2.2-.2.4.2.2.6-.4t.6-.4l-1,1.2a2.326,2.326,0,0,1-.4-.6,8.966,8.966,0,0,0-1,1.4l-.2.4-.4.4q.4.2,0,.6l-.8.8-.2-.2-.2.6ZM108.5-11.2a.576.576,0,0,1-.4-.2.576.576,0,0,1-.2.4q-.2-.6-.6-.4.2.6-.2.6h-.8q.2.6-1.2,1.2a.25.25,0,0,1,0-.4q.4-.2.2-.4a.354.354,0,0,0-.4.4q0,.4-.2.4,0,.6.4.6h.6q-.4.4-.4.6a2.925,2.925,0,0,0,1-1.4q.4-.4.8.2ZM155.3-69q.4,0,.4-.2l.2-.2-.4-.6a27.263,27.263,0,0,1-2,2.2q-.6.2.6-1a.784.784,0,0,0-.8.6,1.288,1.288,0,0,0,0,1q.2.2.6-.2.2-.4.4,0,.2-.2,1-1.2-.4,0-.4.2-.4,0,0-.2Q154.9-68.8,155.3-69Zm9.2-1.4-.4-.4v.2q-.4.6-.4-.2-.6.6-.4.8l.2.4-2,2.4a.576.576,0,0,1,.4-.2l1.2-1,.6-.6q0-.2.4-.4a.576.576,0,0,0,.2-.4h.4a.576.576,0,0,0-.4-.2l.2-.2ZM73.7-14v-.2l-.2-.4-.2.2a3.29,3.29,0,0,1,.2-1v-.8h-.2l.2-.2.4-.2a2.226,2.226,0,0,0,.2-1v-1l-.2.4v-.6a.4.4,0,0,0-.2.6.576.576,0,0,1,.2.4,8.878,8.878,0,0,0-.8,1.6v2.6a2.171,2.171,0,0,0,.4.8v-1.4Zm28.4,7q1-.2,1.8-.4l-.2.2a8.5,8.5,0,0,0-1.2.8q-2.2,1.4-2.2,1.2-.4-.2.6-.8Q102.1-6.6,102.1-7Zm59.8-58.2q.8-.4.6-1-.6.4-.4.2,0-.6-.2-.6L160.1-65q.2.4,1,0l.6-.6v.2Zm-58.4,13a3.476,3.476,0,0,1,1-2q1-1,1.4-.6-.4.4-1.2,1.4Zm48.8-16q0,.2-.4.6h.6a.576.576,0,0,1,.4-.2,2.628,2.628,0,0,1,1.8-2.2q-.4-.2-1,.4v-.2a3.571,3.571,0,0,1-1,1v.4l-.2-.2Zm-65,24.8q0,.4-.2.4l.4.4a5.511,5.511,0,0,0,1-2.2q-.4,0-.4.2-.2,0-.2.4v.2a.576.576,0,0,1-.4.2v.2Zm23.8-22.8a.576.576,0,0,1,.2-.4h.2q-.2-.2-.6,0-.4.6-.6.6-.2-.6.2-.8l.8-.6q.2,0,.2.4h.2v.4l-.2.4ZM100.3-52.6a1.346,1.346,0,0,1,.6-1.2,2.327,2.327,0,0,1,.6-.4l.6-.6q0,.4-.8,1.2Zm28.6,19.2a14.064,14.064,0,0,0-1.4,2h.4v.2A9.575,9.575,0,0,0,128.9-33.4ZM64.9-17q-.2-.2-.4.4.2,0,0,.6a.53.53,0,0,0,.6.6v-1.4h-.2ZM83.1-9.4a1.535,1.535,0,0,1-.2-.6,2.392,2.392,0,0,1-1.4,0,.53.53,0,0,0,.6.6Zm70.4-57.2a.576.576,0,0,1-.2.4l.6-.6h-.6q0-.6-.4-.2l-.4.2a1.535,1.535,0,0,0,.2.6l-.2.2q.2.2.4-.4A.4.4,0,0,1,153.5-66.6Zm-54.8,48q0,.4-1.6,1.4-.2-.4.6-.8l.6-.2Q98.5-18.6,98.7-18.6ZM66.9-6.6a2.51,2.51,0,0,0,.6,1q.4,0,.2-.6-.6-.6-.6-.8v-.2A.815.815,0,0,0,66.9-6.6ZM107.3-72q-.6,0-.6.4-.4.6-.8.6a9.783,9.783,0,0,1,.6-1Q106.9-72.6,107.3-72ZM75.9-22.6a.806.806,0,0,0-.4.8,2.51,2.51,0,0,1-.6,1,.784.784,0,0,0,.8-.6A3.775,3.775,0,0,0,75.9-22.6Zm46-1.4q-.4.2-.8,1.4a3.969,3.969,0,0,0,1.2-1.4ZM97.3-61.2l.4-.8.6-.6a1.535,1.535,0,0,1-.2.6,1.775,1.775,0,0,0,.2.8h-.2v-.2h-.6ZM84.1-37.8q.2-.4.4-.4-.6-.6-1,.6h.2l-.2.4A1.308,1.308,0,0,0,84.1-37.8ZM97.9-59.2a.4.4,0,0,0-.2.6,1.927,1.927,0,0,0-1,.8,12.1,12.1,0,0,0,1-.8,1.535,1.535,0,0,1,.6-.2l-.2-.4.4-.4Q98.1-59.8,97.9-59.2Zm8.2-5.8a1.285,1.285,0,0,1,1-1Q106.9-64.8,106.1-65Zm32,15.8h.4v-.4l.4-.2.2-.2.2-.4h.2q.2-.4-.2-.2,0,.2-.4.2a.576.576,0,0,1-.2.4l-.4.4Zm-32-6.4q.4-.2.2-.4.6,0,.4.4-.6.6-.6.8A.5.5,0,0,1,106.1-55.6Zm20.6,6q-.6.4-.8,0,.2-.8.6-.4a.576.576,0,0,1,.4.2Zm-41.2,16a1.535,1.535,0,0,0,.6-.2q.4-.2.4-.4a.25.25,0,0,1,0,.4,5.959,5.959,0,0,1-.6.8l-.2-.4ZM120.3-26a1.79,1.79,0,0,0,1.2-1,.815.815,0,0,0-.6.2l-.2.2v.2ZM65.1-14.8l-.4.4a1.32,1.32,0,0,0,0,1.4q0-1,.4-1.2ZM81.3-9q.2-.4.4,0t.4.2q0-.6-.4-.2v-.4q-.2-.2-.6,0Q80.9-9.2,81.3-9Zm71.4-47.6a5.956,5.956,0,0,0,.8-.6,2.061,2.061,0,0,0,.4-.8l-1.2,1.2ZM74.9-10.8a1.535,1.535,0,0,1-.6.2q.4-.4,0-.4a.576.576,0,0,0-.4-.2l.2.2v.2l.2.2a.576.576,0,0,0,.2.4h.2l.2-.2Zm91-33.6q1.2-.2.8.2l-1,.4Zm-50.2,27a.4.4,0,0,1-.2-.6l.4-.6A1.322,1.322,0,0,1,115.7-17.4ZM138.3-47a6.554,6.554,0,0,0,.8-1l-.8.4a.815.815,0,0,1-.2.6Zm10.2,11.2a4.384,4.384,0,0,1-1.2.6l.8-.8Zm-35,1.4a.25.25,0,0,1,0,.4l-.4.4Q112.9-34.6,113.5-34.4Zm-8.4-34.2q-.4-.6-.8.2a.25.25,0,0,0,0,.4l.2.2q-.2-.4,0-.6ZM74.9-10.8q.6.8.8.6l-.2-.2a.576.576,0,0,0-.2-.4l-.2-.2Zm31.8-51.4a.641.641,0,0,1-.6.4q-.2,0,.2-.4.2-.4.4-.4Zm45.6,6.6q.4-.2.2-.4t-.6.4q-.4.4.2.2ZM109.1-67.8a2.327,2.327,0,0,1-.6.4q-.2-.2.2-.4.4-.4.6-.4T109.1-67.8ZM164.9-43q0,.2-.4.6l.2-.4q.2-.4-.4-.2l-.2.2V-43l.4-.4ZM124.3-28.6a2.061,2.061,0,0,1-.8.4,2.264,2.264,0,0,1,.8-.8Zm29.2-41.6q.2.2.6,0l.4-.4-.8.2ZM126.9-29.4v-.4a.815.815,0,0,0-.2.6l-.2.2a1.308,1.308,0,0,1-.6.6h.4Zm-50,5.8a.576.576,0,0,0-.4.2q.2,0,.4.4.4-.8.2-.8Zm52-12.6a2.926,2.926,0,0,1-1,.6A.924.924,0,0,1,128.9-36.2ZM97.3-4.8a10.974,10.974,0,0,1-1.4.6.576.576,0,0,0-.2.4h.2Q95.9-4,97.3-4.8Zm53.8-60.8a.641.641,0,0,1-.4.6.641.641,0,0,0-.4.6,3.261,3.261,0,0,1,1.2-1A.576.576,0,0,0,151.1-65.6Zm-36.2-5-.4-.2.4-.4.2.4ZM99.3-52l.4.2-.4.4-.2-.4Zm15.2-16.6-.2-.4.2-.2.4.2Zm47.6,27q-.2-.2.4-.4l.2.2-.2.2ZM105.9-70.2l.4.4.2-.4-.2-.2Zm-21.4,34a.25.25,0,0,0,0,.4q0-.2.4-.2h.2l-.4-.4Zm64.4-26.4a2.327,2.327,0,0,1,.6-.4,1.152,1.152,0,0,0-.4.8Q148.5-62.4,148.9-62.6ZM88.1-9.4a7.76,7.76,0,0,0,1-.4l.2-.2q-.8.2-.6.2A2.327,2.327,0,0,0,88.1-9.4Zm15.6.4q.2.6.6.4v-.2l-.2-.2v.2Zm19-15.2v-.4h-.2l-.2.4.2.2ZM108.3-11.6a.576.576,0,0,1,.4.2.576.576,0,0,0,.2-.4Q108.3-11.8,108.3-11.6Zm-4.2-57.6.4-.6q1-1,.4-.2ZM78.7-30.4a1.638,1.638,0,0,0,.6-1,3.134,3.134,0,0,1-.6.8Zm48.4-2.4q.4-.2.2-.4l-.4.4q-.4.2-.2.4Zm4.4-7.4-.2.2v.2l.2.2.2-.2Zm18.6-13.4a11.694,11.694,0,0,1-1,1.2A1.79,1.79,0,0,0,150.1-53.6Zm16.8-14.2q-.6.2-.6.4-.2-.2.4-.6Zm-52-2.2a.576.576,0,0,1-.4.2l.2-.4.2-.2Zm23.8,30.2q.2-.6.4-.4l-.2-.2-.4.4ZM127.1-29.6l.4-.4-.2-.2a.576.576,0,0,0-.2.4Zm21.6-5h-.4l.8-.6ZM65.1-12.4a.576.576,0,0,0,.2-.4l-.2-.8Zm9.2.2q0,.2.4,0l-.2-.2h-.4Zm48-6.4a1.535,1.535,0,0,1-.2.6l-.4.4ZM96.1-59.8a3.134,3.134,0,0,0-.6.8l.6-.6Zm63.2-2.8v-.2l-.2-.2a.815.815,0,0,1,.6.2Zm-55.8-5.8q-.4.4-.4.2a.576.576,0,0,0,.2-.4Zm39.8,13.8a1.928,1.928,0,0,0-.8,1ZM132.5-40.4a.25.25,0,0,0,0-.4q.4-.2.2.2,0,.4-.4.2ZM107.9-67.2q.4.2,0,.6Q107.7-66.8,107.9-67.2Zm-17,25q.2.2,0,.6Q90.7-41.8,90.9-42.2ZM140.1-51q-.4.4-.2.6A1.535,1.535,0,0,0,140.1-51ZM127.9-34.6q-.4-.2-.2-.8A1.775,1.775,0,0,0,127.9-34.6Zm5.4-5.2q-.4.6-.2.6A1.535,1.535,0,0,0,133.3-39.8Zm25.2-35.6v.2l.2-.2a.576.576,0,0,1-.2-.4l-.2.4Zm-82,66q.6,0,.4-.2h-.2a.576.576,0,0,0-.4.2Zm58.8-17.2.8-.8-.6.8Zm4.2-14.6a.576.576,0,0,0-.2.4.576.576,0,0,1,.4-.2Zm-50,2.4q-.4,1.2-.6,1.2Zm32.6,12.4q-.4.6-.2.6A1.535,1.535,0,0,0,122.1-26.4Zm-5.2,4.6a.576.576,0,0,1,.4.2V-22h-.2v.2Zm-26.2,11v.4l.4-.4ZM148.1-35a5.958,5.958,0,0,1-.8.6Q148.1-35.2,148.1-35ZM111.7-68.2q-.4.6-.2-.2v.2Zm4.8,55.6a5.958,5.958,0,0,0,.8-.6.576.576,0,0,0-.4.2ZM123.9-28a2.28,2.28,0,0,1-.8,1.2A8.5,8.5,0,0,0,123.9-28Zm-37-15-.2.2a.25.25,0,0,0,.4,0Zm73.4-21.4v-.2h-.2l-.2.2Zm-45-5.4-.2.4V-70Zm-23,58.4q.4-.4.2-.4l-.4.4Zm68.6-55.2a2.327,2.327,0,0,0-.4.6l.4-.4ZM111.1-14q.2,0-.2.4Q110.7-13.6,111.1-14Zm-44-11.8v.6a1.535,1.535,0,0,1,.2-.6Zm41.8,12.6q.4-.4.4-.6Q108.9-13.4,108.9-13.2ZM99.1-5.8q0-.2.4-.2l-.2-.2-.2.2ZM84.9-34.4q.2,0,0,.4Q84.7-34,84.9-34.4Zm37,17q.8-.4.6,0ZM86.3-9.6q-.6,0-.6.2ZM96.5-4q-.4.2-.4.4Q96.5-3.8,96.5-4Zm-.8-9.6q.4-.2.4-.4Q95.7-13.8,95.7-13.6ZM83.1-9l.2-.2-.2-.2Zm42.8-22.8q.4-.4.2-.6Zm-1.8,2.4q.4-.4.2-.6Zm12-7q.2-.4,0-.6Zm-17.6,13v-.4a.576.576,0,0,1-.2.4Zm42.6-50-.2-.2h.4ZM117.3-34.2v.2l.2-.2v-.2ZM77.5-9.8l.2-.2h-.2l-.2.2Zm61.2-17.6a.576.576,0,0,1,.2-.4v.2Zm2.4-26a.576.576,0,0,1,.4-.2l-.2-.2v.2Zm20.8-19.4-.6-.4h.2Zm6.8,6.8v.2a.576.576,0,0,1-.2-.4Zm-26,11.6q.4-.4.2-.6Zm-54.6,17h-.2v-.2h.2Zm-4.6,6.8q0-.4.2-.4v.2Zm-5.8,6.2-.2.4v-.4ZM90.1-48.8q.4.2.2-.2ZM102.9-62a1.535,1.535,0,0,1-.2.6A1.535,1.535,0,0,1,102.9-62Zm20,35.2a.576.576,0,0,1-.4-.2Q122.9-27,122.9-26.8ZM86.5-41.6q-.2.4,0,.4Zm63-21.4q.2-.4.4-.4Zm-9.4,12q.2-.6,0-.4ZM109.9-26q.2-.2,0,.4Zm51.2-40.6h.2v-.2Zm3,23.8-.2.2v-.2Zm-3.8-31.8h.2v.2Zm.6.4-.2.2v-.2ZM97.9-52h.2l-.2.2ZM90.7-41q.2,0-.2.6A1.535,1.535,0,0,1,90.7-41ZM79.5-27.8q.2-.4,0-.4Zm56.2,2h.2l-.2.2Zm29.6-43.6-.2-.2h.2ZM140.1-51.8l.2-.4-.2.2ZM89.9-48.2l.2-.2h-.2Zm11.8-19.2-.4.2a3.134,3.134,0,0,0,.8-.6Zm58.8-7.2.2.2h-.2Zm-63,13.4-.2.2v-.2Zm-2,15.4a.25.25,0,0,1,0,.4Zm67.4-26V-72l.2.2Zm-2.4-2.6h.2v.2Zm-38,47.6h-.2l.2-.2Zm2.4-2.4a.815.815,0,0,1-.6.2A1.535,1.535,0,0,0,124.9-29.2Zm-34-19.2.2-.4Zm45,40.6h.2l-.2.2v-.2h-.2a.25.25,0,0,0,0,.4V-7h-.4l-.2.2h-.2l.2.2h-.2v-.2h-.4a.576.576,0,0,1-.2.4.576.576,0,0,0-.2.4l.6-.4-.2.4-.2.2-.4-.4h-.2q.2-.6.6-.6.4-1,.6-1V-8l.4-.4.2.2h.2v-.2a2.062,2.062,0,0,0,.4-.8h.4q.4-.6.6-.6a.25.25,0,0,0,0-.4l.2-.2h.4a.641.641,0,0,1,.4-.6l.4-.8q.2-.4.4-.4t.6-.4q.4,0,.4-.2h.2V-13l.2-.6.2-.2.2.2a13.445,13.445,0,0,1,1.4-1.8l.6-1v.2l.2-.2h-.2a.25.25,0,0,1,.4,0l.2-.2h-.2l.4-.4a1.535,1.535,0,0,0,.2-.6l1-1a2.264,2.264,0,0,1,.8-.8v-.2a4.29,4.29,0,0,1,.8-1,7.946,7.946,0,0,1,1-1.2l.2.2v.2h-.2l.2.2a.25.25,0,0,0,0-.4,2.062,2.062,0,0,1,.4-.8l-.2.2a1.535,1.535,0,0,1,.2-.6l.4-.4h.2l.4-.4v-.2q.4-.4.2-.4a.576.576,0,0,1,.4-.2q0-.6.8-1a3.134,3.134,0,0,1,.6-.8.576.576,0,0,0,.4-.2l.2-.2v-.2h-.2q0-.2.4-.6l.2-.2q.6-.6.4-.6v-.2l.2-.2a23.089,23.089,0,0,0,2-2.6h.2v-.2l.2-.2q.2,0,.4-.4h.2v-.2h-.2q.2-.4.4-.4v.2h.2l-.2-.2V-33h.2v.2a11.918,11.918,0,0,1,1.2-1.6v-.2h.2a.576.576,0,0,1,.2-.4l.2-.2h.2v-.4l.4-.8a.576.576,0,0,0,.4-.2l.2-.2q0-.2.4-.6v.2h.2l-.2-.2a2.327,2.327,0,0,1,.4-.6q-.2-.4.2-.4a2.327,2.327,0,0,0,.4-.6q.4-.4.4-.6l.2.2q.6-1.6.6-1.2a2.51,2.51,0,0,0,.6-1h.2v.2q0-.2.4-.6l.2-.6h.2a.576.576,0,0,1,.2-.4l.2-.2h-.2a6.825,6.825,0,0,1,1.4-1.4h-.4q0-.2.4-.4v-.2l.4-.4v-.2h.2l.2-.2v-.4q2.4-3.4,2.2-3.2h.2a2.327,2.327,0,0,0,.4-.6l.2.2a1.612,1.612,0,0,1,.8-1.2l.2-.4v.4a.25.25,0,0,0,0-.4l.4-.8h.2a3.508,3.508,0,0,1,.4-1h.2v.2l.2-.2h-.2l.2-.2q0-.4.2-.4l.4-.4v.2l.2-.2h-.2a6.259,6.259,0,0,1,1.4-2,6.519,6.519,0,0,1,1.2-2l.4-.4a2.062,2.062,0,0,0,.4-.8h.2a1.638,1.638,0,0,1,.6-1,1.944,1.944,0,0,0,.4-1h.2v-.2h.4l-.2-.2h.2l.6-.8.4-.6a5.328,5.328,0,0,1,1.2-1.8,2.327,2.327,0,0,0,.4-.6,1.152,1.152,0,0,0,.4-.8q.2,0,.4-.4l.2-.4.6-.8h.2v-.2a.576.576,0,0,0,.2-.4,2.327,2.327,0,0,1,.4-.6q0-.2.4-.2a1.944,1.944,0,0,1,.4-1,3.134,3.134,0,0,1,.8-.6v-.4l.2-.2a2.327,2.327,0,0,1,.4-.6.25.25,0,0,1,0-.4l.2.2V-73q.4-.6.6-.4v-.4a.576.576,0,0,0,.2-.4q0-.2.4-.6a.641.641,0,0,0,.4-.6q.2,0,.6-.6a5.959,5.959,0,0,0,.6-.8,2.326,2.326,0,0,1,.4-.6q0-.2.4-.6t.4-.6v-.2h.2a.576.576,0,0,1,.2-.4,2.327,2.327,0,0,0,.4-.6v.4l.2-.2v-.2h-.2V-80l.4-.4a.576.576,0,0,1,.4-.2V-81h.2q0-.2.4-.4a2.171,2.171,0,0,1,.4-.8h.2v-.2h-.6q-10.2,1.2-21,1.4a7.318,7.318,0,0,1-1.8-.4q0,.2-1.4.2v.2h-2.6a.815.815,0,0,0-.6-.2h-.2l.4.2h-.8v-.2l-.2.2h-.8l-.6-.2a.576.576,0,0,1-.4.2q.2,0-5-.2h-.2l-4.8-.2,3-6.8a9.784,9.784,0,0,1,1-.6V-90a.576.576,0,0,1,.2-.4v1a3.508,3.508,0,0,1,.4-1q.2-1.2.6-1.2v-.6l1.6-.8a.576.576,0,0,0-.2.4l.2.2h-.2l.4.4a1.308,1.308,0,0,0,.6-.6.576.576,0,0,0,.2-.4q3.8,1.6,5.2,2,4.2,1.4,6.4,1l.2.2q.4-.8,2.6-.8a9.037,9.037,0,0,0,2.8-.8l-.2.8q.8-.2,4-.8a10.426,10.426,0,0,0,3.4-1q-.2.6.6.6.2,0,1.6-.2l-1,1.2a1.32,1.32,0,0,1,1.4,0,1.357,1.357,0,0,0,1,.4q-.8.4-.6.6a2.257,2.257,0,0,0,1.6-.2,1.433,1.433,0,0,1,1.6-.2l-.2-1a41.308,41.308,0,0,1,4.8,1.2q1.4-1.6,1.8-2l.4.4q.2.2,1.2,0,0-.2-1-.6,1.6-.4,2.6-.6l.4-.4a4.29,4.29,0,0,1,.8-1,3.134,3.134,0,0,0,.6-.8h.2q0-.2.6-.6l.2-.6a.25.25,0,0,1,.4,0,2.926,2.926,0,0,1,.6-1q.8-.6.8-1h.4a2.51,2.51,0,0,1,.6-1,5.958,5.958,0,0,0,.8-.6q1.2-1,1-.8l.8-.8a1.272,1.272,0,0,0,1-.8l.4-.2v-.4a.576.576,0,0,1,.2.4l.2-.2q0,.4.4,0,0,.6.2.6h.2l.4.2a2.967,2.967,0,0,1,1.4-.8l.2-1h-.4a13.3,13.3,0,0,0,2-2,3.547,3.547,0,0,1,2-1.6l-.2-.2q.2-.6,1.4-.8a1.37,1.37,0,0,0,1.2-1v.4l.2.2a3.17,3.17,0,0,1,2-1.6,11.611,11.611,0,0,0,2.4-1q0,.2.4.6l.4-.8.2.2a.25.25,0,0,0,0,.4q.4-.2,0-.6-.2-.4.4-.6a.25.25,0,0,0,.4,0l.6-.2.2-.2.6-.8h.4l.2.2q.4.2.4-.2t.4-.2v-.8a.576.576,0,0,0,.4.2l.2-.4q.6.6.6.4l.2-.2q0,.4-.2.4l.6-.2-.2.2.4.2a.25.25,0,0,0,.4,0q.4,0,.2-.6l-.2-.4v-.4h-.2l.2-.2v.2q.2.2.8,0l-.8-.6.4-.2v.2q.4,0,.8.6a.576.576,0,0,0,.4.2.576.576,0,0,0-.2.4l.6,1.2q.4,4.8-7.6,15.2-2,2.6-4.8,5.8a21.821,21.821,0,0,1-1.6,1.8,8.427,8.427,0,0,0,1.4-.2,3.2,3.2,0,0,1,1.6,0,1.922,1.922,0,0,1,1.4-.2l.2-.2h1.4l.6-.2a.576.576,0,0,1,.4.2q0-.4,2-.4v.2l1.2-.2h1.4q.8,0,.8-.2h.2a6.575,6.575,0,0,0,1.6-.2v.2l.2-.2q.8-.2,1,0V-92h1.6l1.2-.2h.8a.815.815,0,0,0,.6-.2h-.2l-.8-.2a14.043,14.043,0,0,0-2.4.4,21.22,21.22,0,0,1-2.4.2,20.734,20.734,0,0,1,5.6-1.4q4.4-.6,6-1-.2.4-1.6.6a15.657,15.657,0,0,1-2.2.4l2.6.2-3.8.6v.2a5.471,5.471,0,0,1,1.2-.2h.2q.2,0,1.4-.2a2.083,2.083,0,0,0,1.2-.2v.2l-.2.2h-.4v.2l-.2.2q0-.2-.6-.2l-.2.2h-.2v-.2a.815.815,0,0,0-.6.2h.2l-.2.2,1.6-.2h.2a1.535,1.535,0,0,1,.6-.2,1.535,1.535,0,0,0,.6-.2,3.273,3.273,0,0,0,.8-.2l.8-.2a8.6,8.6,0,0,0-1.6.2q0-.4,1.2-.6h1.2l.4-.2.2.2q.6,0,.6-.2h.2v-.2l.2.2a.576.576,0,0,0,.4-.2h.2a2.226,2.226,0,0,1,1-.2h1.2a2.226,2.226,0,0,1,1-.2,6.013,6.013,0,0,1,1-.2q2.2-.6,3.4-.8h1.2a16.564,16.564,0,0,1,1.8-.4h.6q.4,0,.4-.2a3.775,3.775,0,0,1,1.2-.2,5.47,5.47,0,0,1,1.2-.2q1.6-.4,2.6-.6.4-.6.4-.4a.576.576,0,0,0,.4.2l1.2-.4a6.2,6.2,0,0,0,1.2-.4l1.4-.4h1.2a4.629,4.629,0,0,1,1-.6,6.2,6.2,0,0,0,1.2-.4q1-.2,1,0,0-.2,3-1l1.4-.6.2.2.4.2h.4v.2a1.822,1.822,0,0,1-1,1,8.359,8.359,0,0,0-1.4.4,20.46,20.46,0,0,1-2.2.6q0,.2-.4.4a.815.815,0,0,0-.6.2l.2-.2a1.535,1.535,0,0,0-.6.2,3.29,3.29,0,0,1-1,.2v-.2h-.2v.2a.815.815,0,0,1-.6.2.815.815,0,0,0-.6.2l.2-.2v-.2q-.2-.2-1.6.4h.8l-.4.2q-.4,0-.4.2h-.2q-.6.2-.6,0h.4l.2-.2h-.6l.2-.2q-.2-.2-.4.2a1.775,1.775,0,0,1-.8.2l.2.2h-.2l-.4.2v-.2h-.2q.2-.2-.8,0a.576.576,0,0,1-.2.4l-1-.2.2.2v.2a3.061,3.061,0,0,0-1.8.2q3.4-.2,4.8-.4a64.561,64.561,0,0,1-7.2,2h1a1.535,1.535,0,0,1,.6-.2l.6-.2.4.2.2-.2.2.2.4-.2a3.273,3.273,0,0,0,.8-.2,2.226,2.226,0,0,0,1-.2,3.273,3.273,0,0,0,.8-.2l.6-.2v.2h.2a20.082,20.082,0,0,1,3.2-1v.2l.6-.2a8.389,8.389,0,0,0-2.6,0l1.2-.2-.2-.2.4-.2h.6l.4.2-.2.2h1a.641.641,0,0,1-.6.4v.2h.2q-.2.4.2.2a.576.576,0,0,1,.4.2,1.535,1.535,0,0,0,.6.2q-.8,1.2-1,1.2a.25.25,0,0,0-.4,0q-.6,0-.4.4h-.4q-.2,0-.2-.4l-.2.2a.25.25,0,0,1-.4,0v.2a7.664,7.664,0,0,0-2.4.6,13.324,13.324,0,0,0-2.2.4l.2-.2-2,.4.4-.2q-.2-.2-.6,0l-.2.2h.2l-1,.2-.2-.2q0,.2-.4.2l-.2-.2-.2.2.2.2h-.2a.576.576,0,0,0-.4-.2h-.2q.2.2-1.4.2V-92l-.8.4-1.2.2q.4-.4-.4-.2l-.8.2.2-.2h-.4l-.4.2q.2.2.6,0h.2q.4,0,.4.2h-.2a9.979,9.979,0,0,1-1.2.2l-.2-.2h-.4v.2l-.2.2q0-.2-.6-.2h-1a.576.576,0,0,1-.4.2l-.2-.2v.2h-.2l-.2-.2q.2.2-.6.4h-2.4a2.062,2.062,0,0,0-.8.4q0-.2-.6-.2l-.2.2q-.4-.2-.4.2h-1.4l-.2.2q-.4,0-.4-.2a2.659,2.659,0,0,1-1.4.2l-.2.2-.8-.2h-.2l.2.2h-1q-.8.4-.6.2-.4,0-.4-.2a2.226,2.226,0,0,1-1,.2l.2-.2-.8.2v.2h.2l.4-.2v.4h-.6l-.2-.2h-.4a.815.815,0,0,0-.6.2h-1a3.273,3.273,0,0,1-.8.2,34.339,34.339,0,0,0-4.2,1.2l-.2-.2a10.771,10.771,0,0,0-2.8,1.2h-.4q.4-.2,0-.4a9.534,9.534,0,0,1-2.2.4,7.377,7.377,0,0,1-2.8.2q-.4.2-.4.4-5,.6-9.8,1.2v.4q-2.6,3-3,4.6-.6-.4-1,.4l-.4.4q-.4.2-.4.4l-.4-.2.2.6h-.8l.2.4-.2.2q-.2.4-.4,0a17.71,17.71,0,0,1-.8,2.6v-.2a.4.4,0,0,1-.6.2q-.8,0-.6.6a6.059,6.059,0,0,1-2.8,3.2l-.2.6.8-.2-.8.6v-.2a15.6,15.6,0,0,0-1.6,2.8,9.974,9.974,0,0,0-2.4,2.4,6.476,6.476,0,0,1-2.6,2l.8.8q-1.2-.2-1-.2-.2.2.2.8h-.6q.4.2-.2.6t-.2.8a1.535,1.535,0,0,0-.6.2q-.4.4-.2.6l-.4-.2q-.2-.2-.4.2.4.2.4.4v.4a.815.815,0,0,1-.6.2,1.535,1.535,0,0,1-.6.2v-.2l-.4.4v.6l.2.2a.576.576,0,0,1,.4.2q-.8-.2-.8-.6-.4.2-.4.4a.815.815,0,0,0,.2.6l.4-.2-1.2,1.4-.2-.2h-.2q-.2-.2,0,1.4l-.6-.2v.8q-.4-.2-.6,0a.576.576,0,0,0-.2.4h.4l-.4.2a.815.815,0,0,0-.2.6q.2.2-.2-.4a6.824,6.824,0,0,0-1.8,2.6q-.4.2-.4,1.4a20.9,20.9,0,0,1-3,3.2,5.877,5.877,0,0,1-1.6,1.4,4.574,4.574,0,0,0-1.4,1.2l.4.2a.354.354,0,0,0-.4.4q0,.2-.4,0a10.288,10.288,0,0,0-.8,2q-.2-.2-.6,0l-.4.4q.4.6,0,.8-.4,0-.4.2a.576.576,0,0,0-.2.4,1.535,1.535,0,0,0-.2.6l-.2-.2a.576.576,0,0,0-.2.4,2.327,2.327,0,0,1-.4.6.576.576,0,0,1-.4-.2l-.2.2v1l-.2.2q-.6.2-.6.4l-.4.4q-.2.4-.4.4a.641.641,0,0,0-.4.6,17.355,17.355,0,0,1-1.4,1.8l-.2-.2-.2,1.2-.2-.4-.4.4q0,.4-.8.8a1.436,1.436,0,0,0-1,.6v-.2a.576.576,0,0,0-.4.2q-.4.4-.6.4a.811.811,0,0,1,.4,1l-.2-.6-.2.4v-.2h-.4l-.2.2q-.2.4,0,.4a.576.576,0,0,0-.2.4q-.2.6-.6.2l-.4,1.4-.4-.4q.2,1,0,1v-.4q-.4,0-.4.6-.2.8-.6.6-.2.2.2.4-.2-.2-.4.4l-.4.4-.4-.2q.2,0-.2.4v-.4q-1.2,1.4-1,1.4-.6.2-1,1.6-.2-.4-.4-.2-.2.4,0,.6.2.4,0,.6v-.2a.576.576,0,0,0-.4-.2v.8l-.2-.2a6.1,6.1,0,0,1-1.6,1.4q-1.2.8-1,1.8l.4.2a.641.641,0,0,0-.6.4,1.288,1.288,0,0,1-1,0l.2.4-.4-.2.2.6-.2-.2v.4l-.2-.2h-.2q0,.4-.2.4a.641.641,0,0,0-.4.6l-.2-.2a.641.641,0,0,1-.4.6q-.6.4-.6.8l-.4-.4-.4.6h.4l-.6.2v.4l-.2-.2a2.327,2.327,0,0,1-.4.6l-.2.6q0-.6-.4-.4.2,0-.2.6-.4.2-.4.4h-.2q-.2,0-.2.4l.2.2a.576.576,0,0,0-.4.2l.2.2a1.535,1.535,0,0,0-.6.2q0,.4-.2,0,.2,0-.2.8l.2-.2-.8,1-.4-.4v.2q-.6,0-.6.8-.2.6-.6.6l.2.2h-.2v.2a.25.25,0,0,0,0,.4q.2.2-1,.6a.653.653,0,0,1-.2.8,1.8,1.8,0,0,1-1.2,0l-.8,1.8a.576.576,0,0,1-.2-.4q-.4,0-.6.6a.924.924,0,0,1-.6,1l.4.2q-.2.2-.6-.2l-.2.2.2.2a2.171,2.171,0,0,1-.4.8h-.2l-.2-.2-.2.4-.2-.2q-.2.4,0,.6h-.2l.2.4h-.2a.25.25,0,0,0-.4,0V1h-.2v.4a.815.815,0,0,0-.2-.6.815.815,0,0,0-.6-.2,3.273,3.273,0,0,0-.2.8q.2,0,0,.4V1.4h-.2q-.4.2-.4-.2a7.788,7.788,0,0,1-.8,1.8q-.4-.4-.6.2l-.2.8.2.2-.6-.2-.4.8q0,.2-.6-.4v.8l-.2-.2a.815.815,0,0,0-.2-.6q-.2,0-.2.4l-.4.4V5l-.2-.2-.2.4v1a.784.784,0,0,1-.6.8q.2-.4,0-.6-.2-.4-.4-.4l-.2.2.2.2a1.775,1.775,0,0,1-.8-.2v.6l-.2.2q-.2,0-.4-.4a1.535,1.535,0,0,0-.2.6l.4.4a2.171,2.171,0,0,0-.8.4,2.171,2.171,0,0,1-.8.4.85.85,0,0,1,0-.8q0-.4.6-.2a.641.641,0,0,0-.6-.4.354.354,0,0,0-.4.4.806.806,0,0,1,.4-.8l.4.4q.2.2.4-.4l-.2-.2V6.2l-.4-.2q0-.2.4-.6v.4h.4l.4-.4V4.2q.4,0,.4.2V5l1-1q.8-1.8,1.4-1.6V2l.8-1a.576.576,0,0,0,.4.2l.2-.2q-.4-.4,0-.6h.4a.25.25,0,0,0,0-.4h.4l-.2-.4h.2q.2-.4,0-.4h-.6l.2-.2q-.6,0,0-1,0-.2.4.8a.25.25,0,0,0,.4,0q0-.2-.4-.6l.6-.2v.2a3.273,3.273,0,0,1,.8-.2q0-.2-.4-.2l-.2-.2h.8v.2l.2.2h.2a.25.25,0,0,0,0-.4q-.2,0,0-.6,0-.6-.4-.6t.2-.6a.576.576,0,0,0-.4-.2v.2l-.2.2a.576.576,0,0,0-.2.4V-4l.4-.2h-.2l.2-.2h-.6q.6-.4,1,0a.576.576,0,0,0,.2-.4q-.2-.2,0-.6,0,.6.2.2-.2,1.2-.2,1,.2-.2.6,0a.354.354,0,0,1,.4.4l.2-.4h.2a.576.576,0,0,0-.2.4h-.2l.2.2h.2l.2-.2v.2a.576.576,0,0,0,.2-.4l-.2-.4.4.2h.2v-.2a.25.25,0,0,0,0-.4h-.2q-.2,0-.4-.6a.576.576,0,0,1-.2-.4h.2a.576.576,0,0,0,.4.2.576.576,0,0,1,.2-.4.815.815,0,0,0-.2-.6h.2l-.2-.2V-7h.2l-.2-.8q1.6-.8,1.4-.8l-.2-.2.6.2q.4.2.4,0V-10q.2.2.6-.2a.25.25,0,0,1,.4,0l.4-.8a1.775,1.775,0,0,0-.2-.8l.4.6a.25.25,0,0,1,0-.4l.2-.2a1.535,1.535,0,0,0,.6-.2q.4-.4.6-.2.2-.2-.6-.4a1.272,1.272,0,0,0,1-.8v-.4q.2-.4,0-.4l-.4-.2,1,.2q.4.4.6-.8l.2.2.4-.6a.815.815,0,0,0-.6-.2q-.4,0-.4-.2a1.436,1.436,0,0,1,1-.6,1.357,1.357,0,0,1,1,.4,1.288,1.288,0,0,1,0-1l-.4.2a1.952,1.952,0,0,0,.4-1.4l-.4.2q-.2-.2.2-.4a3.29,3.29,0,0,1,.2-1l-.4.4v-.4q-.2.4-.4,0a9.784,9.784,0,0,0-.6,1,1.288,1.288,0,0,0-.6.8,3.134,3.134,0,0,1-.8.6v-.2l.2-.2q-.4,0-.6.6-.4.4-.6.4v.2h.2v.2l-.2-.2a2.327,2.327,0,0,1-.6.4,3.134,3.134,0,0,1,.6-.8l.6-.6q.4-.6.6-.6v.2h.4a.576.576,0,0,1,.2-.4v-.8l.4-.4a.576.576,0,0,1-.2.4.25.25,0,0,0,0,.4,12.308,12.308,0,0,0,2-2.6l-.2.2a1.436,1.436,0,0,1,.6-1,.576.576,0,0,1-.2.4.576.576,0,0,0-.2.4.576.576,0,0,0,.4-.2l.2-.2-.8,1h.2a.576.576,0,0,1,.2.4l.2-.2v.2l.4-.4V-21q.2,0,.6-.6v.2h.2v.4h.6a.576.576,0,0,0,.2-.4l-.2-.2h.2v.2l.6-.2V-22l.2-.2v.2l.6-.2q-.4,0-.2-.4,0-.6-.2-.4a.576.576,0,0,1-.2-.4l-.2.2v.2a2.926,2.926,0,0,1-.6,1q-.2-.2,0-.6.4-.4.2-.4h-.2a.641.641,0,0,1,.4-.6l.4-.4v-.2q.2.2,0,.6h.2l.2-.2v.4l.4.2a5.959,5.959,0,0,1,.6-.8.354.354,0,0,0-.4-.4l-.2.2v-.2l.6-.6q0-.2-.4-.2v-.2l.2.2h.4l.2-.2-.4-.2v-.2h.2V-26q0-.2.4-.4a1.535,1.535,0,0,0,.2-.6l.4-.4.4-.6v-.2l-.2.2v-.2a3.134,3.134,0,0,0-.6.8l-.2.2-.2.2-.2.4h-.2a.576.576,0,0,1,.2-.4h-.4l.4-.4q-.2.2-.4-.2h.6q.2-.6,0-.6-.2-.2-.6.4l-.2-.2a.576.576,0,0,1-.2.4v.4h.2v.2l-.2.2-.4-.6q-.2.2.2.4-.6.8-.8.8l-.4.4V-26q-.4,0-.4.2v.2q0,.4-.2.4v.2q.2,0,.4-.4a.25.25,0,0,1,0,.4l.2.2q-.4,0-.2.4l-.2.2v.2a.25.25,0,0,1,0-.4l-.4-.4q0,.6-.2.6v-.2l-.2.4q-.4.4-.6.2v.2a.25.25,0,0,1,0,.4v-.2a.576.576,0,0,0-.2.4l-1.4,1.4a.576.576,0,0,0,.4-.2v.2a.25.25,0,0,1-.4,0q.2,0-.4.8V-21l-.2.2v.2q0,.2-.4.2a.576.576,0,0,1-.2.4v-.4q-.2.4,0,.4v.2h-.2v.2l.2.2-.2.2v.2h-.2v-.2l-.2.2.2.2h-.6l.2.2q-.2,0-.4.4l-.4.4a.576.576,0,0,1,.2-.4l.2-.2v-.2h-.2a.576.576,0,0,1-.2.4l-.2.2.2.2-.2.2a2.327,2.327,0,0,1-.4.6v.4l-.4.2a1.535,1.535,0,0,0-.6.2l-.4.2v.4h-.2v.6q0-.2-1.2,1.2l-.2.2q.4,0,0,.2l-.2-.2-.2.2h-.2l.2.2v.2h-.2v.2h-.4a.25.25,0,0,1,0,.4h-.2v.2l-.6.6-.2-.2a3.508,3.508,0,0,1-.4,1l-.2-.2h-.2q.2-.4,0-.6-.4.4,0,.6.2.2,0,.6h.2l-.2.2v-.2l-1,1v.2l-.4.4-.2-.2q-.2,0-.6.4l.2.2h-.4q-.4.2-.4.4ZM160.5-36l-.2.2v-.6h.2l.2-.2.2.2v.2q.2,0,.4-.6a.576.576,0,0,0,.2.4l.4-.4V-37l.2-.2v-.2l.2.2.2-.2q.4-.4.4-.6h.2l.2-.4a.641.641,0,0,0,.6-.4h-.2l-.2.2q-.2-.2.4-.6a.25.25,0,0,1-.4,0l.2-.2h-.4v-.2q.6-.6.6-.8-.4-.4.2-.6v-.2h.2l.2.2h-.2l-.2.4v.4h.2v-.2l.2-.6q.2.2.4-.2l-.2-.2h.8v-.2l-.2.2a1.535,1.535,0,0,1,.2-.6v-.6a1.152,1.152,0,0,1,.4-.8q.4-.4.4-.6h-.2l-.2.2v-.4l-.2-.2a.576.576,0,0,1,.4-.2l.2-.2a.576.576,0,0,1,.2-.4,1.175,1.175,0,0,0,.6-1v-.2a.576.576,0,0,0-.4.2v.2h.2l-.2.2-.2.4v-.4l-.6.6.4.4h-.2l-.2.2v-.2l-.2.2a.815.815,0,0,0,.2-.6,3.134,3.134,0,0,0-.8.6.576.576,0,0,1-.2.4,2.171,2.171,0,0,1-.4.8h.2l.2-.4q.2.2-.8,1.4v-.4l-.2.2h.2l-.2.2h-.2a2.171,2.171,0,0,0-.4.8l.2-.2v.2h-.2v.4l-.4.4V-41l-.8.8v.4h-.2l-.2.4v.2q-.6.4-.6.6l-.2.2h-.2l.2.4a.576.576,0,0,0-.2.4v-.2h-.2l-.2.2v-.2l-.2.2h-.4v.2h.2l-.2.2v-.2a.576.576,0,0,0-.2.4l.2-.2a.576.576,0,0,1-.2.4.576.576,0,0,0,.4-.2q.4-.2.4-.4a.25.25,0,0,1,0,.4.576.576,0,0,1-.4.2l-.2.2v.2l-.2.4q-.2.4-.4.4l-.2.2.2.2v.2l-.2.2a.576.576,0,0,1-.2-.4h-.2a.576.576,0,0,0,.2.4h-.2q-.2,0-.4.4a.815.815,0,0,0-.2.6h-.2l-.4.4q-.4.4-.4.6h.2a.576.576,0,0,0,.2-.4q.2.4.2-.2a.25.25,0,0,1,0,.4v.2q-.2-.2-.4.2h-.4v.2h-.2v.4h-.2q0,.6-.2.6v-.2q-.2,0-.6.4-.2.6-.4.6h.2a.576.576,0,0,1-.2.4,2.51,2.51,0,0,1-.6,1l-.2.2v.2q.2.2.4-.2l.2-.2.4-.2v-.2h.2l-.2.4q-.2.4-.4.4h.2v.6l.4-.6a.576.576,0,0,1-.2.4v.2l.8-.4q-.2.2.2.4a1.775,1.775,0,0,0,.2-.8l.2-.4v-.2l-.2-.2a2.327,2.327,0,0,0,.4-.6,2.061,2.061,0,0,0,.4-.8,2.326,2.326,0,0,0-.6.4,2.327,2.327,0,0,0,.4-.6l-.2-.2h.4l.2-.2q0-.2-.4-.4l.4-.4q.2.4.4-.2l.2.2.6-1.2h-.2l.2-.2v.2l.2-.2h-.2l.2-.4v.4l.2-.2v-.2l.2-.2v.8h-.2a.576.576,0,0,0-.2.4h-.2v.4a.576.576,0,0,1,.4.2v.2l.4.2V-33a.576.576,0,0,1-.4.2l.2-.2-.2-.2q.6-.4.4-.6l.2-.2v.2l.2.2h.2q.4.2.8-.4l.4-.4V-35l-.2-.2q-.2.4-.4.4a.25.25,0,0,0,.4,0q0-.2-.2.4l-.2-.2-.2.2q-.2,0,0-.4l.2-.6a.641.641,0,0,0,.4-.6l-.2-.2v.2a.576.576,0,0,1-.4.2Zm26.4-39v.6q0,.2-.4-.2v.2a.25.25,0,0,1,0,.4h-.2v.2q-.4.4-.4.2a.576.576,0,0,0-.2.4v.2l-.2-.2q0,.4-.6.8l-.2-.2v.2a.576.576,0,0,1,.2.4v.2h-.2a.25.25,0,0,1,0-.4q-.2,0-.4.4l.2.2h-.4a.576.576,0,0,1-.2.4l-.2.2a.25.25,0,0,0,.4,0q0,.4-.2.4h-.2l-.2.4v-.2a.576.576,0,0,0-.4.2.576.576,0,0,1-.2.4l.2.2-.2.2.2.2-.4.2h.4l-.2.2a.576.576,0,0,0-.2.4l-.4-.2a.25.25,0,0,0,0,.4l-.6.4h-.2l-.4,1.2h.4v.2h.2v-.2a7.737,7.737,0,0,1,1-1.4v.4h-.2q0,.2-.4.4a1.535,1.535,0,0,0-.2.6,3.571,3.571,0,0,0,1-1v-.2a.25.25,0,0,0,0-.4l.2-.4a2.327,2.327,0,0,1,.4-.6v.2l.2-.4-.2.2a.576.576,0,0,0,.2-.4,2.062,2.062,0,0,1,.4-.8l.4-.4v.2l-.4.4v.2l.2.2V-70l.2.2a.576.576,0,0,0,.4.2V-70h.2l.2-.2q.2-.2-.2-.4h-.2q.2-.4.4-.4l.2-.4V-72a2.327,2.327,0,0,1,.4-.6.576.576,0,0,1,.4-.2q0,.2-.4.4v.2a6.98,6.98,0,0,0,1.2-1.8h.2a2.327,2.327,0,0,0,.4-.6v-.2h.2l-.2-.2.2-.4.2-.2V-76h.2v-.6a.25.25,0,0,0,.4,0v.6l.8-1q-.4-.2-.4.2a.576.576,0,0,1-.4.2v-.8l-.2.2a.576.576,0,0,1-.2.4l-.2.2a.815.815,0,0,0-.2.6h-.4v.4l-.4.4v-.2l-.2.4.2-.2v.4Zm43.8-16a5.876,5.876,0,0,0-1.4.2v-.4l-.2.4a1.288,1.288,0,0,0-1,0,1.85,1.85,0,0,1-1.2,0,2.078,2.078,0,0,1-1.6.2h.8a3.273,3.273,0,0,1,.8-.2q-1.4-.4-2,.4-.2,0-2.2.2l.2-.2v-.2h-.6a1.535,1.535,0,0,1-.6.2q-1.4.2-1.6,0a1.775,1.775,0,0,1-.8.2l-.4.2h.4v.4h1.6q0-.4.8-.6-.4.2-.4.4l-.2.2h1a3.29,3.29,0,0,1,1-.2l.2.2-.2.2a1.775,1.775,0,0,0,.8-.2h.2v-.2h.4l-.2.2a1.535,1.535,0,0,1,.6-.2q0-.2.4-.2h1q.4-.2.4,0,0-.2.6-.2h1.6l.4-.2h.2a2.226,2.226,0,0,0,1-.2,32.912,32.912,0,0,0,5-1h-.2q.4-.2.4,0h.2l.2-.2h-.8a2.786,2.786,0,0,0-1.2.2v.2h-1.2v-.2l-.2.2v.2a6.013,6.013,0,0,1-1-.2l.2.2h-.6Zm20-1.4a.576.576,0,0,0-.4.2h.2q0,.4-.4.2l.2-.2h-.6a1.775,1.775,0,0,1-.8.2h-.8a.815.815,0,0,0-.6.2l.2.2-2,.4a6.013,6.013,0,0,0-1,.2h-.4a20.889,20.889,0,0,1-4.2,1h.8a5.2,5.2,0,0,1,1.6-.2,6.2,6.2,0,0,0,1.4-.4l.2.2h.4v-.2h.6a6.013,6.013,0,0,1,1-.2,1.535,1.535,0,0,0,.6-.2,12.271,12.271,0,0,0,1.6-.2,8.414,8.414,0,0,0,2-.2v.2a5.264,5.264,0,0,1,2.6-.4h.2l.4-.2.2.2v-.2l.8-.2.2.2.2-.2a3.273,3.273,0,0,0,.8-.2h1v-.2l.2.2h.2v-.2a5.471,5.471,0,0,0,1.2-.2l.8-.2.2.2h.4l.2-.2a5.876,5.876,0,0,1,1.4-.2,1.535,1.535,0,0,0,.6-.2,12.271,12.271,0,0,0-1.6.2h-.6l-.2-.2-.2.2a.576.576,0,0,1-.4-.2h-.2a1.63,1.63,0,0,1-1.2.4,5.2,5.2,0,0,0-1.6.2v-.2h-.4v.2h.2a14.145,14.145,0,0,1-2.4.4l.4-.4-.4.2.4-.4q-.8.2-.4.4l-.4.2h.4l-.2.2h-.6l-.8-.2.6.2h-.4a1.535,1.535,0,0,1-.6.2l.2-.2h-.6a.576.576,0,0,1-.4-.2h.2ZM178.5-61.8q.2-.4.4-.4h.2l.2-.2h-.2l.6-.6h-.4a1.612,1.612,0,0,1,.8-1.2v-.2h.2a1.927,1.927,0,0,0,.8-1v.2l.2-.2a.25.25,0,0,0-.4,0,7.762,7.762,0,0,0,.4-1l-.4-.4-.4.4h-.2q-.2,0-.2.4a.25.25,0,0,0,.4,0q0,.2-.4.2l.2.2-.2.2v.2q-.4.6-1,1.4l.2-.4h-.4v.2l.2.2-.2.2.2.2v.2l-.2-.2-.2.2.2.2-.2.2q-.4,0-.4.2a2.326,2.326,0,0,0-.4.6v.8l.4-.6V-62Zm13.6-17.8v-.2q.2,0,.2-.4l-.2-.2q.2,0,.4-.8l-.4.4a.576.576,0,0,0,.2-.4h-.2v-1l-.4.4a.653.653,0,0,0-.2.8h-.2v.2l.2.2.4-.4a.641.641,0,0,1-.4.6h.2v.2a.576.576,0,0,1-.2.4V-80h-.4a1.535,1.535,0,0,1-.2.6l-.2.2.2-.6h-.2l-.2.2v-.2l-.2.2q-.2,0-.2.4h-.4l.2.2-.4.4h.2l-.2.2v.2l.4-.8a1.775,1.775,0,0,1,.8-.2l-.2.4v.2l.4-.4q0,.8-.4.8a2.327,2.327,0,0,0-.4.6q-.4.4-.4.6a2.327,2.327,0,0,0,.6-.4v-.2l.2-.4.2-.2q.2,0,.4-.6l.2-.2a.576.576,0,0,1,.4-.2v-.2h.2v-.4Zm-21.2,27h.4a1.308,1.308,0,0,1-.6.6l-.6.2v.2a.576.576,0,0,0,.4-.2v.2l-.2.4h-.2l.8.4.4-.8-.2-.2.2-.2v-.8Zm-4,8a8.31,8.31,0,0,1-1.2,1.6,2.062,2.062,0,0,0,.8-.4l.8-.8a.576.576,0,0,1-.2-.4.815.815,0,0,0-.2-.6h-.2l-.2.2v.2h.2Zm-5.6,6.2h.2a.576.576,0,0,0,.2-.4q.2-.4.4-.4.6.2,0,.4a.576.576,0,0,1-.2.4.25.25,0,0,0,0,.4h.2l.2-.2q0,.2-.6.8v-.2h-.2q.2,0,.2-.4h-.4Zm-2.8,5.6q-.4.2-.4.4l-.2-.2a7.76,7.76,0,0,1-.4,1h.2l1-.8-.2-.2Zm60.6-55.8a1.952,1.952,0,0,0,1.4-.4,2.392,2.392,0,0,0-1.4,0ZM177.5-61.4l-.2-.2v.2a.25.25,0,0,0,0,.4h-.4l.2.4q-.2.4,0,.4l.2-.2v-.2a.354.354,0,0,0,.4-.4h-.2ZM156.3-31.2q.4-.4.4-.6l.2.2a1.775,1.775,0,0,1-.2.8V-31l-.2-.2v.2a.354.354,0,0,1-.4.4V-31h-.2A.576.576,0,0,1,156.3-31.2Zm-5.2,10.6-.2-.2-.4.2-.2.2v-.2a.25.25,0,0,0,0-.4h-.2v.6h.2a.576.576,0,0,1,.2.4Zm38.6-56.6a.576.576,0,0,0-.2-.4v.2h-.2l.2-.2a.576.576,0,0,1-.2-.4h-.4a1.535,1.535,0,0,0-.2.6h.2v.2l.2-.2v-.2l.4.4Zm-26.8,37q-.4-.2,0-.4v-.2h.2l.2.2v.4h.2a1.535,1.535,0,0,0-.2.6v-.2ZM147.7-18l-.2.4v-.2l-.4.2V-18l.4-.2q.2.2.4-.2v-.2h.2v.2a.576.576,0,0,1-.2.4Zm-4.4,4a1.289,1.289,0,0,1-.6.8,3.134,3.134,0,0,0-.6.8q-.2-.2.4-.6v-.4l.2-.2a.576.576,0,0,1,.4-.2V-14Zm13.6-78.4-.2-.2a4.585,4.585,0,0,1-.4,1.4h.4Zm-19.4,85a1.535,1.535,0,0,1,.2-.6q.4-.2.4-.4l.2.6Zm44.6-58.4-.2-.2-.4.4v.2l.2.2q.4-.2.4-.4Zm5.4-27a2.171,2.171,0,0,1-.8.4,1.152,1.152,0,0,0-.8.4l-.4-.2Zm-25.4,58q.2,0,.2-.6l-.4.4v-.2h-.2a.576.576,0,0,0-.4.2.576.576,0,0,0,.4.2l.2-.2Zm75.6-57V-92h.8a.25.25,0,0,0,0-.4l-.4.4v-.2h-.2a.576.576,0,0,0-.4.2h-.4l.2.2Zm-84.8,66a.576.576,0,0,0,.2-.4l.4-.2v.2l-.2.2h-.2v.2l-.2.4q-.2.4-.4.2l.2-.2A.576.576,0,0,0,152.9-25.8ZM141.7-12.4q-.2,1.2-.8,1a2.327,2.327,0,0,0,.4-.6Zm11.2-13.4a.25.25,0,0,0-.4,0l-.2.2a.25.25,0,0,0,0-.4q.2.2.6-.4l.4-.4v.2l-.2.2A1.535,1.535,0,0,0,152.9-25.8ZM146.7-17l.4-.6.2.2q-.2,0-.4.4,0,.4-.2.4l.2.2h-.2v-.2l-.2.2v-.2l.2-.2Zm76.4-73.6q.4.4,1.6,0Zm-2,1.2a2.508,2.508,0,0,0,2,0h-1.2A.85.85,0,0,1,221.1-89.4ZM150.9-23.2l.2-.2-.4-.4.2-.2v.2a.25.25,0,0,0,.4,0l.2-.4q.2.2-.2.6l-.2.4ZM162.5-36l.2-.2-.4-.2a.815.815,0,0,0-.2.6h-.2v.4a2.327,2.327,0,0,0,.4-.6ZM132.9-5q0-.2.6-.6Q133.7-5.2,132.9-5Zm14.6-14.6q0-.2.4-.6l.6-.6h.2Zm28.4-39.8q-.2,0-.4.4a.576.576,0,0,0-.2.4h.2l.2-.2v-.4l.2.2Zm81.8-35.8q.4,0,.4-.2l.2-.2h-.4q.4.2-.4.2h-.2l-.2.2Zm-91.8,14a.576.576,0,0,1,.4-.2.815.815,0,0,0,.6-.2.815.815,0,0,1-.6-.2v.2q0,.2-.4,0Zm26.6-.2q.8-.4.2-.2a2.171,2.171,0,0,1,.4-.8.576.576,0,0,1-.4.2v.2l-.2.2Zm-.2-1v.4q.2,0,.4-.6h-.6Zm-3.4,6.6a.641.641,0,0,1,.6-.4h.2v-.2l-.2-.2A1.288,1.288,0,0,0,188.9-75.8ZM169.5-50.6a.576.576,0,0,1-.2.4l.8-.4h-.2v-.2h-.2Zm-9.2,14.8a1.535,1.535,0,0,1-.2.6l-.2-.2a.25.25,0,0,0,0-.4l.2-.2v.2Zm-14,17.4a.25.25,0,0,1,.4,0l-.6.6v-.4Zm114-77.2q.2.2.6,0l.2-.2h-.6ZM176.9-60h-.2q-.4.2-.4.4a2.171,2.171,0,0,0-.4.8.576.576,0,0,0,.2-.4Zm11.2-15.2a.576.576,0,0,0,.4-.2l.2-.2a.25.25,0,0,0-.4,0A.576.576,0,0,0,188.1-75.2Zm77.2-21.4q0-.2.4-.2,0-.2-.4-.2l-.4.2.2.2Zm-78.6,5.8q0-.2-1-.4Q187.3-91.2,186.7-90.8ZM156.1-30a5.96,5.96,0,0,1,.6-.8l-.4,1V-30Zm98.6-62.8h-.6q-.6.2-.2.2h.6ZM143.7-15a.576.576,0,0,1,.2-.4.576.576,0,0,0,.2-.4h.2l-.4.8Zm11.4-13.6a.25.25,0,0,0-.4,0l-.2.4h.2Zm74.2-62.6a.576.576,0,0,1,.4.2h.4l.2-.2Zm-89,79q-.8,0-.6.4a.576.576,0,0,0,.4-.2ZM135.1-7l.2-.4-.2-.2q-.2,0-.2.4Zm14.6-15.2q-.2.4-.4.4a2.327,2.327,0,0,0,.4-.6q.2-.4.4-.2Zm36.2-49-.2-.2-.2.4.2.2ZM173.7-57l-.2.4a.576.576,0,0,0-.4.2v.2l.2-.2a.576.576,0,0,0,.4-.2ZM152.5-26.8l-.2-.2-.2.2v.4Zm-15,16.6q0,.2.4.2l.2.2v-.4ZM224.7-91v.2h.6V-91ZM164.3-41.2a4.29,4.29,0,0,1,.8-1v.2Zm90.2-53.6a.576.576,0,0,0-.2.4l.4-.2.2-.2ZM142.1-13.2a.784.784,0,0,1-.6.8ZM271.3-97.8a1.158,1.158,0,0,0-.8.2Q270.5-97.4,271.3-97.8Zm-117.2,70a.25.25,0,0,0,.4,0l-.2-.2v-.2l-.2.2Zm77.2-63.6q-.6,0-.6.2h.6Zm30.8-1.2q.2.2,1.2,0Zm-106,62.8-.6.6v-.2l.4-.4Zm9.4-13.6a.25.25,0,0,1,0,.4.25.25,0,0,1-.4,0Q165.5-43.2,165.5-43.4ZM143.1-12.8a1.535,1.535,0,0,1-.2.6l-.2-.2Zm108-79.4a.576.576,0,0,0,.4-.2h-.4l-.4.2Zm-23.8,1.4a1.775,1.775,0,0,0,.8-.2h-.2A.815.815,0,0,0,227.3-90.8Zm28.4-.6a1.158,1.158,0,0,1-.8.2A1.158,1.158,0,0,1,255.7-91.4ZM139.1-8a1.152,1.152,0,0,1,.4-.8A2.061,2.061,0,0,1,139.1-8Zm4.4-5a1.535,1.535,0,0,1,.2-.6A.4.4,0,0,1,143.5-13ZM260.1-95.6a1.775,1.775,0,0,0-.8.2h.6Zm-66,12.8-.2.2q-.4,0-.4.2h.4Zm-42,60.2q-.2.4-.4.4,0-.2.4-.6Zm7.4-11.8a.25.25,0,0,1,0-.4l.4-.4a.576.576,0,0,1-.2.4l-.2.2Zm-2.6,2.6.2-.4.2.4ZM132.7-4.2v-.4h.4Zm46.6-60.2.2-.4.2-.2-.2-.2ZM139.5-11.2v-.2h-.2v.2h-.2l.2.2Zm-.8.2q-.2.4,0,.6Q138.9-10.8,138.7-11ZM252.5-94.2h.4l.2-.2h-.4ZM131.3-3.4v.2a.576.576,0,0,0-.4.2.576.576,0,0,1,.2-.4Zm18.8-19a4.629,4.629,0,0,1-.6,1Zm1-2.6a.25.25,0,0,0,0,.4l.2-.4ZM132.7,4.4a.576.576,0,0,1-.4.2,1.535,1.535,0,0,1,.6.2l-.2-.2Zm94.8-95.6-.4.2.2.2Zm9.2-.8a.576.576,0,0,1-.4.2h.2l.6-.2ZM183.1-68.2v.2h.2v-.4Zm-5.4,6h.2l.2-.2h-.4Zm-28,41.6-.2.2h-.2v-.2ZM184.9-72l.2-.4.2-.2v.2Zm-4.2,4.6-.2.2h.4v-.2Zm-3.2,5.8v-.2l.2-.2a.576.576,0,0,0-.4.2v.2Zm-44.8,57V-5h.2v.2ZM173.3-56a.576.576,0,0,0-.2.4h.2ZM144.5-14.8l.4-.4-.2.4v.2Zm-4.2,5.4a.576.576,0,0,1-.2.4h-.2Q139.9-9.2,140.3-9.4ZM254.7-92.8v.2h.2l.2-.2Zm-31.2,3.2a.576.576,0,0,0-.4-.2h.6Zm-63.4,56q0-.6.2-.6ZM230.7-114q.2.8,0,.8ZM151.1-22.6q-.2-.2.2-.4v.2Zm83.8-69a1.535,1.535,0,0,1-.6.2l.2-.2ZM133.1-5.6a.576.576,0,0,1-.2.4Q132.7-5.6,133.1-5.6Zm.6-.6q.2.4-.2.2Zm56.2-71.6a2.327,2.327,0,0,0,.4-.6l-.2.2A.576.576,0,0,0,189.9-77.8Zm-36.8,54a.25.25,0,0,1,0-.4A.25.25,0,0,1,153.1-23.8Zm19.6-31a.25.25,0,0,0-.4,0A.25.25,0,0,0,172.7-54.8Zm87-38.4q.4.2.4,0a.576.576,0,0,1-.4-.2ZM144.3-17a.25.25,0,0,0,0,.4Q144.5-17,144.3-17ZM256.9-92.8q.4-.2.4-.4Q256.9-93,256.9-92.8ZM132.1-4h-.2v-.2h.2Zm52.8-66.6v.2a.576.576,0,0,1-.2-.4Zm-4.8,6.2v-.2l.2-.2v.2Zm-4.2,3.8h.2a.576.576,0,0,0,.2-.4Zm8-11.6h.2v-.2h-.2Zm3.4-4h.2v-.2h-.2Zm1.8-2.4h.2v-.2h-.2Zm-19,27.4-.2.4h.2Zm-3.2,4.6h.2v-.2h-.2Zm-2,2h-.2v.2h.2Zm-7.8,11h-.2v.2h.2Zm-20,24a.25.25,0,0,0,0,.4v-.2l.2-.2Zm25.2-31.2h-.2v.2h.2Zm66.8-50.4h-.4l.2.2Zm7.6-1a.576.576,0,0,0-.4-.2v.2Zm17.4-2.4-.4.4a.576.576,0,0,1,.4-.2ZM220.5-90a1.535,1.535,0,0,1,.6-.2A.815.815,0,0,1,220.5-90Zm-1.8-.2-.4.2h.4Zm-66.4,65h.2v.2h-.2Zm20.6-30.2-.2.4h.2Zm37.6-47.4.2.2h-.4ZM191.1-80l-.2-.2v.4Zm-49,68.6q0-.4.2-.4Q142.1-11.2,142.1-11.4Zm36-51.2a1.535,1.535,0,0,1,.2-.6l-.2.2ZM148.5-21a1.535,1.535,0,0,1,.2-.6v.2Zm-.8,2.6q-.2,0,0-.4Zm-.8,2.2q.2,0-.4.4ZM182.1-69q-.2.4,0,.4ZM142.5-15q-.2.4,0,.4Zm24-66.2q0-.2.4-.2Zm-26,68.4q0,.4.2,0Zm88.2-78.4a1.535,1.535,0,0,1-.6.2h.2A.576.576,0,0,0,228.7-91.2ZM142.5-12.4a.576.576,0,0,1,.2-.4Q142.7-12.4,142.5-12.4Zm-3.6.8a.25.25,0,0,0,0-.4Zm3.6-.8q.2,0,0,.4Zm49.4-68v.2h-.2ZM133.1-4.8a.25.25,0,0,1,.4,0ZM175.5-60l.2-.2h-.2Zm94.4-35.6a.25.25,0,0,1,.4,0Zm-4-.8q.4-.2.4,0Zm-35.6-18.4a.25.25,0,0,1,.4,0ZM161.3-34l.2-.2h-.2Zm93.8-61-.2.2h.2ZM136.3-8.4l-.2-.2v.2Zm26-30.2q.2,0,0,.4Zm3.8-7.2v.2h.2Zm86-48.4a.25.25,0,0,0-.4,0ZM180.9-67.4q.2-.4,0-.4ZM165.7-41.6l-.2-.2v.2ZM152.9-28.4l-.2-.2v.2ZM142.3-14h.2l-.2.2Zm-.4,0,.2-.2h-.2Zm45.4-61h.2v.2Zm-43,59.8v.2h-.2Zm46.2-63.4-.2.2h.2Zm-46.6,65,.2.2h-.2Zm11.2-16.8-.2.2h.2Zm-9,14.6-.2-.2h.2Zm118-77a.576.576,0,0,0,.4-.2ZM182.5-68.2h.2l-.2.2ZM134.7-7.4v.2h.2Zm24.4-26.4.2-.2h-.2ZM186.5-75l-.2.4.2-.2Zm-28,41h-.2l.2-.2Zm33.4-46.4a.576.576,0,0,0,.2-.4v.2ZM181.3-66h.2l-.2-.2Zm39.4-23.4a.576.576,0,0,0-.2.4A.576.576,0,0,0,220.7-89.4ZM147.1-21.2h.2v-.2Zm11.8-15.4v.2l.2-.2Zm30.6-40,.2-.2h-.2ZM150.1-19.8V-20h-.2Zm-9.6,8,.2.2h-.2Zm11-11.2.2-.2h-.2Zm11-17,.2.2h-.2Zm30.8-42v-.2l-.2.2ZM175.9-59.6v.2h.2ZM149.7-23.8l.2-.2h-.2ZM159.9-34v.2h-.2ZM144.3-17.8l.2-.2h-.2Zm5.2-6.2v.2l.2-.2Zm3-2.2v.2l-.2-.2Zm29.6-39.2.2-.2h-.2ZM132.3-4.2h-.2l.2-.2Zm30.8-37.4.2-.2h-.2Zm3.2-3v.2l.2-.2Zm-8,10.8-.2-.2h.2Zm4.4-5.2v-.2h.2Zm0-1.4-.2.2v-.2Zm1.2-2.8h.2l-.2-.2Zm-2.2,7,.2-.2h-.2Zm27.6-42.2h-.2l.2.2ZM166.9-43.6l-.2.2h.2Zm14-23.2-.2-.2v.2ZM153.5-25.6a.576.576,0,0,1-.2.4A.576.576,0,0,1,153.5-25.6Zm33.2-65h-.2l.2-.2ZM181.1-67l.2-.2h-.2Zm-23,31.4.2.2v-.2ZM144.1-16l-.2-.2h.2Zm15-20.8.2-.2h-.2ZM189.3-78h.2v-.2Zm-30,42,.2-.2h-.2ZM147.9-18a.25.25,0,0,1,0,.4Zm14-18.4.2-.2h-.2ZM144.9-15l.2.2h-.2Zm0,.6a.25.25,0,0,1,0-.4Zm94.6-75.4a.576.576,0,0,0,.4-.2Zm-48,10q-.2.4-.4.4l.2-.2ZM150.7-23a1.308,1.308,0,0,1-.6.6Z" transform="translate(233.5 212.8)" fill="#fff"/></svg>